<svg width="193" height="264" viewBox="0 0 193 264" fill="none" xmlns="http://www.w3.org/2000/svg">
<path d="M192 24.987L190.13 27.6531L187.887 30.8502L183.752 36.7297L180.609 39.824L178.236 42.165L178.014 42.5876L178.025 45.1941L178.051 51.5667L178.1 64.3066L178.149 77.0408L178.198 89.7753L178.219 96.1426L178.23 98.283L180.317 100.96L182.354 103.577L185.047 107.034L186.494 108.888L186.733 109.506L186.657 110.746L184.44 113.342L182.625 114.523L180.181 115.087L179.45 114.979L178.491 114.61L178.116 115.233L177.835 116.203L177.293 115.997L176.886 115.71L177.13 117.433L177.38 118.284L177.005 119.422L175.819 120.425L175.711 121.275L173.142 123.497L169.495 123.741L167.577 124.846L166.726 125.751L166.076 127.729L166.303 130.758L165.285 133.089L165.095 134.259L163.209 135.771L162.375 137.158L161.757 138.572L161.22 139.19L160.581 142.355L159.703 144.279L159.465 144.918L159.248 145.492L158.571 146.62L158.126 147.4L157.807 147.909L155.585 152.84L153.85 155.068L152.49 154.813L151.586 155.675L151.488 156.081L151.006 155.853L149.873 155.035L147.538 153.361L145.202 151.686L142.867 150.012L140.531 148.337L138.195 146.663L135.86 144.988L133.524 143.314L131.189 141.64L129.818 140.659L129.216 140.079L128.739 138.925L128.512 138.637L127.889 138.274L127.157 138.193L126.946 137.971L126.951 137.413L127.201 136.611L128.062 135.077L128.154 134.172L127.986 133.148L127.721 131.506L127.488 131.132L125.938 130.271L122.697 128.472L119.457 126.673L116.217 124.874L112.971 123.074L109.73 121.275L106.489 119.476L103.249 117.677L100.008 115.878L96.7626 114.079L93.522 112.28L90.276 110.481L87.0358 108.682L83.7951 106.883L80.5548 105.084L77.3142 103.285L74.0683 101.486L72.8489 100.808L71.7544 100.239H70.5948L70.5459 97.6651L70.9143 91.1138L70.871 85.3588L71.2018 82.4761L72.6322 80.6499L73.2934 79.3223L73.7647 77.469L74.5125 75.9571L76.2089 74.7271L76.5122 74.0497L78.3114 71.9958L79.3896 69.3568L80.2026 68.4574L81.2213 67.6282L81.9364 67.1893L83.1178 66.7504L84.0445 66.5012L84.2125 66.2899L84.2936 65.8617L83.985 64.2252L84.3806 63.6887L85.009 62.5941L85.7297 61.5754L86.3799 60.925L86.7431 60.2586L86.9111 59.1097L86.9382 58.2915L86.9326 56.9584L86.7268 53.9293L85.9628 51.3933L85.4912 48.5538L85.8381 47.6217L85.2365 45.9581L84.9385 45.866L84.451 45.503L83.8223 43.9315L83.3509 42.5008L83.0582 42.1433L81.0209 40.8914L80.0075 37.9382L78.8694 37.2825L78.2516 34.3454L78.1325 33.5109L78.7774 30.5793L78.7123 29.9073L78.0296 29.2896L76.1166 28.6556L74.5667 27.4472L74.7672 27.0245L74.8809 26.5856L74.0627 26.2929L71.6893 21.2805L74.7401 18.2676L77.8345 15.2167L81.7849 11.3531L85.4102 7.80372L88.5423 4.73657L91.3384 2L91.2679 2.52026L91.2785 3.21383L91.6255 3.63652L92.2 3.92922L92.9964 3.62031L93.6956 3.19216L94.3783 3.10005L98.578 4.23797L99.2825 5.22971L99.2336 6.29718L99.4178 7.07211L99.0927 7.8525L98.746 10.2042L98.8542 12.361L100.106 13.9595L101.233 15.2114L102.127 16.9724L102.788 17.5143L103.699 17.7961L106.587 17.872L110.862 17.9858L114.976 18.0941L115.349 18.1375L116.222 18.3759L120.01 20.7493L123.478 22.9278L126.415 24.819L129.265 26.6561L132.034 28.4442L134.18 29.9237L136.299 30.3733L139.74 30.5901L142.119 30.666L144.319 31.2891L147.592 31.8689L150.03 32.1671L151.504 32.503L155.595 32.8444L156.273 32.6438L158.077 31.002L160.099 28.3305L160.89 26.862L163.502 25.3988L168.092 23.3614L171.327 21.9198L174.925 20.473L176.561 21.7249L178.816 23.7353L179.823 24.7268L180.631 25.1657L181.856 25.4585L183.346 25.4639L184.158 25.4206L185.822 25.1605L189.713 24.922L192 24.987ZM178.469 117.737L177.905 117.867L178.198 117L179.867 115.889L180.544 116.138L180.674 116.388L180.636 116.621L180.355 116.848L178.469 117.737Z" fill="#D900C6" stroke="white" stroke-width="0.795826"/>
<path d="M116.946 80.909L120.371 85.4929H118.347L115.163 81.3164V85.4929H113.406V76.5797H115.163V80.5142L118.219 76.5797H120.244L116.946 80.909ZM126.78 82.9845H121.98C122.192 83.7824 122.79 84.1814 123.775 84.1814C124.403 84.1814 124.879 83.9692 125.201 83.5447L126.525 84.3087C125.897 85.217 124.972 85.6712 123.75 85.6712C122.697 85.6712 121.852 85.3529 121.216 84.7162C120.579 84.0795 120.261 83.2773 120.261 82.3096C120.261 81.3589 120.575 80.5609 121.203 79.9158C121.823 79.2706 122.629 78.948 123.622 78.948C124.565 78.948 125.333 79.2706 125.927 79.9158C126.538 80.5609 126.844 81.3589 126.844 82.3096C126.844 82.4879 126.823 82.7128 126.78 82.9845ZM121.954 81.7112H125.201C125.108 81.2952 124.917 80.9769 124.628 80.7562C124.348 80.5355 124.013 80.4251 123.622 80.4251C123.181 80.4251 122.816 80.5397 122.527 80.7689C122.239 80.9896 122.048 81.3037 121.954 81.7112ZM131.53 78.948C132.235 78.948 132.808 79.1815 133.249 79.6484C133.708 80.1237 133.937 80.7689 133.937 81.5838V85.4929H132.294V81.7876C132.294 81.3716 132.18 81.049 131.951 80.8198C131.73 80.5906 131.424 80.476 131.034 80.476C130.601 80.476 130.257 80.6119 130.002 80.8835C129.756 81.1466 129.633 81.5371 129.633 82.055V85.4929H127.991V79.1263H129.633V79.8394C130.024 79.2452 130.656 78.948 131.53 78.948ZM137.94 83.4047L139.354 79.1263H141.111L138.793 85.4929C138.462 86.4097 138.021 87.0718 137.469 87.4793C136.926 87.8953 136.247 88.082 135.432 88.0396V86.5116C135.865 86.5201 136.213 86.4267 136.476 86.2314C136.739 86.0362 136.947 85.7221 137.1 85.2892L134.49 79.1263H136.285L137.94 83.4047ZM146.483 79.8776V79.1263H148.125V85.4929H146.483V84.7417C145.99 85.3613 145.298 85.6712 144.407 85.6712C143.558 85.6712 142.828 85.3486 142.217 84.7035C141.614 84.0498 141.313 83.2519 141.313 82.3096C141.313 81.3758 141.614 80.5821 142.217 79.9285C142.828 79.2749 143.558 78.948 144.407 78.948C145.298 78.948 145.99 79.2579 146.483 79.8776ZM143.452 83.6084C143.783 83.9395 144.203 84.105 144.713 84.105C145.222 84.105 145.642 83.9395 145.973 83.6084C146.313 83.2689 146.483 82.8359 146.483 82.3096C146.483 81.7833 146.313 81.3546 145.973 81.0236C145.642 80.684 145.222 80.5142 144.713 80.5142C144.203 80.5142 143.783 80.684 143.452 81.0236C143.121 81.3546 142.955 81.7833 142.955 82.3096C142.955 82.8359 143.121 83.2689 143.452 83.6084Z" fill="white"/>
<path d="M158.955 206.028L158.132 206.228L157.812 206.033L157.308 205.394L158.186 204.852L159.037 203.8L161.015 202.256L161.692 201.237L161.936 201.021L161.795 202.224L160.678 204.852L159.725 205.025L158.955 206.028ZM155.688 178.581L156.853 181.816L156.707 182.423L155.883 182.791L155.455 182.824L154.945 182.304L154.588 181.215L153.965 181.475L152.902 180.169L151.851 180.104L150.919 178.548L151.282 177.194L151.071 174.88L152.204 173.698L152.843 171.704L153.58 173.064L153.748 175.189L154.739 177.681L155.568 178.451L155.688 178.581ZM161.291 159.328L161.383 160.092L161.15 160.812L161.199 163.105L161.107 164.627L160.24 166.735L159.53 167.488L158.896 167.266L158.376 166.919L157.969 166.34L158.793 162.476L158.37 159.647L160.001 159.918L161.291 159.328ZM23.7918 100.218L24.1117 100.262H25.7049H28.4087H31.1128H33.817H36.5208H39.225H41.9288H44.633H47.3371H50.0409H52.7451H55.4489H58.1531H60.8572H63.5611H66.2652H68.9694H70.6327H71.7926L72.887 100.831L74.1065 101.508L77.3524 103.307L80.5927 105.106L83.8333 106.905L87.0736 108.704L90.3142 110.503L93.5601 112.302L96.8007 114.101L100.047 115.901L103.287 117.7L106.528 119.499L109.768 121.298L113.008 123.097L116.254 124.896L119.495 126.695L122.736 128.494L125.976 130.293L127.526 131.155L127.759 131.529L128.024 133.17L128.192 134.195L128.1 135.1L127.239 136.633L126.989 137.435L126.984 137.993L127.195 138.215L127.927 138.297L128.55 138.66L128.778 138.947L129.255 140.101L129.856 140.681L131.227 141.662L133.563 143.336L135.898 145.011L138.234 146.685L140.569 148.36L142.905 150.034L145.24 151.709L147.576 153.383L149.911 155.057L151.044 155.876L151.526 156.103L151.223 157.377L150.025 160.471L149.954 161.761L149.488 163.278L149.039 164.28L147.82 168.637L146.801 170.268L145.408 174.089L145.186 177.015L145.955 179.063L146.237 180.981L147.874 182.867L149.18 183.539L150.063 184.401L151.629 186.368L152.529 188.34L155.341 189.31L156.463 191.527L156.056 193.049L154.75 194.312L153.531 196.355L152.55 199.043L152.529 203.156L153.19 202.532L154.68 203.54L154.87 206.569L153.336 210.097L152.865 211.75L152.789 213.17L153.905 217.402L155.596 219.553L155.439 220.214L155 220.778L157.893 224.593L157.655 227.914L158.739 230.505L159.21 232.748L159.925 234.471L160.061 235.658L159.167 236.975L161.275 237.305L162.516 238.384L163.101 239.413L164.624 239.37L165.447 240.075L166.639 240.66L169.268 242.394L169.977 243.266L170.232 243.77L170.4 244.101L168.634 245.445L165.881 247.536L163.177 249.585L160.57 250.994L158.706 251.649L156.712 252.012L154.821 252.874L153.033 254.229L150.74 254.911L147.949 254.917L145.018 255.865L142.108 257.659L140.412 258.705L137.724 257.128L135.616 256.629L133.194 256.683L131.72 256.878L131.189 257.22L130.728 258.184L130.338 259.767L128.751 261.289L125.965 262.747L123.396 263.294L121.045 262.926L119.457 262.319L118.628 261.474L117.409 261.084L115.794 261.154L114.244 261.755L112.765 262.894L110.408 263.387L107.167 263.235L105.428 262.682L105.189 261.734L103.769 260.623L101.174 259.349L99.2555 259.322L98.0255 260.547L96.9036 261.317L95.8902 261.631L94.98 261.669L94.1723 261.436L93.6686 261.338L90.0867 261.208L86.6945 261.257L86.5861 260.726L86.3529 259.485L85.6484 258.407L85.0415 257.762L84.2831 257.594L83.8713 257.605L83.5406 257.106L83.1503 256.006L82.5761 255.074L81.8121 254.299L81.3514 253.578L81.1943 252.917L81.3134 252.191L82.0235 250.387L82.251 249.146L82.1697 247.878L81.785 246.577L80.9829 245.033L81.0749 244.588L80.804 243.537L80.7769 242.8L80.934 241.879L80.7825 240.671L80.0886 238.091V237.43L79.3573 236.184L77.103 233.236L76.9945 232.851L73.4615 229.882L72.0473 229.231L71.5379 229.789L71.3481 230.304L71.4943 231.258L71.4076 231.729L71.2614 231.946L70.4213 231.914L69.8958 231.805L68.5573 231.009L67.5171 230.814L64.9267 230.955L64.0218 231.144L63.312 230.965L61.9407 229.605L60.337 229.318L58.8956 229.248L56.5166 227.703L55.9586 227.774L55.693 227.893L54.8314 227.486L53.2111 226.587L50.9568 225.796L49.1145 224.912L48.2906 224.051L46.5622 223.72L45.0666 223.579L43.6791 222.777L42.2433 222.685L40.8344 222.479L40.5202 221.954L40.4712 220.772L39.9781 220.464L38.9432 220.16L37.8269 220.176L37.1496 220.344L36.7484 220.258L35.822 219.564L34.9604 218.681L34.6349 217.272L33.3344 216.367L31.8335 215.652L27.6609 215.727L27.0053 215.511L26.0138 214.795L24.8539 213.614L23.9218 212.265L23.1036 210.439L22.7136 209.333L22.2529 207.973L21.2342 205.935L19.7928 203.053L18.6766 200.69L17.4789 198.154L16.9911 196.295L16.0591 194.242L14.531 191.716L13.7561 190.73L12.9107 189.847L10.7162 188.145L8.22872 186.455L6.87962 185.317L5.06946 181.93L4.31107 180.705L3.78519 178.554L3.38962 176.321L3.55234 175.416L5.15645 172.539L5.31884 171.731L5.12371 170.642L4.33257 168.35L3.74186 166.854L3.33009 165.576L2.47379 163.446L1.298 160.514L1 159.235L1.03804 158.276L1.67207 155.746L2.23003 153.139L2.21383 152.424L6.99869 152.521L7.78453 151.952L10.4884 150.273L13.5285 146.907L14.1355 145.509L15.3764 143.353L16.5902 142.285L17.0563 141.543L17.3758 140.378L17.7551 139.391L19.3483 137.934L20.8982 136.812L20.7844 136.362L20.5783 136.026L20.8062 135.739L21.6513 135.165L23.2987 134.639L23.6238 133.517L23.6185 132.244L23.3529 131.534L23.4016 130.716L23.1469 130.261L22.0687 130.147L20.4702 129.513L19.1155 129.247L18.2105 128.879L17.8745 128.597L17.728 127.833L17.9936 126.998L18.1292 126.76L18.4758 125.866L17.8854 125.329L17.7336 125.069L18.0045 124.641L19.3973 121.813L19.7005 121.417L20.3075 121.368L21.2666 121.021L22.1553 120.864L22.8816 120.983L23.4181 120.848L23.8894 120.485L24.2903 119.379L24.621 117.537L24.4368 116.036L23.7432 114.876L23.5534 113.11L23.8732 110.736L23.6457 108.764L22.876 107.187L22.0905 106.249L20.8929 105.805L19.007 103.399L18.4325 102.234L18.5357 101.508L19.0341 101.275L19.1859 101.204L20.3888 101.313L21.516 101.036L22.5671 100.375L23.5861 100.186L23.7918 100.218Z" fill="#D900C6" stroke="white" stroke-width="0.795826"/>
<path d="M54.1939 167.304H60.7515V168.985H58.3449V176.217H56.5877V168.985H54.1939V167.304ZM65.3382 170.602V169.85H66.9808V176.217H65.3382V175.466C64.8459 176.085 64.154 176.395 63.2627 176.395C62.4138 176.395 61.6838 176.073 61.0726 175.428C60.4699 174.774 60.1685 173.976 60.1685 173.034C60.1685 172.1 60.4699 171.306 61.0726 170.653C61.6838 169.999 62.4138 169.672 63.2627 169.672C64.154 169.672 64.8459 169.982 65.3382 170.602ZM62.3077 174.333C62.6388 174.664 63.059 174.829 63.5683 174.829C64.0776 174.829 64.4978 174.664 64.8289 174.333C65.1684 173.993 65.3382 173.56 65.3382 173.034C65.3382 172.507 65.1684 172.079 64.8289 171.748C64.4978 171.408 64.0776 171.238 63.5683 171.238C63.059 171.238 62.6388 171.408 62.3077 171.748C61.9766 172.079 61.8111 172.507 61.8111 173.034C61.8111 173.56 61.9766 173.993 62.3077 174.333ZM72.0101 169.672C72.7147 169.672 73.2877 169.906 73.7291 170.372C74.1875 170.848 74.4167 171.493 74.4167 172.308V176.217H72.7741V172.512C72.7741 172.096 72.6595 171.773 72.4303 171.544C72.2096 171.315 71.904 171.2 71.5135 171.2C71.0806 171.2 70.7368 171.336 70.4821 171.608C70.2359 171.871 70.1129 172.261 70.1129 172.779V176.217H68.4703V169.85H70.1129V170.563C70.5033 169.969 71.1358 169.672 72.0101 169.672ZM80.4556 170.945L77.7562 174.676H80.5829V176.217H75.5533V175.122L78.24 171.391H75.6807V169.85H80.4556V170.945ZM86.2286 170.602V169.85H87.8712V176.217H86.2286V175.466C85.7363 176.085 85.0444 176.395 84.1531 176.395C83.3042 176.395 82.5742 176.073 81.963 175.428C81.3603 174.774 81.0589 173.976 81.0589 173.034C81.0589 172.1 81.3603 171.306 81.963 170.653C82.5742 169.999 83.3042 169.672 84.1531 169.672C85.0444 169.672 85.7363 169.982 86.2286 170.602ZM83.1981 174.333C83.5292 174.664 83.9494 174.829 84.4587 174.829C84.968 174.829 85.3882 174.664 85.7193 174.333C86.0589 173.993 86.2286 173.56 86.2286 173.034C86.2286 172.507 86.0589 172.079 85.7193 171.748C85.3882 171.408 84.968 171.238 84.4587 171.238C83.9494 171.238 83.5292 171.408 83.1981 171.748C82.8671 172.079 82.7015 172.507 82.7015 173.034C82.7015 173.56 82.8671 173.993 83.1981 174.333ZM92.9005 169.672C93.6051 169.672 94.1781 169.906 94.6195 170.372C95.0779 170.848 95.3071 171.493 95.3071 172.308V176.217H93.6645V172.512C93.6645 172.096 93.5499 171.773 93.3207 171.544C93.1 171.315 92.7944 171.2 92.4039 171.2C91.971 171.2 91.6272 171.336 91.3726 171.608C91.1264 171.871 91.0033 172.261 91.0033 172.779V176.217H89.3607V169.85H91.0033V170.563C91.3938 169.969 92.0262 169.672 92.9005 169.672ZM97.5246 169.086C97.2529 169.086 97.0153 168.989 96.8115 168.794C96.6163 168.59 96.5187 168.352 96.5187 168.081C96.5187 167.809 96.6163 167.571 96.8115 167.367C97.0153 167.164 97.2529 167.062 97.5246 167.062C97.8047 167.062 98.0424 167.164 98.2376 167.367C98.4414 167.571 98.5432 167.809 98.5432 168.081C98.5432 168.352 98.4414 168.59 98.2376 168.794C98.0424 168.989 97.8047 169.086 97.5246 169.086ZM98.3522 176.217H96.7097V169.85H98.3522V176.217ZM104.694 170.602V169.85H106.337V176.217H104.694V175.466C104.202 176.085 103.51 176.395 102.619 176.395C101.77 176.395 101.04 176.073 100.429 175.428C99.8259 174.774 99.5246 173.976 99.5246 173.034C99.5246 172.1 99.8259 171.306 100.429 170.653C101.04 169.999 101.77 169.672 102.619 169.672C103.51 169.672 104.202 169.982 104.694 170.602ZM101.664 174.333C101.995 174.664 102.415 174.829 102.924 174.829C103.434 174.829 103.854 174.664 104.185 174.333C104.525 173.993 104.694 173.56 104.694 173.034C104.694 172.507 104.525 172.079 104.185 171.748C103.854 171.408 103.434 171.238 102.924 171.238C102.415 171.238 101.995 171.408 101.664 171.748C101.333 172.079 101.167 172.507 101.167 173.034C101.167 173.56 101.333 173.993 101.664 174.333Z" fill="white"/>
<path d="M70.6265 100.261H68.9628H66.259H63.5549H60.8507H58.1469H55.448H52.7442H50.04H47.3362H44.6321H41.9279H39.2241H36.5199H33.8214H31.1172H28.4134H25.7092H24.1108L23.7909 100.217L23.5687 100.152L22.55 100.342L21.4933 101.008L20.3717 101.279L19.1688 101.176L19.017 101.247L18.4101 101.231L17.5323 101.182L16.7411 101.355L16.1395 101.935L15.5217 102.932L14.4107 104.07L13.5438 105.084L12.807 105.799L11.1215 106.985L10.2004 107.332L9.74526 107.278L9.46347 107.056L8.9323 105.544L8.60718 105.3L5.32885 106.081L4.83009 106.091L4.87375 105.62L4.62966 102.065L4.60254 99.8867L5.03085 98.5267L5.2799 96.9552L5.30702 95.5679L5.90864 93.2107L5.68638 91.7964L6.46132 86.8381L6.66737 86.0307L6.97066 83.6355L7.45288 82.8986L7.88649 82.6114L8.44478 81.1429L9.523 78.7911L10.2655 77.5826L10.1028 74.9436L10.2275 73.1445L10.3955 72.7489L11.9831 72.077L14.0423 70.4188L14.9148 68.4627L16.1448 67.2163L18.5291 66.4089L18.5348 66.4034L25.6008 59.7003L28.8847 56.0859L30.3152 54.2326L30.3641 53.566L30.6403 52.6937L30.0661 52.0108L29.3831 51.3932L29.1503 50.8187L28.5649 50.5369L27.7198 50.5478L27.1615 50.1306L26.5275 49.3176L25.8935 48.8082L23.8885 48.8516L22.3443 48.0171L22.3658 46.8846L22.9674 44.652L24.1379 42.0943L24.2027 41.3898L24.0347 40.7884L23.7529 40.2736L23.2273 39.7641L22.7289 39.1519L23.1136 37.3093L23.8505 35.5104L24.4574 34.6053L25.0481 33.5974L24.8801 32.7684L24.0185 32.3566L24.4683 31.5491L25.395 30.1889L27.1996 28.8125L28.7871 27.8914L29.8492 27.8859L31.9084 28.6228L33.7724 29.4846L34.7915 29.5279L36.0377 29.1702L38.6062 27.6367L39.2294 28.1244L39.9772 29.051L40.7954 30.5899L42.4157 31.2889L43.1907 31.7766L43.7486 31.9175L44.0576 31.793L44.6701 30.5845L45.4123 29.9288L46.7832 29.0998L49.8125 28.4333L51.9745 28.2327L52.8904 28.0918L54.424 27.7017L56.8464 26.4608L59.2304 28.0594L61.8208 28.3682L64.3298 28.3574L65.0938 27.8697L65.5327 27.5011L68.1664 24.873L71.7318 21.3127L74.1056 26.3253L74.9238 26.6233L74.8044 27.0568L74.604 27.4794L76.1591 28.688L78.0722 29.3219L78.7548 29.9397L78.8144 30.6061L78.1697 33.5378L78.2888 34.3723L78.9066 37.3093L80.0444 37.965L81.0525 40.9238L83.0955 42.1755L83.3879 42.5332L83.8595 43.9639L84.4826 45.5352L84.9701 45.8984L85.2685 45.9905L85.8698 47.6487L85.5231 48.5862L85.9945 51.4256L86.7585 53.9617L86.9645 56.9908L86.9698 58.3239L86.9427 59.1421L86.7747 60.291L86.4119 60.9574L85.7616 61.6077L85.0353 62.6265L84.4069 63.7211L84.011 64.2576L84.3199 65.8941L84.2389 66.3221L84.0761 66.5281L83.1494 66.7774L81.9683 67.2163L81.2529 67.6499L80.2342 68.4843L79.4213 69.3785L78.343 72.0175L76.5438 74.0765L76.2405 74.7539L74.5445 75.9786L73.7967 77.4905L73.3197 79.3438L72.6639 80.6714L71.2281 82.4976L70.903 85.3803L70.9463 91.1298L70.5722 97.6868L70.6265 100.261Z" fill="#D900C6" stroke="white" stroke-width="0.795826"/>
<mask id="path-6-outside-1_249_193" maskUnits="userSpaceOnUse" x="25" y="62" width="47" height="14" fill="black">
<rect fill="white" x="25" y="62" width="47" height="14"/>
<path d="M30.035 72.168C29.099 72.168 28.331 71.904 27.731 71.376C27.131 70.848 26.831 70.14 26.831 69.252V63.6H28.475V69.12C28.475 69.568 28.603 69.92 28.859 70.176C29.123 70.424 29.515 70.548 30.035 70.548C30.555 70.548 30.943 70.424 31.199 70.176C31.463 69.92 31.595 69.568 31.595 69.12V63.6H33.251V69.252C33.251 70.14 32.951 70.848 32.351 71.376C31.751 71.904 30.979 72.168 30.035 72.168ZM39.2083 66.744V66H40.7203V71.712C40.7203 72.632 40.4123 73.34 39.7963 73.836C39.1883 74.324 38.4523 74.568 37.5883 74.568C36.2283 74.568 35.2803 74.08 34.7443 73.104L36.0643 72.348C36.3603 72.908 36.8843 73.188 37.6363 73.188C38.1243 73.188 38.5083 73.06 38.7883 72.804C39.0683 72.548 39.2083 72.184 39.2083 71.712V71.064C38.7523 71.672 38.1123 71.976 37.2883 71.976C36.4403 71.976 35.7283 71.68 35.1523 71.088C34.5843 70.48 34.3003 69.752 34.3003 68.904C34.3003 68.056 34.5883 67.332 35.1643 66.732C35.7403 66.132 36.4483 65.832 37.2883 65.832C38.1123 65.832 38.7523 66.136 39.2083 66.744ZM38.7283 70.092C39.0483 69.78 39.2083 69.384 39.2083 68.904C39.2083 68.424 39.0483 68.036 38.7283 67.74C38.4163 67.428 38.0163 67.272 37.5283 67.272C37.0483 67.272 36.6443 67.428 36.3163 67.74C36.0043 68.036 35.8483 68.424 35.8483 68.904C35.8483 69.384 36.0043 69.78 36.3163 70.092C36.6363 70.396 37.0403 70.548 37.5283 70.548C38.0163 70.548 38.4163 70.396 38.7283 70.092ZM46.684 66.708V66H48.232V72H46.684V71.292C46.22 71.876 45.568 72.168 44.728 72.168C43.928 72.168 43.24 71.864 42.664 71.256C42.096 70.64 41.812 69.888 41.812 69C41.812 68.12 42.096 67.372 42.664 66.756C43.24 66.14 43.928 65.832 44.728 65.832C45.568 65.832 46.22 66.124 46.684 66.708ZM43.828 70.224C44.14 70.536 44.536 70.692 45.016 70.692C45.496 70.692 45.892 70.536 46.204 70.224C46.524 69.904 46.684 69.496 46.684 69C46.684 68.504 46.524 68.1 46.204 67.788C45.892 67.468 45.496 67.308 45.016 67.308C44.536 67.308 44.14 67.468 43.828 67.788C43.516 68.1 43.36 68.504 43.36 69C43.36 69.496 43.516 69.904 43.828 70.224ZM52.9717 65.832C53.6357 65.832 54.1757 66.052 54.5917 66.492C55.0237 66.94 55.2397 67.548 55.2397 68.316V72H53.6917V68.508C53.6917 68.116 53.5837 67.812 53.3677 67.596C53.1597 67.38 52.8717 67.272 52.5037 67.272C52.0957 67.272 51.7717 67.4 51.5317 67.656C51.2997 67.904 51.1837 68.272 51.1837 68.76V72H49.6357V66H51.1837V66.672C51.5517 66.112 52.1477 65.832 52.9717 65.832ZM61.1095 66.708V63.6H62.6575V72H61.1095V71.292C60.6535 71.876 60.0055 72.168 59.1655 72.168C58.3575 72.168 57.6655 71.864 57.0895 71.256C56.5215 70.64 56.2375 69.888 56.2375 69C56.2375 68.12 56.5215 67.372 57.0895 66.756C57.6655 66.14 58.3575 65.832 59.1655 65.832C60.0055 65.832 60.6535 66.124 61.1095 66.708ZM58.2535 70.224C58.5815 70.536 58.9815 70.692 59.4535 70.692C59.9335 70.692 60.3295 70.536 60.6415 70.224C60.9535 69.904 61.1095 69.496 61.1095 69C61.1095 68.504 60.9535 68.1 60.6415 67.788C60.3295 67.468 59.9335 67.308 59.4535 67.308C58.9735 67.308 58.5735 67.468 58.2535 67.788C57.9415 68.1 57.7855 68.504 57.7855 69C57.7855 69.496 57.9415 69.904 58.2535 70.224ZM68.6332 66.708V66H70.1812V72H68.6332V71.292C68.1692 71.876 67.5172 72.168 66.6772 72.168C65.8772 72.168 65.1892 71.864 64.6132 71.256C64.0452 70.64 63.7612 69.888 63.7612 69C63.7612 68.12 64.0452 67.372 64.6132 66.756C65.1892 66.14 65.8772 65.832 66.6772 65.832C67.5172 65.832 68.1692 66.124 68.6332 66.708ZM65.7772 70.224C66.0892 70.536 66.4852 70.692 66.9652 70.692C67.4452 70.692 67.8412 70.536 68.1532 70.224C68.4732 69.904 68.6332 69.496 68.6332 69C68.6332 68.504 68.4732 68.1 68.1532 67.788C67.8412 67.468 67.4452 67.308 66.9652 67.308C66.4852 67.308 66.0892 67.468 65.7772 67.788C65.4652 68.1 65.3092 68.504 65.3092 69C65.3092 69.496 65.4652 69.904 65.7772 70.224Z"/>
</mask>
<path d="M30.035 72.168C29.099 72.168 28.331 71.904 27.731 71.376C27.131 70.848 26.831 70.14 26.831 69.252V63.6H28.475V69.12C28.475 69.568 28.603 69.92 28.859 70.176C29.123 70.424 29.515 70.548 30.035 70.548C30.555 70.548 30.943 70.424 31.199 70.176C31.463 69.92 31.595 69.568 31.595 69.12V63.6H33.251V69.252C33.251 70.14 32.951 70.848 32.351 71.376C31.751 71.904 30.979 72.168 30.035 72.168ZM39.2083 66.744V66H40.7203V71.712C40.7203 72.632 40.4123 73.34 39.7963 73.836C39.1883 74.324 38.4523 74.568 37.5883 74.568C36.2283 74.568 35.2803 74.08 34.7443 73.104L36.0643 72.348C36.3603 72.908 36.8843 73.188 37.6363 73.188C38.1243 73.188 38.5083 73.06 38.7883 72.804C39.0683 72.548 39.2083 72.184 39.2083 71.712V71.064C38.7523 71.672 38.1123 71.976 37.2883 71.976C36.4403 71.976 35.7283 71.68 35.1523 71.088C34.5843 70.48 34.3003 69.752 34.3003 68.904C34.3003 68.056 34.5883 67.332 35.1643 66.732C35.7403 66.132 36.4483 65.832 37.2883 65.832C38.1123 65.832 38.7523 66.136 39.2083 66.744ZM38.7283 70.092C39.0483 69.78 39.2083 69.384 39.2083 68.904C39.2083 68.424 39.0483 68.036 38.7283 67.74C38.4163 67.428 38.0163 67.272 37.5283 67.272C37.0483 67.272 36.6443 67.428 36.3163 67.74C36.0043 68.036 35.8483 68.424 35.8483 68.904C35.8483 69.384 36.0043 69.78 36.3163 70.092C36.6363 70.396 37.0403 70.548 37.5283 70.548C38.0163 70.548 38.4163 70.396 38.7283 70.092ZM46.684 66.708V66H48.232V72H46.684V71.292C46.22 71.876 45.568 72.168 44.728 72.168C43.928 72.168 43.24 71.864 42.664 71.256C42.096 70.64 41.812 69.888 41.812 69C41.812 68.12 42.096 67.372 42.664 66.756C43.24 66.14 43.928 65.832 44.728 65.832C45.568 65.832 46.22 66.124 46.684 66.708ZM43.828 70.224C44.14 70.536 44.536 70.692 45.016 70.692C45.496 70.692 45.892 70.536 46.204 70.224C46.524 69.904 46.684 69.496 46.684 69C46.684 68.504 46.524 68.1 46.204 67.788C45.892 67.468 45.496 67.308 45.016 67.308C44.536 67.308 44.14 67.468 43.828 67.788C43.516 68.1 43.36 68.504 43.36 69C43.36 69.496 43.516 69.904 43.828 70.224ZM52.9717 65.832C53.6357 65.832 54.1757 66.052 54.5917 66.492C55.0237 66.94 55.2397 67.548 55.2397 68.316V72H53.6917V68.508C53.6917 68.116 53.5837 67.812 53.3677 67.596C53.1597 67.38 52.8717 67.272 52.5037 67.272C52.0957 67.272 51.7717 67.4 51.5317 67.656C51.2997 67.904 51.1837 68.272 51.1837 68.76V72H49.6357V66H51.1837V66.672C51.5517 66.112 52.1477 65.832 52.9717 65.832ZM61.1095 66.708V63.6H62.6575V72H61.1095V71.292C60.6535 71.876 60.0055 72.168 59.1655 72.168C58.3575 72.168 57.6655 71.864 57.0895 71.256C56.5215 70.64 56.2375 69.888 56.2375 69C56.2375 68.12 56.5215 67.372 57.0895 66.756C57.6655 66.14 58.3575 65.832 59.1655 65.832C60.0055 65.832 60.6535 66.124 61.1095 66.708ZM58.2535 70.224C58.5815 70.536 58.9815 70.692 59.4535 70.692C59.9335 70.692 60.3295 70.536 60.6415 70.224C60.9535 69.904 61.1095 69.496 61.1095 69C61.1095 68.504 60.9535 68.1 60.6415 67.788C60.3295 67.468 59.9335 67.308 59.4535 67.308C58.9735 67.308 58.5735 67.468 58.2535 67.788C57.9415 68.1 57.7855 68.504 57.7855 69C57.7855 69.496 57.9415 69.904 58.2535 70.224ZM68.6332 66.708V66H70.1812V72H68.6332V71.292C68.1692 71.876 67.5172 72.168 66.6772 72.168C65.8772 72.168 65.1892 71.864 64.6132 71.256C64.0452 70.64 63.7612 69.888 63.7612 69C63.7612 68.12 64.0452 67.372 64.6132 66.756C65.1892 66.14 65.8772 65.832 66.6772 65.832C67.5172 65.832 68.1692 66.124 68.6332 66.708ZM65.7772 70.224C66.0892 70.536 66.4852 70.692 66.9652 70.692C67.4452 70.692 67.8412 70.536 68.1532 70.224C68.4732 69.904 68.6332 69.496 68.6332 69C68.6332 68.504 68.4732 68.1 68.1532 67.788C67.8412 67.468 67.4452 67.308 66.9652 67.308C66.4852 67.308 66.0892 67.468 65.7772 67.788C65.4652 68.1 65.3092 68.504 65.3092 69C65.3092 69.496 65.4652 69.904 65.7772 70.224Z" fill="white"/>
<path d="M27.731 71.376L26.9532 72.2599L26.9532 72.2599L27.731 71.376ZM26.831 63.6V62.4225H25.6536V63.6H26.831ZM28.475 63.6H29.6525V62.4225H28.475V63.6ZM28.859 70.176L28.0265 71.0086L28.0395 71.0216L28.0529 71.0342L28.859 70.176ZM31.199 70.176L32.0183 71.0217L32.0187 71.0213L31.199 70.176ZM31.595 63.6V62.4225H30.4176V63.6H31.595ZM33.251 63.6H34.4285V62.4225H33.251V63.6ZM32.351 71.376L33.1289 72.2599L33.1289 72.2599L32.351 71.376ZM30.035 70.9905C29.3336 70.9905 28.858 70.7992 28.5089 70.4921L26.9532 72.2599C27.8041 73.0088 28.8645 73.3455 30.035 73.3455V70.9905ZM28.5089 70.4921C28.1929 70.2139 28.0085 69.8437 28.0085 69.252H25.6536C25.6536 70.4363 26.0692 71.4821 26.9532 72.2599L28.5089 70.4921ZM28.0085 69.252V63.6H25.6536V69.252H28.0085ZM26.831 64.7775H28.475V62.4225H26.831V64.7775ZM27.2976 63.6V69.12H29.6525V63.6H27.2976ZM27.2976 69.12C27.2976 69.8017 27.4997 70.4818 28.0265 71.0086L29.6916 69.3434C29.6896 69.3413 29.6849 69.3377 29.6776 69.3176C29.6687 69.2931 29.6525 69.233 29.6525 69.12H27.2976ZM28.0529 71.0342C28.6144 71.5617 29.3454 71.7255 30.035 71.7255V69.3705C29.6846 69.3705 29.6317 69.2863 29.6652 69.3178L28.0529 71.0342ZM30.035 71.7255C30.7213 71.7255 31.4595 71.563 32.0183 71.0217L30.3798 69.3303C30.4266 69.285 30.3888 69.3705 30.035 69.3705V71.7255ZM32.0187 71.0213C32.5599 70.4966 32.7725 69.8121 32.7725 69.12H30.4176C30.4176 69.2292 30.4015 69.2854 30.3935 69.3066C30.3873 69.3232 30.3835 69.3267 30.3794 69.3307L32.0187 71.0213ZM32.7725 69.12V63.6H30.4176V69.12H32.7725ZM31.595 64.7775H33.251V62.4225H31.595V64.7775ZM32.0736 63.6V69.252H34.4285V63.6H32.0736ZM32.0736 69.252C32.0736 69.8437 31.8892 70.2139 31.5732 70.4921L33.1289 72.2599C34.0129 71.4821 34.4285 70.4363 34.4285 69.252H32.0736ZM31.5732 70.4921C31.226 70.7976 30.7474 70.9905 30.035 70.9905V73.3455C31.2107 73.3455 32.2761 73.0104 33.1289 72.2599L31.5732 70.4921ZM39.2083 66.744L38.2663 67.4505L40.3858 70.2764V66.744H39.2083ZM39.2083 66V64.8225H38.0308V66H39.2083ZM40.7203 66H41.8978V64.8225H40.7203V66ZM39.7963 73.836L40.5333 74.7543L40.5348 74.7531L39.7963 73.836ZM34.7443 73.104L34.1591 72.0822L33.1555 72.657L33.7122 73.6708L34.7443 73.104ZM36.0643 72.348L37.1053 71.7978L36.5361 70.7209L35.4791 71.3262L36.0643 72.348ZM38.7883 72.804L37.9938 71.935L37.9938 71.935L38.7883 72.804ZM39.2083 71.064H40.3858V67.5316L38.2663 70.3575L39.2083 71.064ZM35.1523 71.088L34.2919 71.8918L34.3 71.9005L34.3084 71.9091L35.1523 71.088ZM35.1643 66.732L36.0137 67.5474L36.0137 67.5474L35.1643 66.732ZM38.7283 70.092L39.55 70.9353L39.5503 70.9351L38.7283 70.092ZM38.7283 67.74L37.8957 68.5726L37.9119 68.5888L37.9287 68.6044L38.7283 67.74ZM36.3163 67.74L37.1267 68.5942L37.1278 68.5931L36.3163 67.74ZM36.3163 70.092L35.4837 70.9246L35.4944 70.9353L35.5053 70.9457L36.3163 70.092ZM40.3858 66.744V66H38.0308V66.744H40.3858ZM39.2083 67.1775H40.7203V64.8225H39.2083V67.1775ZM39.5428 66V71.712H41.8978V66H39.5428ZM39.5428 71.712C39.5428 72.3408 39.3491 72.6843 39.0578 72.9189L40.5348 74.7531C41.4755 73.9957 41.8978 72.9232 41.8978 71.712H39.5428ZM39.0593 72.9177C38.6831 73.2196 38.2151 73.3905 37.5883 73.3905V75.7455C38.6895 75.7455 39.6935 75.4284 40.5333 74.7543L39.0593 72.9177ZM37.5883 73.3905C36.5452 73.3905 36.0564 73.0471 35.7764 72.5372L33.7122 73.6708C34.5042 75.1129 35.9113 75.7455 37.5883 75.7455V73.3905ZM35.3295 74.1258L36.6495 73.3698L35.4791 71.3262L34.1591 72.0822L35.3295 74.1258ZM35.0233 72.8982C35.5655 73.924 36.5463 74.3655 37.6363 74.3655V72.0105C37.2223 72.0105 37.1551 71.892 37.1053 71.7978L35.0233 72.8982ZM37.6363 74.3655C38.3315 74.3655 39.0292 74.1792 39.5828 73.673L37.9938 71.935C37.9874 71.9408 37.9171 72.0105 37.6363 72.0105V74.3655ZM39.5828 73.673C40.1641 73.1415 40.3858 72.428 40.3858 71.712H38.0308C38.0308 71.833 38.0128 71.8943 38.0043 71.9163C37.9979 71.9329 37.9952 71.9337 37.9938 71.935L39.5828 73.673ZM40.3858 71.712V71.064H38.0308V71.712H40.3858ZM38.2663 70.3575C38.0535 70.6412 37.7778 70.7985 37.2883 70.7985V73.1535C38.4467 73.1535 39.4511 72.7028 40.1503 71.7705L38.2663 70.3575ZM37.2883 70.7985C36.7486 70.7985 36.344 70.6243 35.9962 70.2669L34.3084 71.9091C35.1126 72.7357 36.1319 73.1535 37.2883 73.1535V70.7985ZM36.0127 70.2842C35.6527 69.8989 35.4778 69.4599 35.4778 68.904H33.1228C33.1228 70.0441 33.5159 71.0611 34.2919 71.8918L36.0127 70.2842ZM35.4778 68.904C35.4778 68.3533 35.6528 67.9234 36.0137 67.5474L34.3149 65.9166C33.5238 66.7406 33.1228 67.7587 33.1228 68.904H35.4778ZM36.0137 67.5474C36.3652 67.1813 36.7653 67.0095 37.2883 67.0095V64.6545C36.1313 64.6545 35.1154 65.0827 34.3149 65.9166L36.0137 67.5474ZM37.2883 67.0095C37.7778 67.0095 38.0535 67.1668 38.2663 67.4505L40.1503 66.0375C39.4511 65.1052 38.4467 64.6545 37.2883 64.6545V67.0095ZM39.5503 70.9351C40.1156 70.3839 40.3858 69.6754 40.3858 68.904H38.0308C38.0308 69.0926 37.981 69.1761 37.9063 69.2489L39.5503 70.9351ZM40.3858 68.904C40.3858 68.1327 40.1146 67.4184 39.5278 66.8756L37.9287 68.6044C37.982 68.6536 38.0308 68.7153 38.0308 68.904H40.3858ZM39.5609 66.9074C39.0037 66.3502 38.2923 66.0945 37.5283 66.0945V68.4495C37.7403 68.4495 37.8289 68.5058 37.8957 68.5726L39.5609 66.9074ZM37.5283 66.0945C36.7663 66.0945 36.0658 66.3532 35.5048 66.8869L37.1278 68.5931C37.2228 68.5028 37.3303 68.4495 37.5283 68.4495V66.0945ZM35.5059 66.8858C34.9311 67.4311 34.6708 68.1423 34.6708 68.904H37.0258C37.0258 68.7057 37.0775 68.6409 37.1267 68.5942L35.5059 66.8858ZM34.6708 68.904C34.6708 69.666 34.9304 70.3713 35.4837 70.9246L37.1489 69.2594C37.0782 69.1887 37.0258 69.102 37.0258 68.904H34.6708ZM35.5053 70.9457C36.0681 71.4803 36.7732 71.7255 37.5283 71.7255V69.3705C37.3074 69.3705 37.2045 69.3117 37.1273 69.2383L35.5053 70.9457ZM37.5283 71.7255C38.2831 71.7255 38.9909 71.4801 39.55 70.9353L37.9066 69.2487C37.8417 69.3119 37.7495 69.3705 37.5283 69.3705V71.7255ZM46.684 66.708L45.7621 67.4405L47.8615 70.0828V66.708H46.684ZM46.684 66V64.8225H45.5065V66H46.684ZM48.232 66H49.4095V64.8225H48.232V66ZM48.232 72V73.1775H49.4095V72H48.232ZM46.684 72H45.5065V73.1775H46.684V72ZM46.684 71.292H47.8615V67.9172L45.7621 70.5595L46.684 71.292ZM42.664 71.256L41.7984 72.0542L41.8038 72.06L41.8092 72.0658L42.664 71.256ZM42.664 66.756L41.8039 65.9518L41.7984 65.9578L42.664 66.756ZM43.828 70.224L42.9849 71.046L42.9902 71.0513L42.9954 71.0566L43.828 70.224ZM46.204 70.224L47.0366 71.0566L47.0366 71.0566L46.204 70.224ZM46.204 67.788L45.3609 68.61L45.3714 68.6207L45.382 68.6311L46.204 67.788ZM43.828 67.788L44.6606 68.6206L44.6659 68.6153L44.6711 68.61L43.828 67.788ZM47.8615 66.708V66H45.5065V66.708H47.8615ZM46.684 67.1775H48.232V64.8225H46.684V67.1775ZM47.0545 66V72H49.4095V66H47.0545ZM48.232 70.8225H46.684V73.1775H48.232V70.8225ZM47.8615 72V71.292H45.5065V72H47.8615ZM45.7621 70.5595C45.5516 70.8245 45.2603 70.9905 44.728 70.9905V73.3455C45.8757 73.3455 46.8884 72.9275 47.6059 72.0245L45.7621 70.5595ZM44.728 70.9905C44.268 70.9905 43.8842 70.8319 43.5188 70.4462L41.8092 72.0658C42.5959 72.8961 43.588 73.3455 44.728 73.3455V70.9905ZM43.5297 70.4578C43.1749 70.0731 42.9895 69.6116 42.9895 69H40.6345C40.6345 70.1644 41.0171 71.2069 41.7984 72.0542L43.5297 70.4578ZM42.9895 69C42.9895 68.3995 43.173 67.941 43.5297 67.5542L41.7984 65.9578C41.0191 66.803 40.6345 67.8405 40.6345 69H42.9895ZM43.5241 67.5602C43.891 67.1678 44.2733 67.0095 44.728 67.0095V64.6545C43.5827 64.6545 42.5891 65.1122 41.804 65.9518L43.5241 67.5602ZM44.728 67.0095C45.2603 67.0095 45.5516 67.1755 45.7621 67.4405L47.6059 65.9755C46.8884 65.0725 45.8757 64.6545 44.728 64.6545V67.0095ZM42.9954 71.0566C43.5487 71.6099 44.254 71.8695 45.016 71.8695V69.5145C44.8181 69.5145 44.7313 69.4621 44.6606 69.3914L42.9954 71.0566ZM45.016 71.8695C45.7781 71.8695 46.4833 71.6099 47.0366 71.0566L45.3714 69.3914C45.3007 69.4621 45.214 69.5145 45.016 69.5145V71.8695ZM47.0366 71.0566C47.5997 70.4935 47.8615 69.7753 47.8615 69H45.5065C45.5065 69.2167 45.4483 69.3145 45.3714 69.3914L47.0366 71.0566ZM47.8615 69C47.8615 68.2249 47.5994 67.504 47.026 66.9449L45.382 68.6311C45.4487 68.696 45.5065 68.7831 45.5065 69H47.8615ZM47.0471 66.966C46.4959 66.4007 45.7874 66.1305 45.016 66.1305V68.4855C45.2047 68.4855 45.2881 68.5353 45.3609 68.61L47.0471 66.966ZM45.016 66.1305C44.2447 66.1305 43.5361 66.4007 42.9849 66.966L44.6711 68.61C44.7439 68.5353 44.8274 68.4855 45.016 68.4855V66.1305ZM42.9954 66.9554C42.4344 67.5164 42.1825 68.234 42.1825 69H44.5375C44.5375 68.774 44.5977 68.6836 44.6606 68.6206L42.9954 66.9554ZM42.1825 69C42.1825 69.7663 42.4342 70.4811 42.9849 71.046L44.6711 69.402C44.5979 69.3269 44.5375 69.2257 44.5375 69H42.1825ZM54.5917 66.492L53.7361 67.301L53.7441 67.3093L54.5917 66.492ZM55.2397 72V73.1775H56.4172V72H55.2397ZM53.6917 72H52.5143V73.1775H53.6917V72ZM53.3677 67.596L52.5196 68.4127L52.5273 68.4207L52.5351 68.4286L53.3677 67.596ZM51.5317 67.656L50.6727 66.8507L50.6719 66.8516L51.5317 67.656ZM51.1837 72V73.1775H52.3612V72H51.1837ZM49.6357 72H48.4583V73.1775H49.6357V72ZM49.6357 66V64.8225H48.4583V66H49.6357ZM51.1837 66H52.3612V64.8225H51.1837V66ZM51.1837 66.672H50.0063V70.6079L52.1678 67.3186L51.1837 66.672ZM52.9717 67.0095C53.3467 67.0095 53.5653 67.1202 53.7361 67.3009L55.4473 65.6831C54.7862 64.9837 53.9248 64.6545 52.9717 64.6545V67.0095ZM53.7441 67.3093C53.9175 67.4891 54.0623 67.7776 54.0623 68.316H56.4172C56.4172 67.3184 56.13 66.3909 55.4393 65.6747L53.7441 67.3093ZM54.0623 68.316V72H56.4172V68.316H54.0623ZM55.2397 70.8225H53.6917V73.1775H55.2397V70.8225ZM54.8692 72V68.508H52.5143V72H54.8692ZM54.8692 68.508C54.8692 67.8963 54.695 67.2581 54.2003 66.7634L52.5351 68.4286C52.5256 68.419 52.5169 68.4081 52.5101 68.3972C52.5035 68.3865 52.5011 68.3799 52.5012 68.3802C52.5018 68.3817 52.5143 68.4184 52.5143 68.508H54.8692ZM54.2159 66.7793C53.7372 66.2822 53.114 66.0945 52.5037 66.0945V68.4495C52.5736 68.4495 52.5936 68.4598 52.5823 68.4555C52.5765 68.4533 52.5658 68.4486 52.5528 68.44C52.5397 68.4315 52.5283 68.4218 52.5196 68.4127L54.2159 66.7793ZM52.5037 66.0945C51.8281 66.0945 51.172 66.3181 50.6727 66.8507L52.3907 68.4613C52.3933 68.4585 52.3931 68.4593 52.3902 68.4613C52.3872 68.4633 52.3856 68.4638 52.3874 68.4631C52.3902 68.462 52.4229 68.4495 52.5037 68.4495V66.0945ZM50.6719 66.8516C50.1617 67.397 50.0063 68.1032 50.0063 68.76H52.3612C52.3612 68.4408 52.4378 68.411 52.3916 68.4604L50.6719 66.8516ZM50.0063 68.76V72H52.3612V68.76H50.0063ZM51.1837 70.8225H49.6357V73.1775H51.1837V70.8225ZM50.8132 72V66H48.4583V72H50.8132ZM49.6357 67.1775H51.1837V64.8225H49.6357V67.1775ZM50.0063 66V66.672H52.3612V66H50.0063ZM52.1678 67.3186C52.2665 67.1684 52.4401 67.0095 52.9717 67.0095V64.6545C51.8553 64.6545 50.837 65.0556 50.1997 66.0254L52.1678 67.3186ZM61.1095 66.708L60.1814 67.4327L62.287 70.1292V66.708H61.1095ZM61.1095 63.6V62.4225H59.932V63.6H61.1095ZM62.6575 63.6H63.835V62.4225H62.6575V63.6ZM62.6575 72V73.1775H63.835V72H62.6575ZM61.1095 72H59.932V73.1775H61.1095V72ZM61.1095 71.292H62.287V67.8708L60.1814 70.5673L61.1095 71.292ZM57.0895 71.256L56.2239 72.0542L56.2293 72.06L56.2347 72.0658L57.0895 71.256ZM57.0895 66.756L56.2294 65.9518L56.2239 65.9578L57.0895 66.756ZM58.2535 70.224L57.4104 71.046L57.4259 71.0619L57.442 71.0771L58.2535 70.224ZM60.6415 70.224L61.4741 71.0566L61.4794 71.0513L61.4846 71.046L60.6415 70.224ZM60.6415 67.788L59.7984 68.61L59.8037 68.6153L59.8089 68.6206L60.6415 67.788ZM58.2535 67.788L57.4209 66.9554L58.2535 67.788ZM62.287 66.708V63.6H59.932V66.708H62.287ZM61.1095 64.7775H62.6575V62.4225H61.1095V64.7775ZM61.48 63.6V72H63.835V63.6H61.48ZM62.6575 70.8225H61.1095V73.1775H62.6575V70.8225ZM62.287 72V71.292H59.932V72H62.287ZM60.1814 70.5673C59.9804 70.8248 59.698 70.9905 59.1655 70.9905V73.3455C60.313 73.3455 61.3266 72.9272 62.0376 72.0167L60.1814 70.5673ZM59.1655 70.9905C58.6939 70.9905 58.3071 70.8291 57.9443 70.4462L56.2347 72.0658C57.0239 72.8989 58.0211 73.3455 59.1655 73.3455V70.9905ZM57.9552 70.4578C57.6004 70.0731 57.415 69.6116 57.415 69H55.06C55.06 70.1644 55.4426 71.2069 56.2239 72.0542L57.9552 70.4578ZM57.415 69C57.415 68.3995 57.5985 67.941 57.9552 67.5542L56.2239 65.9578C55.4446 66.803 55.06 67.8405 55.06 69H57.415ZM57.9496 67.5602C58.3139 67.1706 58.6992 67.0095 59.1655 67.0095V64.6545C58.0158 64.6545 57.0171 65.1094 56.2295 65.9518L57.9496 67.5602ZM59.1655 67.0095C59.698 67.0095 59.9804 67.1752 60.1814 67.4327L62.0376 65.9833C61.3266 65.0728 60.313 64.6545 59.1655 64.6545V67.0095ZM57.442 71.0771C57.999 71.607 58.6937 71.8695 59.4535 71.8695V69.5145C59.2694 69.5145 59.164 69.465 59.065 69.3709L57.442 71.0771ZM59.4535 71.8695C60.2156 71.8695 60.9208 71.6099 61.4741 71.0566L59.8089 69.3914C59.7382 69.4621 59.6515 69.5145 59.4535 69.5145V71.8695ZM61.4846 71.046C62.0354 70.4811 62.287 69.7663 62.287 69H59.932C59.932 69.2257 59.8717 69.3269 59.7984 69.402L61.4846 71.046ZM62.287 69C62.287 68.234 62.0352 67.5164 61.4741 66.9554L59.8089 68.6206C59.8719 68.6836 59.932 68.774 59.932 69H62.287ZM61.4846 66.966C60.9334 66.4007 60.2249 66.1305 59.4535 66.1305V68.4855C59.6422 68.4855 59.7256 68.5353 59.7984 68.61L61.4846 66.966ZM59.4535 66.1305C58.6823 66.1305 57.9762 66.4002 57.4209 66.9554L59.0861 68.6206C59.1709 68.5358 59.2648 68.4855 59.4535 68.4855V66.1305ZM57.4209 66.9554C56.8599 67.5164 56.608 68.234 56.608 69H58.963C58.963 68.774 59.0232 68.6836 59.0861 68.6206L57.4209 66.9554ZM56.608 69C56.608 69.7663 56.8597 70.4811 57.4104 71.046L59.0966 69.402C59.0234 69.3269 58.963 69.2257 58.963 69H56.608ZM68.6332 66.708L67.7113 67.4405L69.8107 70.0828V66.708H68.6332ZM68.6332 66V64.8225H67.4558V66H68.6332ZM70.1812 66H71.3587V64.8225H70.1812V66ZM70.1812 72V73.1775H71.3587V72H70.1812ZM68.6332 72H67.4558V73.1775H68.6332V72ZM68.6332 71.292H69.8107V67.9172L67.7113 70.5595L68.6332 71.292ZM64.6132 71.256L63.7476 72.0542L63.753 72.06L63.7584 72.0658L64.6132 71.256ZM64.6132 66.756L63.7532 65.9518L63.7476 65.9578L64.6132 66.756ZM65.7772 70.224L64.9342 71.046L64.9394 71.0513L64.9446 71.0566L65.7772 70.224ZM68.1532 70.224L68.9858 71.0566L68.9858 71.0566L68.1532 70.224ZM68.1532 67.788L67.3102 68.61L67.3206 68.6207L67.3312 68.6311L68.1532 67.788ZM65.7772 67.788L66.6098 68.6206L66.6151 68.6153L66.6203 68.61L65.7772 67.788ZM69.8107 66.708V66H67.4558V66.708H69.8107ZM68.6332 67.1775H70.1812V64.8225H68.6332V67.1775ZM69.0038 66V72H71.3587V66H69.0038ZM70.1812 70.8225H68.6332V73.1775H70.1812V70.8225ZM69.8107 72V71.292H67.4558V72H69.8107ZM67.7113 70.5595C67.5008 70.8245 67.2095 70.9905 66.6772 70.9905V73.3455C67.8249 73.3455 68.8376 72.9275 69.5551 72.0245L67.7113 70.5595ZM66.6772 70.9905C66.2172 70.9905 65.8334 70.8319 65.468 70.4462L63.7584 72.0658C64.5451 72.8961 65.5373 73.3455 66.6772 73.3455V70.9905ZM65.4789 70.4578C65.1241 70.0731 64.9387 69.6116 64.9387 69H62.5838C62.5838 70.1644 62.9663 71.2069 63.7476 72.0542L65.4789 70.4578ZM64.9387 69C64.9387 68.3995 65.1222 67.941 65.4789 67.5542L63.7476 65.9578C62.9683 66.803 62.5838 67.8405 62.5838 69H64.9387ZM65.4733 67.5602C65.8402 67.1678 66.2226 67.0095 66.6772 67.0095V64.6545C65.5319 64.6545 64.5383 65.1122 63.7532 65.9518L65.4733 67.5602ZM66.6772 67.0095C67.2095 67.0095 67.5008 67.1755 67.7113 67.4405L69.5551 65.9755C68.8376 65.0725 67.8249 64.6545 66.6772 64.6545V67.0095ZM64.9446 71.0566C65.498 71.6099 66.2032 71.8695 66.9652 71.8695V69.5145C66.7673 69.5145 66.6805 69.4621 66.6098 69.3914L64.9446 71.0566ZM66.9652 71.8695C67.7273 71.8695 68.4325 71.6099 68.9858 71.0566L67.3206 69.3914C67.25 69.4621 67.1632 69.5145 66.9652 69.5145V71.8695ZM68.9858 71.0566C69.5489 70.4935 69.8107 69.7753 69.8107 69H67.4558C67.4558 69.2167 67.3975 69.3145 67.3206 69.3914L68.9858 71.0566ZM69.8107 69C69.8107 68.2249 69.5486 67.504 68.9752 66.9449L67.3312 68.6311C67.3979 68.696 67.4558 68.7831 67.4558 69H69.8107ZM68.9963 66.966C68.4451 66.4007 67.7366 66.1305 66.9652 66.1305V68.4855C67.1539 68.4855 67.2374 68.5353 67.3102 68.61L68.9963 66.966ZM66.9652 66.1305C66.1939 66.1305 65.4854 66.4007 64.9342 66.966L66.6203 68.61C66.6931 68.5353 66.7766 68.4855 66.9652 68.4855V66.1305ZM64.9446 66.9554C64.3836 67.5164 64.1318 68.234 64.1318 69H66.4867C66.4867 68.774 66.5469 68.6836 66.6098 68.6206L64.9446 66.9554ZM64.1318 69C64.1318 69.7663 64.3834 70.4811 64.9342 71.046L66.6203 69.402C66.5471 69.3269 66.4867 69.2257 66.4867 69H64.1318Z" fill="#D900C6" mask="url(#path-6-outside-1_249_193)"/>
</svg>
