<svg width="295" height="267" viewBox="0 0 295 267" fill="none" xmlns="http://www.w3.org/2000/svg">
<path d="M33.4565 119.874L33.0689 120.265L32.3951 121.477L32.3591 121.713L32.3748 122.099L32.4909 122.313L33.9448 124.47L33.353 124.839L32.3392 124.914L31.9079 124.631L31.6041 124.656L31.0885 124.979L30.0343 125.487L29.5129 126.978L29.9347 128.436L30.2501 129.026L30.7449 130.392L31.3936 130.965L32.1306 131.784L32.7723 132.42L33.0119 132.919L32.987 133.301L33.1719 133.418L33.3995 133.337L33.8222 132.698L34.5747 132.42L35.4389 132.334L35.6699 132.534L35.3692 132.995L34.8318 134.303L34.6482 135.477L34.9322 136.207L35.4523 137.827L35.7181 138.036L36.0602 138.012L37.5317 136.647L38.5687 135.019L39.2252 133.635L39.5912 133.403L40.4458 134.966L40.4559 134.966L40.9308 135.959L41.115 136.045L41.9344 136.591L42.5212 138.297L42.8634 139.79L43.0864 140.448L43.4852 141.991L44.0139 143.724L44.4571 144.855L44.7714 145.132L45.9575 146.91L46.4014 147.329L46.9373 149.251L47.3783 150.062L47.8943 151.221L49.0819 153.594L49.0541 154.722L48.1783 154.176L45.8202 152.485L44.1874 151.335L42.1137 149.967L39.2925 148.523L38.7694 148.051L37.9245 147.436L35.5865 145.934L33.8258 144.901L31.6546 143.516L31.903 142.101L31.4284 141.463L31.7135 138.878L31.5904 138.744L30.9047 138.651L30.9084 138.542L30.3543 134.564L29.2539 131.042L27.2491 126.488L26.4228 124.014L26.0004 122.273L25.4238 121.007L26.3024 120.201L27.0887 119.769L27.9542 119.151L28.3099 118.228L27.6924 116.776L27.921 116.284L28.3391 116.418L28.2901 115.947L28.7514 114.733L28.9189 114.054L29.024 113.295L29.1387 112.962L29.4331 113.639L29.6043 114.098L29.9798 114.58L30.3632 114.705L31.0124 115.039L31.5685 115.446L31.5911 116.123L31.9721 116.551L32.3526 116.864L32.9541 117.107L33.1168 118.263L33.2339 119.349L33.4565 119.874Z" fill="#383838" stroke="white" stroke-width="0.25"/>
<path d="M70.8509 24.9865L70.9067 25.0581L71.6972 25.5437L74.3188 27.5936L74.933 27.6322L75.556 27.58L76.1415 27.7296L76.5533 28.0193L76.9772 28.636L77.5236 29.3078L78.1021 29.6976L78.6478 29.9092L79.0225 29.9357L79.3674 29.6975L79.8385 29.4848L80.4124 29.6701L83.5018 31.8773L83.8736 32.1893L84.3255 32.0314L84.8683 31.5193L85.7024 31.3466L86.7066 31.3068L87.9922 31.707L88.5086 31.5298L89.6835 30.4048L91.5363 29.1846L92.7029 28.9959L92.8373 29.3383L92.4484 30.1377L91.6237 31.3657L91.7754 32.2348L92.2118 33.1739L92.5927 33.5939L93.2472 33.8713L94.7883 34.2361L95.1072 34.5539L95.6298 34.9343L96.0374 35.1563L96.3798 35.9297L96.0205 36.9318L95.4664 38.1435L95.2777 41.7622L95.5004 42.3367L96.5037 43.5994L96.6002 44.1085L96.0047 44.5645L95.4911 44.859L95.8122 45.3213L95.9819 46.1453L96.2156 46.7908L97.8501 47.4679L98.4765 48.0152L98.8238 48.6872L98.972 50.1922L99.1237 51.163L99.3325 51.2437L100.041 51.1249L103.31 52.1287L104.414 52.5163L104.909 51.8019L105.165 51.6247L105.451 51.6006L105.773 51.7697L106.031 52.0999L106.253 52.7239L107.242 52.2747L107.933 52.5416L110.239 53.4959L110.601 54.0328L110.766 55.2016L111.177 55.7398L111.649 56.1413L111.932 56.1912L113.418 55.142L114.176 54.8604L116.342 54.5692L119.077 54.5819L121.313 54.5951L123.216 54.6019L124.429 53.5488L124.904 53.4483L125.448 53.4885L126.406 53.9674L128.472 55.123L129.532 55.2119L131.552 55.8448L133.446 56.4347L134.222 58.6364L135.061 60.8955L136.877 63.2236L137.852 64.4728L139.103 63.581L140.495 62.5923L141.668 64.0724L142.845 65.5581L144.183 67.2501L144.635 67.0127L145.547 66.8894L146.246 67.2296L146.816 67.2677L147.264 66.9975L147.876 66.9538L148.659 67.1353L149.093 67.3903L149.185 67.7298L149.618 68.1091L150.394 68.5309L150.966 68.5669L151.779 68.5258L151.232 69.2935L150.336 69.7319L148.113 70.2672L147.562 70.6615L147.087 71.4878L147.255 71.7646L144.869 72.2848L144.114 72.604L143.876 72.7635L142.887 73.5485L141.589 74.8049L141.02 75.7936L140.722 76.602L140.733 77.1602L140.787 77.4231L141.146 78.8124L141.661 80.5492L142.051 82.1662L142.308 84.6667L142.329 85.8949L142.199 88.3077L141.071 89.6523L137.713 91.8173L133.988 94.2152L130.283 96.6058L127.525 98.3826L127.267 98.4599L123.116 98.3963L119.834 98.3407L115.731 98.2706L111.537 98.1916L107.279 98.1096L104.182 98.0471L100.333 97.8543L96.8251 97.6737L94.0516 97.5269L90.9523 97.9265L88.5283 98.2331L84.9953 98.6834L82.1722 99.0402L79.7511 99.3446L76.0221 99.8106L74.8559 100.057L71.8218 101.605L68.9874 103.127L66.0523 104.7L64.099 105.746L64.3885 103.776L63.279 103.074L62.5911 103.899L62.0098 104.724L60.3646 103.568L60.8048 102.919L58.712 101.36L56.556 99.7484L54.4688 98.185L52.3291 96.5826L53.4948 93.5696L54.3656 91.3182L55.581 88.1646L56.7505 85.1221L57.8626 82.2218L59.0862 79.022L60.1787 76.1591L61.6759 74.1715L61.7702 73.4647L61.2979 71.0793L60.8949 69.0381L60.6666 68.6717L59.0435 66.5865L57.2592 64.0338L56.4795 62.5302L55.9974 61.0335L55.7241 59.8785L55.1447 59.051L54.4612 58.2828L53.1012 57.3737L51.682 56.4224L50.7666 55.1531L50.3281 54.4325L49.7653 53.1671L49.6106 52.0392L49.7207 51.1827L51.1325 49.2839L51.9723 48.1548L52.3283 45.6631L52.5378 44.1801L52.7065 41.9586L52.8307 40.3206L52.6397 39.934L52.5387 39.8046L53.1341 39.0257L53.6086 36.7823L53.577 35.0581L53.7603 34.7601L54.766 34.5464L55.3657 34.2378L56.2451 32.8872L57.1297 32.5467L57.9466 32.3519L58.2971 32.1094L60.4393 31.5268L60.908 31.2938L61.8028 30.7283L63.0729 29.7991L63.5273 28.7316L63.7579 27.8653L64.1626 27.5672L64.6269 27.3688L65.0931 27.297L65.6145 27.4039L66.1002 27.7598L67.1839 29.2563L67.6034 29.5444L68.0382 29.6479L68.3567 29.4834L68.4479 28.9031L68.6777 27.9844L69.0128 26.9169L69.193 26.0369L69.3683 25.621L69.8743 25.266L70.4124 24.9745L70.8509 24.9865Z" fill="#D900C6" stroke="white" stroke-width="0.25"/>
<path d="M64.2867 105.609L63.9713 107.564L63.7921 107.891L62.6462 109.491L60.3058 112.764L58.7367 114.956L56.7275 117.758L55.0621 120.088L53.4101 122.389L51.8804 124.524L53.9739 124.869L57.17 125.397L59.3005 125.745L61.9151 126.288L64.248 126.771L66.72 127.278L66.2155 128.498L65.3833 130.505L65.3526 130.778L65.346 131.036L65.9031 133.02L66.3424 134.581L66.2887 134.858L64.5492 136.917L62.7852 138.995L61.6767 140.309L61.5147 140.923L61.7982 143.068L62.0839 145.277L61.5575 147.676L60.9693 150.337L60.6284 150.745L59.2682 151.469L56.9417 152.708L54.6928 153.904L53.1564 154.725L51.2883 155.717L50.6255 154.375L50.0709 153.8L48.8556 151.437L48.3241 150.286L47.8748 149.478L47.3027 147.576L46.8616 147.153L45.6645 145.375L45.3527 145.095L44.8923 143.972L44.3324 142.256L43.9035 140.731L43.6694 140.079L43.2966 138.604L42.6813 136.913L41.8734 136.354L41.6928 136.265L41.2056 135.278L41.1958 135.276L40.3254 133.719L39.8554 132.878L39.3397 131.679L39.143 130.474L37.3765 128.652L36.5616 127.557L35.8945 126.107L34.6135 124.795L33.1467 122.637L33.0284 122.423L33.0024 122.044L33.0307 121.814L33.6486 120.643L34.0126 120.27L34.9941 119.815L35.8059 119.874L37.5502 120.47L39.0634 119.857L39.8305 119.813L41.0087 119.928L42.0197 119.516L44.9505 117.872L45.9834 114.892L46.8561 112.369L47.8452 109.502L48.5165 107.549L49.6617 104.218L50.4496 102.063L51.4779 99.2235L52.4942 96.4197L54.638 98.0268L56.7291 99.5948L58.8892 101.211L60.9859 102.775L60.5458 103.425L62.194 104.584L62.7752 103.758L63.4632 102.932L64.5746 103.636L64.2867 105.609Z" fill="#383838" stroke="white" stroke-width="0.25"/>
<path d="M146.789 71.6332L147.003 71.9866L148.003 72.7595L149.373 73.3826L150.488 73.8813L150.858 74.2361L150.4 74.5012L149.961 74.5864L149.225 74.8893L148.938 76.9286L148.712 78.0936L148.856 78.3179L149.981 77.8203L150.669 77.275L151.02 76.7335L151.634 76.6793L152.445 77.166L152.992 77.6484L155.2 79.158L156.259 79.4208L157.854 80.1005L158.584 80.5283L159.131 80.9366L160.134 81.3873L158.815 82.4476L157.154 83.7871L155.803 84.8683L154.278 86.0887L152.961 85.7996L152.034 85.0797L151.069 84.3502L149.367 83.5616L146.86 85.0062L145.526 85.7716L143.354 87.0644L141.726 88.0334L141.865 85.6413L141.849 84.4251L141.604 81.9523L141.22 80.3494L140.715 78.6309L140.365 77.2588L140.312 76.9987L140.3 76.4481L140.596 75.6438L141.164 74.663L142.457 73.4172L143.441 72.6365L143.678 72.4778L144.431 72.1572L146.789 71.6332ZM151.513 72.9899L151.225 73.5292L150.864 73.6755L150.213 73.4271L148.833 72.623L148.746 71.987L148.591 71.8058L148.533 71.6238L148.608 71.4211L148.328 70.7519L148.398 70.4253L149.017 70.5417L150.991 71.1662L151.415 71.7195L151.532 71.9824L151.513 72.9899Z" fill="#383838" stroke="white" stroke-width="0.25"/>
<path d="M29.7122 113.675L29.6148 114.009L29.5483 114.778L29.4158 115.463L29.0178 116.678L29.0901 117.161L28.6674 117.003L28.4646 117.494L29.152 119.006L28.8444 119.93L28.0143 120.517L27.2537 120.918L26.4199 121.696L26.2067 120.672L25.8323 119.412L25.1912 117.822L25.0067 116.228L23.4985 111.481L23.1219 109.37L21.7434 107.025L21.5115 104.211L21.9915 102.946L22.0176 102.068L21.3744 101.267L22.7413 100.209L23.5882 99.4827L23.4866 98.8308L24.3346 98.5017L25.0566 98.6414L25.0732 99.3736L24.9981 100.281L25.1328 100.396L25.531 100.155L26.3712 99.9588L27.0107 99.9987L29.2648 101.586L29.5415 102.743L29.5311 103.979L29.3136 104.257L29.0781 105.05L29.0378 105.916L29.1368 106.363L29.4089 106.643L30.3349 106.534L30.4749 106.673L30.4397 106.898L29.8651 107.21L29.177 107.682L28.7929 107.986L28.4043 108.411L28.1952 109.324L28.1803 109.833L28.1988 110.137L28.4863 110.93L29.0557 111.184L29.6771 111.097L29.8361 111.174L29.9092 111.469L29.6976 112.075L29.6392 112.659L29.8134 113.071L29.7122 113.675Z" fill="#D900C6" stroke="white" stroke-width="0.25"/>
<path d="M32.7555 142.564L32.5915 143.973L31.7247 143.378L31.3906 143.179L31.647 140.533L31.5872 139.039L32.2627 139.171L32.3928 139.315L32.2559 141.896L32.7555 142.564ZM36.6667 128.977L38.5009 130.896L38.736 132.133L39.2904 133.376L39.7885 134.249L39.4435 134.463L38.879 135.817L37.9583 137.399L36.5936 138.687L36.2605 138.692L35.9891 138.467L35.3904 136.809L35.0721 136.06L35.1884 134.892L35.6408 133.606L35.909 133.16L35.672 132.946L34.832 132.985L34.1116 133.227L33.7316 133.843L33.5158 133.914L33.326 133.789L33.3267 133.403L33.067 132.891L32.402 132.213L31.6382 131.351L30.9722 130.739L30.4151 129.336L30.0739 128.725L29.5801 127.236L30.0041 125.768L31.0091 125.313L31.4952 125.017L31.7906 125.009L32.2281 125.318L33.2148 125.299L33.773 124.961L35.1033 126.341L35.8197 127.847L36.6667 128.977Z" fill="#383838" stroke="white" stroke-width="0.25"/>
<path d="M141.914 88.5959L143.553 87.6215L145.74 86.3215L147.083 85.5518L149.606 84.0994L151.323 84.898L152.297 85.6358L153.233 86.3637L154.56 86.6577L156.094 85.4295L157.454 84.3415L159.125 82.9935L160.453 81.9262L161.526 82.4102L162.354 83.0803L164.663 84.3936L166.979 85.0122L167.679 85.3487L168.506 86.0337L168.548 86.4957L168.748 86.9101L170.235 87.0747L172.172 86.6856L172.854 86.4362L173.713 86.2606L173.602 87.1115L175.282 87.5678L177.109 87.9404L178.33 87.3942L181.027 88.0022L183.961 87.4668L186.338 87.9091L186.241 88.029L185.756 88.1732L185.139 88.3412L185.136 88.6265L185.628 89.2058L186.3 89.8121L187.418 89.9165L188.331 89.9065L189.198 90.5591L190.134 92.6879L189.977 92.8103L189.554 92.8927L189.205 93.1083L189.11 93.3452L190.489 94.3237L191.635 95.0028L192.696 95.4207L193.961 96.2536L194.666 96.4813L196.942 96.6356L198.137 97.3157L199.975 98.8819L201.627 99.2628L202.705 99.7075L203.842 99.9112L204.96 100.527L206.077 100.801L206.508 100.751L207.003 100.484L207.55 100.062L208.059 99.3689L208.62 98.6526L209.443 98.5893L209.961 98.0963L210.28 98.3862L210.259 99.1362L210.692 100.645L211.492 100.313L212.192 99.9117L212.782 99.7478L213.043 99.5438L213.23 99.7827L214.108 100.847L214.589 101.139L215.162 101.283L216.015 101.502L216.867 101.72L217.719 101.939L218.572 102.158L219.424 102.376L220.279 102.592L221.129 102.808L221.982 103.027L222.832 103.242L223.682 103.458L224.532 103.674L225.382 103.89L226.233 104.105L227.083 104.321L227.936 104.535L228.784 104.748L229.485 104.926L230.201 104.504L230.428 104.37L231.074 103.99L232.075 103.399L233.374 102.637L234.913 101.732L236.626 100.722L238.462 99.6425L240.355 98.5277L242.25 97.4108L244.084 96.3335L245.799 95.3262L247.336 94.4187L248.638 93.654L249.638 93.0635L250.284 92.6829L250.512 92.5493L251.188 92.1502L251.289 92.0407L251.282 90.9719L252.584 91.4714L253.663 91.8841L255.143 92.4526L256.718 93.0526L258.221 93.6291L259.341 94.054L259.734 95.0957L260.164 96.2311L260.594 97.3668L261.022 98.4996L261.448 99.6346L261.876 100.768L262.304 101.9L262.73 103.03L263.156 104.16L263.579 105.293L264.005 106.423L264.428 107.55L264.852 108.678L265.273 109.807L265.697 110.935L266.119 112.059L266.54 113.184L267.048 114.537L266.45 115.468L265.488 116.97L264.524 118.474L263.562 119.976L262.6 121.477L261.635 122.981L260.671 124.48L259.709 125.982L258.745 127.486L257.78 128.985L256.814 130.487L255.852 131.989L254.888 133.488L253.921 134.989L252.957 136.488L251.99 137.989L251.026 139.488L250.234 140.72L248.62 142.391L247.052 144.012L245.29 145.838L243.173 148.034L241.511 149.755L239.087 152.266L236.908 154.518L234.869 156.631L232.83 158.743L231.094 160.541L230.178 161.767L229.357 163.535L228.096 166.247L226.806 169.008L226.139 170.439L226.109 172.795L226.092 173.988L226.065 176.143L226.042 177.769L226.014 179.713L226.423 181.1L227.054 183.241L226.816 184.089L226.319 185.335L225.784 186.362L224.445 187.318L222.92 186.891L221.302 186.435L220.575 186.314L220.205 186.566L219.009 187.717L217.569 189.105L215.585 190.375L213.294 191.836L211.146 193.208L210.038 193.843L208.186 194.175L207.74 194.302L207.371 194.537L205.8 195.736L204.244 196.924L202.869 198.351L201.326 199.426L199.89 200.751L199.556 201.435L198.946 201.89L198.753 202.415L198.509 202.783L197.962 202.887L197.517 203.305L196.678 203.682L195.865 203.587L195.119 203.528L194.499 203.658L193.892 203.912L193.455 204.249L193.088 204.924L192.931 205.422L192.684 206.874L192.866 207.182L193.621 207.344L193.674 207.656L193.382 208.326L193.802 209.187L194.043 209.648L194.723 210.673L195.542 211.258L196.061 211.304L196.33 211.62L196.674 212.402L196.366 212.965L196.509 213.852L196.525 214.304L196.419 214.917L195.829 217.14L195.261 216.559L194.064 215.973L193.51 215.331L192.773 214.829L191.974 214.621L190.822 214.654L190.186 213.976L189.088 213.67L187.927 213.64L186.693 212.87L185.279 211.672L181.944 211.244L178.252 211.324L176.777 210.897L174.053 209.802L172.231 208.675L169.245 208.066L168.631 207.415L167.731 206.738L166.625 206.064L165.82 205.481L161.67 203.391L160.752 203.259L159.739 202.857L159.178 202.371L158.796 202.165L157.266 202.485L155.146 201.895L150.309 202.091L148.616 203.054L146.792 203.196L145.094 202.847L142.749 201.787L139.57 201.14L136.005 199.477L135.661 198.124L135.081 197.437L133.714 196.581L132.523 196.026L131.517 195.406L130.794 193.951L129.795 192.468L129.491 191.504L129.051 190.526L127.499 189.077L126.339 188.556L125.925 187.928L125.169 188.055L124.238 187.747L124.687 187.397L123.176 187.14L122.488 186.877L121.233 185.904L120.115 185.283L117.206 184.16L115.596 183.344L112.941 182.734L110.509 182.647L109.14 182.815L108.29 182.657L107.515 183.235L106.114 183.153L105.512 183.579L104.685 184.034L102.722 183.299L100.978 182.535L98.4182 181.762L98.3721 181.073L98.1549 180.063L97.2287 179.24L96.526 178.736L95.0593 177.963L90.9768 176.369L90.1684 176.297L89.0251 176.381L87.5557 175.451L86.4393 174.457L84.792 174.837L79.4444 172.268L77.0926 171.739L75.8452 171.122L73.1822 170.58L71.2304 169.492L68.657 169.088L65.407 167.431L61.4897 166.286L60.3464 166.45L58.2637 167.774L57.2992 168.218L56.9986 169.376L56.3646 168.7L56.0955 167.288L55.1868 164.586L53.8823 162.609L50.7212 156.141L52.5894 155.143L54.1275 154.323L56.3758 153.125L58.7016 151.884L60.0614 151.159L60.4006 150.748L60.9942 148.093L61.5254 145.699L61.2431 143.494L60.9648 141.356L61.1252 140.745L62.2371 139.435L64.0013 137.356L65.7478 135.299L65.7998 135.02L65.3648 133.464L64.8132 131.486L64.8176 131.231L64.8489 130.959L65.6845 128.955L66.1911 127.738L63.7241 127.237L61.3956 126.761L58.7837 126.228L56.6552 125.883L53.4671 125.366L51.3777 125.026L52.9072 122.896L54.5626 120.592L56.2329 118.268L58.2429 115.471L59.8147 113.281L62.1591 110.011L63.3069 108.413L63.4867 108.087L63.8041 106.134L65.758 105.086L68.6964 103.513L71.5319 101.99L74.5643 100.44L75.7305 100.193L79.4586 99.7225L81.8795 99.415L84.7048 99.0526L88.2343 98.6002L90.6559 98.2877L93.7567 97.887L96.5267 98.0272L100.033 98.2027L103.881 98.3901L106.974 98.4505L111.232 98.5292L115.425 98.6024L119.526 98.6668L122.807 98.7179L126.956 98.7758L127.214 98.6981L129.972 96.9168L133.681 94.5263L137.406 92.1229L140.769 89.9535L141.914 88.5959ZM87.9914 177.7L88.0099 177.871L87.4516 177.825L86.9588 177.154L86.9479 176.561L87.3246 177.089L87.8486 177.511L87.9914 177.7ZM92.5436 178.654L92.3401 178.813L91.3501 178.662L90.7036 178.486L90.1562 178.454L88.2278 179.035L87.7376 178.821L87.6741 178.275L88.1208 178.518L88.5598 178.524L90.1891 178.088L92.4369 178.154L92.7437 178.065L92.5436 178.654ZM187.421 219.248L188.054 218.829L187.607 218.767L187.458 218.684L187.43 218.115L188.874 218.207L189.55 219.124L189.64 219.386L189.258 219.374L188.959 219.303L188.754 219.136L188.346 219.101L187.626 219.892L186.918 220.051L185.589 219.874L184.964 219.482L185.189 219.134L185.31 218.615L185.18 218.023L184.641 217.724L185.137 217.452L185.732 217.725L186.591 218.73L186.828 218.898L186.893 219.231L187.421 219.248Z" fill="#D900C6" stroke="white" stroke-width="0.25"/>
<path d="M52.3408 40.4483L52.4406 40.5761L52.6292 40.958L52.5063 42.576L52.3395 44.7706L52.1324 46.2356L51.7804 48.6971L50.9507 49.8126L49.5558 51.6884L49.447 52.5344L49.5997 53.6487L50.1556 54.8987L50.5886 55.6105L51.4929 56.8642L52.8948 57.8039L54.2382 58.7018L54.9134 59.4606L55.4857 60.278L55.7556 61.4189L56.2318 62.8974L57.0019 64.3826L58.7643 66.9041L60.3675 68.9639L60.5931 69.3257L60.991 71.3421L61.4574 73.6985L61.3641 74.3967L59.8849 76.3603L58.8053 79.1885L57.5963 82.3495L56.4973 85.2147L55.3417 88.2203L54.1408 91.3357L53.2802 93.5599L52.1283 96.5364L51.1226 99.3026L50.105 102.104L49.3254 104.23L48.1918 107.516L47.5274 109.443L46.5485 112.271L45.6848 114.76L44.6626 117.701L41.7688 119.326L40.7708 119.733L39.6084 119.621L38.8514 119.665L37.3577 120.271L35.6371 119.685L34.8361 119.628L33.8672 120.078L33.6408 119.563L33.5002 118.51L33.3142 117.386L32.7336 117.135L32.3621 116.822L31.987 116.397L31.9475 115.741L31.4058 115.333L30.7772 114.992L30.4079 114.861L30.0367 114.385L29.8611 113.936L29.5621 113.273L29.6722 112.697L29.5136 112.309L29.5821 111.753L29.7982 111.173L29.7343 110.895L29.5832 110.825L28.9846 110.92L28.4431 110.691L28.1838 109.944L28.1726 109.656L28.1977 109.172L28.4179 108.301L28.8001 107.889L29.1755 107.591L29.8464 107.129L30.405 106.82L30.4436 106.606L30.312 106.477L29.4203 106.6L29.165 106.34L29.0794 105.917L29.1365 105.094L29.3795 104.335L29.5943 104.067L29.6306 102.893L29.3894 101.8L27.2582 100.34L26.6449 100.316L25.8338 100.52L25.4462 100.757L25.3193 100.651L25.4107 99.7877L25.4103 99.0926L24.7198 98.9753L23.8984 99.3059L23.9822 99.9228L23.1533 100.631L21.818 101.664L19.6233 100.062L18.8359 99.2373L18.0439 98.189L17.2649 96.3564L16.5253 95.8008L16.1378 95.3379L15.5254 94.7661L13.3754 94.1784L11.9206 91.1325L11.8331 90.1861L12.4503 89.8006L14.2443 89.5902L14.4283 89.4117L14.0383 88.1503L14.1402 87.5415L14.663 86.6655L13.6471 84.9215L13.7622 84.3463L14.0587 83.8525L14.6852 83.3111L15.1781 82.7777L14.997 82.4728L12.7761 81.2625L12.484 80.7426L11.4288 78.6008L11.1062 77.6891L11.1525 77.2725L12.1239 76.6631L13.636 76.0078L14.384 76.277L15.3697 76.2688L16.2651 75.5175L17.4027 74.774L18.2571 74.1552L18.6639 73.3043L19.6826 71.5121L20.2629 70.7267L20.725 69.9244L22.1047 67.2118L23.0384 66.61L23.7372 66.2789L24.3207 66.0859L25.8832 65.9818L27.2752 66.0239L28.0335 65.769L29.0857 64.9215L30.7319 63.8555L32.6142 62.369L33.567 61.3105L34.7074 59.865L36.5759 57.0728L38.529 52.7537L39.8144 50.3905L40.5751 49.6349L41.6609 48.7744L42.9247 48.1424L44.2864 47.3334L44.849 46.8725L46.0524 45.6534L47.5152 43.9432L48.3824 42.8027L49.3334 41.2996L49.5414 39.8688L49.7439 39.5796L50.1987 39.4565L50.4013 39.3858L51.0861 39.5687L52.3408 40.4483Z" fill="#383838" stroke="white" stroke-width="0.25"/>
</svg>
