<svg width="189" height="227" viewBox="0 0 189 227" fill="none" xmlns="http://www.w3.org/2000/svg">
<g filter="url(#filter0_d_2167_1526)">
<path d="M159.728 44.5997L157.465 47.8008L154.749 51.6395L149.745 58.6988L145.941 62.414L143.068 65.2247L142.8 65.7323L142.813 68.8617L142.845 76.5131L142.904 91.8094L142.963 107.099L143.023 122.389L143.049 130.034L143.062 132.604L145.587 135.818L148.053 138.96L151.313 143.111L153.064 145.337L153.353 146.078L153.261 147.568L150.578 150.685L148.381 152.103L145.423 152.78L144.538 152.65L143.377 152.207L142.924 152.955L142.583 154.12L141.927 153.873L141.435 153.528L141.73 155.597L142.032 156.619L141.579 157.985L140.143 159.188L140.012 160.21L136.903 162.878L132.489 163.17L130.167 164.498L129.138 165.584L128.351 167.959L128.626 171.596L127.393 174.394L127.163 175.799L124.881 177.614L123.871 179.28L123.124 180.978L122.474 181.72L121.7 185.519L120.638 187.829L120.349 188.597L120.087 189.287L119.267 190.64L118.729 191.577L118.342 192.188L115.653 198.109L113.554 200.783L111.908 200.477L110.813 201.512L110.695 202L110.111 201.727L108.74 200.744L105.913 198.734L103.087 196.723L100.26 194.713L97.4332 192.702L94.6062 190.692L91.7796 188.681L88.9527 186.671L86.1261 184.661L84.4664 183.483L83.7386 182.787L83.1614 181.401L82.8859 181.056L82.1318 180.62L81.2463 180.523L80.9905 180.256L80.9969 179.586L81.2987 178.623L82.3415 176.782L82.4532 175.695L82.2499 174.465L81.9284 172.494L81.6462 172.045L79.7707 171.011L75.8485 168.85L71.9262 166.69L68.0044 164.53L64.0758 162.37L60.1535 160.21L56.2313 158.05L52.3094 155.89L48.3872 153.73L44.4585 151.57L40.5363 149.41L36.6077 147.25L32.6858 145.089L28.7636 142.929L24.8417 140.769L20.9195 138.609L16.9908 136.449L15.5149 135.636L14.1903 134.953H12.7868L12.7275 131.862L13.1735 123.996L13.121 117.086L13.5214 113.625L15.2527 111.432L16.0529 109.838L16.6234 107.613L17.5285 105.798L19.5817 104.321L19.9487 103.508L22.1264 101.042L23.4314 97.8731L24.4154 96.7932L25.6484 95.7976L26.5138 95.2707L27.9437 94.7437L29.0654 94.4445L29.2688 94.1907L29.3668 93.6767L28.9934 91.7117L29.4721 91.0676L30.2327 89.7534L31.105 88.5303L31.892 87.7494L32.3315 86.9492L32.5349 85.5698L32.5677 84.5873L32.5609 82.9868L32.3119 79.3498L31.3872 76.305L30.8164 72.8956L31.2363 71.7765L30.5081 69.779L30.1474 69.6684L29.5574 69.2326L28.7964 67.3457L28.226 65.628L27.8717 65.1987L25.4058 63.6957L24.1792 60.1498L22.8018 59.3626L22.054 55.836L21.9099 54.8341L22.6905 51.3143L22.6116 50.5074L21.7854 49.7657L19.47 49.0045L17.5941 47.5536L17.8367 47.0461L17.9744 46.5192L16.984 46.1677L14.1114 40.1495L17.8039 36.532L21.5492 32.8688L26.3305 28.2299L30.7183 23.9683L34.5092 20.2857L37.8935 17L37.8082 17.6247L37.821 18.4574L38.2409 18.9649L38.9363 19.3164L39.9002 18.9455L40.7465 18.4314L41.5727 18.3208L46.6559 19.6871L47.5085 20.8778L47.4493 22.1595L47.6722 23.0899L47.2787 24.0269L46.8592 26.8506L46.9901 29.4401L48.5053 31.3594L49.8695 32.8625L50.9516 34.9769L51.7518 35.6276L52.8539 35.9659L56.3494 36.057L61.5242 36.1936L66.5024 36.3237L66.9548 36.3757L68.0108 36.662L72.5952 39.5117L76.7928 42.1273L80.3476 44.398L83.7975 46.6037L87.1493 48.7507L89.7465 50.527L92.3109 51.0669L96.4757 51.3272L99.3547 51.4183L102.018 52.1665L105.979 52.8626L108.931 53.2206L110.714 53.6239L115.666 54.0339L116.486 53.7931L118.67 51.8218L121.116 48.6141L122.074 46.8509L125.235 45.0941L130.791 42.6479L134.706 40.9171L139.061 39.1799L141.042 40.683L143.77 43.0968L144.99 44.2874L145.967 44.8144L147.45 45.1658L149.253 45.1723L150.237 45.1203L152.251 44.808L156.96 44.5217L159.728 44.5997ZM143.35 155.961L142.668 156.118L143.023 155.077L145.043 153.743L145.862 154.042L146.02 154.341L145.974 154.621L145.633 154.894L143.35 155.961Z" fill="black"/>
<path d="M159.728 44.5997L157.465 47.8008L154.749 51.6395L149.745 58.6988L145.941 62.414L143.068 65.2247L142.8 65.7323L142.813 68.8617L142.845 76.5131L142.904 91.8094L142.963 107.099L143.023 122.389L143.049 130.034L143.062 132.604L145.587 135.818L148.053 138.96L151.313 143.111L153.064 145.337L153.353 146.078L153.261 147.568L150.578 150.685L148.381 152.103L145.423 152.78L144.538 152.65L143.377 152.207L142.924 152.955L142.583 154.12L141.927 153.873L141.435 153.528L141.73 155.597L142.032 156.619L141.579 157.985L140.143 159.188L140.012 160.21L136.903 162.878L132.489 163.17L130.167 164.498L129.138 165.584L128.351 167.959L128.626 171.596L127.393 174.394L127.163 175.799L124.881 177.614L123.871 179.28L123.124 180.978L122.474 181.72L121.7 185.519L120.638 187.829L120.349 188.597L120.087 189.287L119.267 190.64L118.729 191.577L118.342 192.188L115.653 198.109L113.554 200.783L111.908 200.477L110.813 201.512L110.695 202L110.111 201.727L108.74 200.744L105.913 198.734L103.087 196.723L100.26 194.713L97.4332 192.702L94.6062 190.692L91.7796 188.681L88.9527 186.671L86.1261 184.661L84.4664 183.483L83.7386 182.787L83.1614 181.401L82.8859 181.056L82.1318 180.62L81.2463 180.523L80.9905 180.256L80.9969 179.586L81.2987 178.623L82.3415 176.782L82.4532 175.695L82.2499 174.465L81.9284 172.494L81.6462 172.045L79.7707 171.011L75.8485 168.85L71.9262 166.69L68.0044 164.53L64.0758 162.37L60.1535 160.21L56.2313 158.05L52.3094 155.89L48.3872 153.73L44.4585 151.57L40.5363 149.41L36.6077 147.25L32.6858 145.089L28.7636 142.929L24.8417 140.769L20.9195 138.609L16.9908 136.449L15.5149 135.636L14.1903 134.953H12.7868L12.7275 131.862L13.1735 123.996L13.121 117.086L13.5214 113.625L15.2527 111.432L16.0529 109.838L16.6234 107.613L17.5285 105.798L19.5817 104.321L19.9487 103.508L22.1264 101.042L23.4314 97.8731L24.4154 96.7932L25.6484 95.7976L26.5138 95.2707L27.9437 94.7437L29.0654 94.4445L29.2688 94.1907L29.3668 93.6767L28.9934 91.7117L29.4721 91.0676L30.2327 89.7534L31.105 88.5303L31.892 87.7494L32.3315 86.9492L32.5349 85.5698L32.5677 84.5873L32.5609 82.9868L32.3119 79.3498L31.3872 76.305L30.8164 72.8956L31.2363 71.7765L30.5081 69.779L30.1474 69.6684L29.5574 69.2326L28.7964 67.3457L28.226 65.628L27.8717 65.1987L25.4058 63.6957L24.1792 60.1498L22.8018 59.3626L22.054 55.836L21.9099 54.8341L22.6905 51.3143L22.6116 50.5074L21.7854 49.7657L19.47 49.0045L17.5941 47.5536L17.8367 47.0461L17.9744 46.5192L16.984 46.1677L14.1114 40.1495L17.8039 36.532L21.5492 32.8688L26.3305 28.2299L30.7183 23.9683L34.5092 20.2857L37.8935 17L37.8082 17.6247L37.821 18.4574L38.2409 18.9649L38.9363 19.3164L39.9002 18.9455L40.7465 18.4314L41.5727 18.3208L46.6559 19.6871L47.5085 20.8778L47.4493 22.1595L47.6722 23.0899L47.2787 24.0269L46.8592 26.8506L46.9901 29.4401L48.5053 31.3594L49.8695 32.8625L50.9516 34.9769L51.7518 35.6276L52.8539 35.9659L56.3494 36.057L61.5242 36.1936L66.5024 36.3237L66.9548 36.3757L68.0108 36.662L72.5952 39.5117L76.7928 42.1273L80.3476 44.398L83.7975 46.6037L87.1493 48.7507L89.7465 50.527L92.3109 51.0669L96.4757 51.3272L99.3547 51.4183L102.018 52.1665L105.979 52.8626L108.931 53.2206L110.714 53.6239L115.666 54.0339L116.486 53.7931L118.67 51.8218L121.116 48.6141L122.074 46.8509L125.235 45.0941L130.791 42.6479L134.706 40.9171L139.061 39.1799L141.042 40.683L143.77 43.0968L144.99 44.2874L145.967 44.8144L147.45 45.1658L149.253 45.1723L150.237 45.1203L152.251 44.808L156.96 44.5217L159.728 44.5997ZM143.35 155.961L142.668 156.118L143.023 155.077L145.043 153.743L145.862 154.042L146.02 154.341L145.974 154.621L145.633 154.894L143.35 155.961Z" stroke="black" stroke-width="0.5"/>
</g>
<path d="M154.728 39.5997L152.465 42.8008L149.749 46.6395L144.745 53.6988L140.941 57.414L138.068 60.2247L137.8 60.7323L137.813 63.8617L137.845 71.5131L137.904 86.8094L137.963 102.099L138.023 117.389L138.049 125.034L138.062 127.604L140.587 130.818L143.053 133.96L146.313 138.111L148.064 140.337L148.353 141.078L148.261 142.568L145.578 145.685L143.381 147.103L140.423 147.78L139.538 147.65L138.377 147.207L137.924 147.955L137.583 149.12L136.927 148.873L136.435 148.528L136.73 150.597L137.032 151.619L136.579 152.985L135.143 154.188L135.012 155.21L131.903 157.878L127.489 158.17L125.167 159.498L124.138 160.584L123.351 162.959L123.626 166.596L122.393 169.394L122.163 170.799L119.881 172.614L118.871 174.28L118.124 175.978L117.474 176.72L116.7 180.519L115.638 182.829L115.349 183.597L115.087 184.287L114.267 185.64L113.729 186.577L113.342 187.188L110.653 193.109L108.554 195.783L106.908 195.477L105.813 196.512L105.695 197L105.111 196.727L103.74 195.744L100.913 193.734L98.0868 191.723L95.2598 189.713L92.4332 187.702L89.6062 185.692L86.7796 183.681L83.9527 181.671L81.1261 179.661L79.4664 178.483L78.7386 177.787L78.1614 176.401L77.8859 176.056L77.1318 175.62L76.2463 175.523L75.9905 175.256L75.9969 174.586L76.2987 173.623L77.3415 171.782L77.4532 170.695L77.2499 169.465L76.9284 167.494L76.6462 167.045L74.7707 166.011L70.8485 163.85L66.9262 161.69L63.0044 159.53L59.0758 157.37L55.1535 155.21L51.2313 153.05L47.3094 150.89L43.3872 148.73L39.4585 146.57L35.5363 144.41L31.6077 142.25L27.6858 140.089L23.7636 137.929L19.8417 135.769L15.9195 133.609L11.9908 131.449L10.5149 130.636L9.19027 129.953H7.78679L7.72754 126.862L8.17348 118.996L8.12104 112.086L8.52135 108.625L10.2527 106.432L11.0529 104.838L11.6234 102.613L12.5285 100.798L14.5817 99.3211L14.9487 98.5078L17.1264 96.0417L18.4314 92.8731L19.4154 91.7932L20.6484 90.7976L21.5138 90.2707L22.9437 89.7437L24.0654 89.4445L24.2688 89.1907L24.3668 88.6767L23.9934 86.7117L24.4721 86.0676L25.2327 84.7534L26.105 83.5303L26.892 82.7494L27.3315 81.9492L27.5349 80.5698L27.5677 79.5873L27.5609 77.9868L27.3119 74.3498L26.3872 71.305L25.8164 67.8956L26.2363 66.7765L25.5081 64.779L25.1474 64.6684L24.5574 64.2326L23.7964 62.3457L23.226 60.628L22.8717 60.1987L20.4058 58.6957L19.1792 55.1498L17.8018 54.3626L17.054 50.836L16.9099 49.8341L17.6905 46.3143L17.6116 45.5074L16.7854 44.7657L14.47 44.0045L12.5941 42.5536L12.8367 42.0461L12.9744 41.5192L11.984 41.1677L9.11141 35.1495L12.8039 31.532L16.5492 27.8688L21.3305 23.2299L25.7183 18.9683L29.5092 15.2857L32.8935 12L32.8082 12.6247L32.821 13.4574L33.2409 13.9649L33.9363 14.3164L34.9002 13.9455L35.7465 13.4314L36.5727 13.3208L41.6559 14.6871L42.5085 15.8778L42.4493 17.1595L42.6722 18.0899L42.2787 19.0269L41.8592 21.8506L41.9901 24.4401L43.5053 26.3594L44.8695 27.8625L45.9516 29.9769L46.7518 30.6276L47.8539 30.9659L51.3494 31.057L56.5242 31.1936L61.5024 31.3237L61.9548 31.3757L63.0108 31.662L67.5952 34.5117L71.7928 37.1273L75.3476 39.398L78.7975 41.6037L82.1493 43.7507L84.7465 45.527L87.3109 46.0669L91.4757 46.3272L94.3547 46.4183L97.0176 47.1665L100.979 47.8626L103.931 48.2206L105.714 48.6239L110.666 49.0339L111.486 48.7931L113.67 46.8218L116.116 43.6141L117.074 41.8509L120.235 40.0941L125.791 37.6479L129.706 35.9171L134.061 34.1799L136.042 35.683L138.77 38.0968L139.99 39.2874L140.967 39.8144L142.45 40.1658L144.253 40.1723L145.237 40.1203L147.251 39.808L151.96 39.5217L154.728 39.5997ZM138.35 150.961L137.668 151.118L138.023 150.077L140.043 148.743L140.862 149.042L141.02 149.341L140.974 149.621L140.633 149.894L138.35 150.961Z" fill="#D900C6" stroke="#6F6F6F" stroke-width="2"/>
<path d="M56.5707 100.8L61.2107 108H57.2107L53.1907 101.74V108H49.6107V94H53.1907V99.88L57.0107 94H61.0107L56.5707 100.8ZM71.0495 104.22H64.1495C64.4828 105.033 65.2295 105.44 66.3895 105.44C67.0962 105.44 67.7028 105.207 68.2095 104.74L70.6095 106.42C69.6362 107.66 68.2028 108.28 66.3095 108.28C64.6162 108.28 63.2562 107.787 62.2295 106.8C61.2162 105.8 60.7095 104.54 60.7095 103.02C60.7095 101.513 61.2095 100.253 62.2095 99.24C63.2095 98.2267 64.4828 97.72 66.0295 97.72C67.5228 97.72 68.7562 98.22 69.7295 99.22C70.7028 100.207 71.1895 101.46 71.1895 102.98C71.1895 103.447 71.1428 103.86 71.0495 104.22ZM64.1095 101.92H67.9495C67.6962 100.987 67.0695 100.52 66.0695 100.52C65.0428 100.52 64.3895 100.987 64.1095 101.92ZM78.7153 97.72C79.8219 97.72 80.7086 98.1 81.3753 98.86C82.0553 99.6067 82.3953 100.66 82.3953 102.02V108H79.0753V102.44C79.0753 101.933 78.9419 101.547 78.6753 101.28C78.4086 101 78.0419 100.86 77.5753 100.86C77.0553 100.86 76.6486 101.02 76.3553 101.34C76.0753 101.647 75.9353 102.093 75.9353 102.68V108H72.6153V98H75.9353V99C76.5353 98.1467 77.4619 97.72 78.7153 97.72ZM88.782 103.8L90.342 98H94.022L90.602 107.84C90.0687 109.347 89.3153 110.433 88.342 111.1C87.3687 111.767 86.1087 112.067 84.562 112V108.88C85.2687 108.88 85.802 108.793 86.162 108.62C86.522 108.447 86.8153 108.133 87.042 107.68L83.042 98H86.762L88.782 103.8ZM101.57 98.92V98H104.89V108H101.57V107.08C100.89 107.88 99.9431 108.28 98.7298 108.28C97.3831 108.28 96.2631 107.78 95.3698 106.78C94.4765 105.767 94.0298 104.507 94.0298 103C94.0298 101.48 94.4765 100.227 95.3698 99.24C96.2631 98.2267 97.3831 97.72 98.7298 97.72C99.9431 97.72 100.89 98.12 101.57 98.92ZM97.9498 104.58C98.3231 104.98 98.8298 105.18 99.4698 105.18C100.11 105.18 100.616 104.98 100.99 104.58C101.376 104.167 101.57 103.64 101.57 103C101.57 102.36 101.376 101.833 100.99 101.42C100.616 101.02 100.11 100.82 99.4698 100.82C98.8298 100.82 98.3231 101.02 97.9498 101.42C97.5631 101.833 97.3698 102.36 97.3698 103C97.3698 103.64 97.5631 104.167 97.9498 104.58Z" fill="white"/>
<defs>
<filter id="filter0_d_2167_1526" x="0.477539" y="0.315918" width="187.724" height="226.04" filterUnits="userSpaceOnUse" color-interpolation-filters="sRGB">
<feFlood flood-opacity="0" result="BackgroundImageFix"/>
<feColorMatrix in="SourceAlpha" type="matrix" values="0 0 0 0 0 0 0 0 0 0 0 0 0 0 0 0 0 0 127 0" result="hardAlpha"/>
<feOffset dx="8" dy="4"/>
<feGaussianBlur stdDeviation="10"/>
<feComposite in2="hardAlpha" operator="out"/>
<feColorMatrix type="matrix" values="0 0 0 0 0.85098 0 0 0 0 0 0 0 0 0 0.776471 0 0 0 0.25 0"/>
<feBlend mode="normal" in2="BackgroundImageFix" result="effect1_dropShadow_2167_1526"/>
<feBlend mode="normal" in="SourceGraphic" in2="effect1_dropShadow_2167_1526" result="shape"/>
</filter>
</defs>
</svg>
