<svg width="212" height="205" viewBox="0 0 212 205" fill="none" xmlns="http://www.w3.org/2000/svg">
<g filter="url(#filter0_d_2167_1530)">
<path d="M171.751 122.905L170.922 123.107L170.6 122.911L170.092 122.267L170.976 121.722L171.833 120.663L173.824 119.108L174.506 118.083L174.751 117.865L174.609 119.076L173.485 121.722L172.526 121.896L171.751 122.905ZM168.461 95.2732L169.634 98.5302L169.487 99.1412L168.657 99.5122L168.226 99.545L167.714 99.0212L167.354 97.9247L166.726 98.1864L165.657 96.8716L164.599 96.8062L163.66 95.2405L164.026 93.8767L163.813 91.5471L164.953 90.3577L165.597 88.3502L166.339 89.7194L166.508 91.858L167.506 94.3676L168.341 95.1423L168.461 95.2732ZM174.102 75.8898L174.195 76.659L173.96 77.3845L174.009 79.6922L173.917 81.2253L173.044 83.3474L172.329 84.1057L171.691 83.8821L171.167 83.533L170.758 82.9491L171.587 79.0594L171.162 76.2116L172.804 76.4843L174.102 75.8898ZM35.6735 16.3808L35.9954 16.4244H37.5994H40.3215H43.0439H45.7664H48.4885H51.2109H53.933H56.6555H59.3779H62.1H64.8224H67.5445H70.267H72.9894H75.7115H78.434H81.1564H82.8309H83.9987L85.1005 16.9973L86.3282 17.6792L89.5961 19.4905L92.8583 21.3017L96.1208 23.1129L99.383 24.9242L102.646 26.7354L105.913 28.5467L109.176 30.3579L112.444 32.1691L115.706 33.9804L118.968 35.7916L122.231 37.6029L125.493 39.4141L128.761 41.2253L132.024 43.0366L135.286 44.8478L138.548 46.6591L140.109 47.5265L140.343 47.9029L140.61 49.5558L140.78 50.587L140.687 51.4981L139.82 53.0419L139.569 53.8494L139.563 54.4113L139.776 54.6349L140.512 54.7168L141.14 55.0823L141.369 55.3715L141.849 56.5336L142.455 57.1173L143.835 58.1047L146.186 59.7904L148.537 61.4761L150.889 63.162L153.24 64.8477L155.592 66.5334L157.943 68.2193L160.294 69.905L162.645 71.5907L163.786 72.4145L164.271 72.6437L163.966 73.9257L162.76 77.0409L162.689 78.3392L162.22 79.8667L161.767 80.8762L160.54 85.2623L159.514 86.9044L158.112 90.7506L157.888 93.6965L158.663 95.7588L158.947 97.6899L160.594 99.5886L161.909 100.265L162.798 101.132L164.375 103.113L165.281 105.099L168.112 106.075L169.241 108.306L168.832 109.84L167.517 111.111L166.29 113.167L165.302 115.873L165.281 120.014L165.946 119.387L167.446 120.401L167.637 123.451L166.093 127.003L165.619 128.666L165.542 130.096L166.666 134.357L168.368 136.522L168.21 137.188L167.768 137.755L170.681 141.596L170.441 144.94L171.533 147.548L172.007 149.807L172.727 151.541L172.864 152.736L171.963 154.062L174.086 154.395L175.335 155.48L175.924 156.517L177.457 156.473L178.286 157.183L179.487 157.772L182.133 159.517L182.847 160.396L183.104 160.903L183.273 161.236L181.494 162.589L178.723 164.695L176 166.757L173.377 168.175L171.5 168.836L169.492 169.201L167.588 170.069L165.788 171.432L163.48 172.12L160.67 172.125L157.719 173.08L154.789 174.886L153.082 175.939L150.376 174.351L148.254 173.849L145.815 173.904L144.331 174.1L143.797 174.444L143.333 175.415L142.94 177.008L141.342 178.541L138.537 180.009L135.951 180.559L133.584 180.188L131.985 179.577L131.151 178.726L129.923 178.334L128.298 178.405L126.737 179.01L125.248 180.156L122.875 180.652L119.612 180.499L117.861 179.943L117.621 178.988L116.192 177.87L113.579 176.588L111.647 176.561L110.409 177.794L109.279 178.568L108.259 178.885L107.343 178.923L106.53 178.688L106.023 178.59L102.416 178.459L99.0014 178.508L98.8922 177.974L98.6574 176.724L97.9482 175.639L97.3372 174.989L96.5737 174.82L96.1591 174.831L95.8261 174.329L95.4332 173.222L94.8551 172.283L94.086 171.503L93.6221 170.778L93.464 170.112L93.5838 169.381L94.2987 167.564L94.5278 166.315L94.4459 165.038L94.0587 163.729L93.2512 162.174L93.3438 161.727L93.071 160.669L93.0437 159.927L93.2019 158.999L93.0494 157.783L92.3508 155.186V154.52L91.6146 153.265L89.345 150.298L89.2358 149.91L85.6789 146.921L84.2551 146.266L83.7423 146.828L83.5512 147.346L83.6984 148.306L83.6111 148.781L83.4639 148.999L82.6182 148.967L82.0891 148.857L80.7415 148.056L79.6943 147.859L77.0864 148.001L76.1754 148.192L75.4608 148.012L74.0803 146.643L72.4656 146.353L71.0145 146.282L68.6194 144.728L68.0577 144.798L67.7903 144.919L66.9229 144.509L65.2916 143.604L63.022 142.807L61.1673 141.918L60.3379 141.051L58.5977 140.718L57.092 140.576L55.6952 139.768L54.2497 139.676L52.8312 139.468L52.5149 138.939L52.4656 137.75L51.9691 137.439L50.9272 137.133L49.8034 137.15L49.1215 137.319L48.7176 137.232L47.7849 136.533L46.9175 135.644L46.5898 134.226L45.2806 133.315L43.7695 132.594L39.5686 132.671L38.9087 132.453L37.9104 131.733L36.7427 130.543L35.8043 129.185L34.9805 127.346L34.5879 126.233L34.1241 124.864L33.0985 122.813L31.6474 119.91L30.5236 117.532L29.3179 114.979L28.8267 113.107L27.8884 111.04L26.35 108.497L25.5699 107.504L24.7188 106.615L22.5095 104.902L20.0051 103.2L18.6469 102.054L16.8245 98.6447L16.061 97.4117L15.5316 95.2459L15.1333 92.9983L15.2971 92.0872L16.9121 89.1903L17.0756 88.3775L16.8791 87.2808L16.0826 84.9731L15.4879 83.4674L15.0734 82.1799L14.2113 80.0359L13.0276 77.0845L12.7275 75.7969L12.7658 74.8314L13.4042 72.2836L13.9659 69.6594L13.9496 68.9394L18.7668 69.0376L19.5579 68.4647L22.28 66.7735L25.3408 63.3856L25.9518 61.9781L27.2011 59.8067L28.4232 58.732L28.8923 57.9847L29.214 56.8118L29.5959 55.8188L31.1999 54.3512L32.7602 53.2221L32.6457 52.7692L32.4382 52.4309L32.6677 52.1417L33.5184 51.5635L35.177 51.0344L35.5043 49.9051L35.499 48.623L35.2316 47.9082L35.2805 47.0846L35.0241 46.6263L33.9386 46.5117L32.3293 45.8734L30.9655 45.606L30.0544 45.2351L29.7161 44.9514L29.5686 44.1822L29.836 43.3421L29.9725 43.102L30.3215 42.2018L29.7271 41.6617L29.5743 41.3998L29.847 40.9689L31.2492 38.1211L31.5545 37.7229L32.1655 37.6738L33.1312 37.3247L34.0259 37.1663L34.7571 37.2864L35.2972 37.15L35.7717 36.7846L36.1753 35.6716L36.5082 33.8167L36.3228 32.3055L35.6245 31.1381L35.4334 29.3595L35.7554 26.97L35.5263 24.9841L34.7514 23.3966L33.9606 22.4528L32.7549 22.0055L30.8562 19.5832L30.2779 18.4103L30.3818 17.6792L30.8836 17.4446L31.0364 17.3737L32.2474 17.4828L33.3822 17.2046L34.4404 16.5389L35.4663 16.3481L35.6735 16.3808Z" fill="black"/>
<path d="M171.751 122.905L170.922 123.107L170.6 122.911L170.092 122.267L170.976 121.722L171.833 120.663L173.824 119.108L174.506 118.083L174.751 117.865L174.609 119.076L173.485 121.722L172.526 121.896L171.751 122.905ZM168.461 95.2732L169.634 98.5302L169.487 99.1412L168.657 99.5122L168.226 99.545L167.714 99.0212L167.354 97.9247L166.726 98.1864L165.657 96.8716L164.599 96.8062L163.66 95.2405L164.026 93.8767L163.813 91.5471L164.953 90.3577L165.597 88.3502L166.339 89.7194L166.508 91.858L167.506 94.3676L168.341 95.1423L168.461 95.2732ZM174.102 75.8898L174.195 76.659L173.96 77.3845L174.009 79.6922L173.917 81.2253L173.044 83.3474L172.329 84.1057L171.691 83.8821L171.167 83.533L170.758 82.9491L171.587 79.0594L171.162 76.2116L172.804 76.4843L174.102 75.8898ZM35.6735 16.3808L35.9954 16.4244H37.5994H40.3215H43.0439H45.7664H48.4885H51.2109H53.933H56.6555H59.3779H62.1H64.8224H67.5445H70.267H72.9894H75.7115H78.434H81.1564H82.8309H83.9987L85.1005 16.9973L86.3282 17.6792L89.5961 19.4905L92.8583 21.3017L96.1208 23.1129L99.383 24.9242L102.646 26.7354L105.913 28.5467L109.176 30.3579L112.444 32.1691L115.706 33.9804L118.968 35.7916L122.231 37.6029L125.493 39.4141L128.761 41.2253L132.024 43.0366L135.286 44.8478L138.548 46.6591L140.109 47.5265L140.343 47.9029L140.61 49.5558L140.78 50.587L140.687 51.4981L139.82 53.0419L139.569 53.8494L139.563 54.4113L139.776 54.6349L140.512 54.7168L141.14 55.0823L141.369 55.3715L141.849 56.5336L142.455 57.1173L143.835 58.1047L146.186 59.7904L148.537 61.4761L150.889 63.162L153.24 64.8477L155.592 66.5334L157.943 68.2193L160.294 69.905L162.645 71.5907L163.786 72.4145L164.271 72.6437L163.966 73.9257L162.76 77.0409L162.689 78.3392L162.22 79.8667L161.767 80.8762L160.54 85.2623L159.514 86.9044L158.112 90.7506L157.888 93.6965L158.663 95.7588L158.947 97.6899L160.594 99.5886L161.909 100.265L162.798 101.132L164.375 103.113L165.281 105.099L168.112 106.075L169.241 108.306L168.832 109.84L167.517 111.111L166.29 113.167L165.302 115.873L165.281 120.014L165.946 119.387L167.446 120.401L167.637 123.451L166.093 127.003L165.619 128.666L165.542 130.096L166.666 134.357L168.368 136.522L168.21 137.188L167.768 137.755L170.681 141.596L170.441 144.94L171.533 147.548L172.007 149.807L172.727 151.541L172.864 152.736L171.963 154.062L174.086 154.395L175.335 155.48L175.924 156.517L177.457 156.473L178.286 157.183L179.487 157.772L182.133 159.517L182.847 160.396L183.104 160.903L183.273 161.236L181.494 162.589L178.723 164.695L176 166.757L173.377 168.175L171.5 168.836L169.492 169.201L167.588 170.069L165.788 171.432L163.48 172.12L160.67 172.125L157.719 173.08L154.789 174.886L153.082 175.939L150.376 174.351L148.254 173.849L145.815 173.904L144.331 174.1L143.797 174.444L143.333 175.415L142.94 177.008L141.342 178.541L138.537 180.009L135.951 180.559L133.584 180.188L131.985 179.577L131.151 178.726L129.923 178.334L128.298 178.405L126.737 179.01L125.248 180.156L122.875 180.652L119.612 180.499L117.861 179.943L117.621 178.988L116.192 177.87L113.579 176.588L111.647 176.561L110.409 177.794L109.279 178.568L108.259 178.885L107.343 178.923L106.53 178.688L106.023 178.59L102.416 178.459L99.0014 178.508L98.8922 177.974L98.6574 176.724L97.9482 175.639L97.3372 174.989L96.5737 174.82L96.1591 174.831L95.8261 174.329L95.4332 173.222L94.8551 172.283L94.086 171.503L93.6221 170.778L93.464 170.112L93.5838 169.381L94.2987 167.564L94.5278 166.315L94.4459 165.038L94.0587 163.729L93.2512 162.174L93.3438 161.727L93.071 160.669L93.0437 159.927L93.2019 158.999L93.0494 157.783L92.3508 155.186V154.52L91.6146 153.265L89.345 150.298L89.2358 149.91L85.6789 146.921L84.2551 146.266L83.7423 146.828L83.5512 147.346L83.6984 148.306L83.6111 148.781L83.4639 148.999L82.6182 148.967L82.0891 148.857L80.7415 148.056L79.6943 147.859L77.0864 148.001L76.1754 148.192L75.4608 148.012L74.0803 146.643L72.4656 146.353L71.0145 146.282L68.6194 144.728L68.0577 144.798L67.7903 144.919L66.9229 144.509L65.2916 143.604L63.022 142.807L61.1673 141.918L60.3379 141.051L58.5977 140.718L57.092 140.576L55.6952 139.768L54.2497 139.676L52.8312 139.468L52.5149 138.939L52.4656 137.75L51.9691 137.439L50.9272 137.133L49.8034 137.15L49.1215 137.319L48.7176 137.232L47.7849 136.533L46.9175 135.644L46.5898 134.226L45.2806 133.315L43.7695 132.594L39.5686 132.671L38.9087 132.453L37.9104 131.733L36.7427 130.543L35.8043 129.185L34.9805 127.346L34.5879 126.233L34.1241 124.864L33.0985 122.813L31.6474 119.91L30.5236 117.532L29.3179 114.979L28.8267 113.107L27.8884 111.04L26.35 108.497L25.5699 107.504L24.7188 106.615L22.5095 104.902L20.0051 103.2L18.6469 102.054L16.8245 98.6447L16.061 97.4117L15.5316 95.2459L15.1333 92.9983L15.2971 92.0872L16.9121 89.1903L17.0756 88.3775L16.8791 87.2808L16.0826 84.9731L15.4879 83.4674L15.0734 82.1799L14.2113 80.0359L13.0276 77.0845L12.7275 75.7969L12.7658 74.8314L13.4042 72.2836L13.9659 69.6594L13.9496 68.9394L18.7668 69.0376L19.5579 68.4647L22.28 66.7735L25.3408 63.3856L25.9518 61.9781L27.2011 59.8067L28.4232 58.732L28.8923 57.9847L29.214 56.8118L29.5959 55.8188L31.1999 54.3512L32.7602 53.2221L32.6457 52.7692L32.4382 52.4309L32.6677 52.1417L33.5184 51.5635L35.177 51.0344L35.5043 49.9051L35.499 48.623L35.2316 47.9082L35.2805 47.0846L35.0241 46.6263L33.9386 46.5117L32.3293 45.8734L30.9655 45.606L30.0544 45.2351L29.7161 44.9514L29.5686 44.1822L29.836 43.3421L29.9725 43.102L30.3215 42.2018L29.7271 41.6617L29.5743 41.3998L29.847 40.9689L31.2492 38.1211L31.5545 37.7229L32.1655 37.6738L33.1312 37.3247L34.0259 37.1663L34.7571 37.2864L35.2972 37.15L35.7717 36.7846L36.1753 35.6716L36.5082 33.8167L36.3228 32.3055L35.6245 31.1381L35.4334 29.3595L35.7554 26.97L35.5263 24.9841L34.7514 23.3966L33.9606 22.4528L32.7549 22.0055L30.8562 19.5832L30.2779 18.4103L30.3818 17.6792L30.8836 17.4446L31.0364 17.3737L32.2474 17.4828L33.3822 17.2046L34.4404 16.5389L35.4663 16.3481L35.6735 16.3808Z" stroke="black" stroke-width="0.5"/>
</g>
<path d="M166.751 117.905L165.922 118.107L165.6 117.911L165.092 117.267L165.976 116.722L166.833 115.663L168.824 114.108L169.506 113.083L169.751 112.865L169.609 114.076L168.485 116.722L167.526 116.896L166.751 117.905ZM163.461 90.2732L164.634 93.5302L164.487 94.1412L163.657 94.5122L163.226 94.545L162.714 94.0212L162.354 92.9247L161.726 93.1864L160.657 91.8716L159.599 91.8062L158.66 90.2405L159.026 88.8767L158.813 86.5471L159.953 85.3577L160.597 83.3502L161.339 84.7194L161.508 86.858L162.506 89.3676L163.341 90.1423L163.461 90.2732ZM169.102 70.8898L169.195 71.659L168.96 72.3845L169.009 74.6922L168.917 76.2253L168.044 78.3474L167.329 79.1057L166.691 78.8821L166.167 78.533L165.758 77.9491L166.587 74.0594L166.162 71.2116L167.804 71.4843L169.102 70.8898ZM30.6735 11.3808L30.9954 11.4244H32.5994H35.3215H38.0439H40.7664H43.4885H46.2109H48.933H51.6555H54.3779H57.1H59.8224H62.5445H65.267H67.9894H70.7115H73.434H76.1564H77.8309H78.9987L80.1005 11.9973L81.3282 12.6792L84.5961 14.4905L87.8583 16.3017L91.1208 18.1129L94.383 19.9242L97.6455 21.7354L100.913 23.5467L104.176 25.3579L107.444 27.1691L110.706 28.9804L113.968 30.7916L117.231 32.6029L120.493 34.4141L123.761 36.2253L127.024 38.0366L130.286 39.8478L133.548 41.6591L135.109 42.5265L135.343 42.9029L135.61 44.5558L135.78 45.587L135.687 46.4981L134.82 48.0419L134.569 48.8494L134.563 49.4113L134.776 49.6349L135.512 49.7168L136.14 50.0823L136.369 50.3715L136.849 51.5336L137.455 52.1173L138.835 53.1047L141.186 54.7904L143.537 56.4761L145.889 58.162L148.24 59.8477L150.592 61.5334L152.943 63.2193L155.294 64.905L157.645 66.5907L158.786 67.4145L159.271 67.6437L158.966 68.9257L157.76 72.0409L157.689 73.3392L157.22 74.8667L156.767 75.8762L155.54 80.2623L154.514 81.9044L153.112 85.7506L152.888 88.6965L153.663 90.7588L153.947 92.6899L155.594 94.5886L156.909 95.265L157.798 96.1324L159.375 98.1128L160.281 100.099L163.112 101.075L164.241 103.306L163.832 104.84L162.517 106.111L161.29 108.167L160.302 110.873L160.281 115.014L160.946 114.387L162.446 115.401L162.637 118.451L161.093 122.003L160.619 123.666L160.542 125.096L161.666 129.357L163.368 131.522L163.21 132.188L162.768 132.755L165.681 136.596L165.441 139.94L166.533 142.548L167.007 144.807L167.727 146.541L167.864 147.736L166.963 149.062L169.086 149.395L170.335 150.48L170.924 151.517L172.457 151.473L173.286 152.183L174.487 152.772L177.133 154.517L177.847 155.396L178.104 155.903L178.273 156.236L176.494 157.589L173.723 159.695L171 161.757L168.377 163.175L166.5 163.836L164.492 164.201L162.588 165.069L160.788 166.432L158.48 167.12L155.67 167.125L152.719 168.08L149.789 169.886L148.082 170.939L145.376 169.351L143.254 168.849L140.815 168.904L139.331 169.1L138.797 169.444L138.333 170.415L137.94 172.008L136.342 173.541L133.537 175.009L130.951 175.559L128.584 175.188L126.985 174.577L126.151 173.726L124.923 173.334L123.298 173.405L121.737 174.01L120.248 175.156L117.875 175.652L114.612 175.499L112.861 174.943L112.621 173.988L111.192 172.87L108.579 171.588L106.647 171.561L105.409 172.794L104.279 173.568L103.259 173.885L102.343 173.923L101.53 173.688L101.023 173.59L97.4164 173.459L94.0014 173.508L93.8922 172.974L93.6574 171.724L92.9482 170.639L92.3372 169.989L91.5737 169.82L91.1591 169.831L90.8261 169.329L90.4332 168.222L89.8551 167.283L89.086 166.503L88.6221 165.778L88.464 165.112L88.5838 164.381L89.2987 162.564L89.5278 161.315L89.4459 160.038L89.0587 158.729L88.2512 157.174L88.3438 156.727L88.071 155.669L88.0437 154.927L88.2019 153.999L88.0494 152.783L87.3508 150.186V149.52L86.6146 148.265L84.345 145.298L84.2358 144.91L80.6789 141.921L79.2551 141.266L78.7423 141.828L78.5512 142.346L78.6984 143.306L78.6111 143.781L78.4639 143.999L77.6182 143.967L77.0891 143.857L75.7415 143.056L74.6943 142.859L72.0864 143.001L71.1754 143.192L70.4608 143.012L69.0803 141.643L67.4656 141.353L66.0145 141.282L63.6194 139.728L63.0577 139.798L62.7903 139.919L61.9229 139.509L60.2916 138.604L58.022 137.807L56.1673 136.918L55.3379 136.051L53.5977 135.718L52.092 135.576L50.6952 134.768L49.2497 134.676L47.8312 134.468L47.5149 133.939L47.4656 132.75L46.9691 132.439L45.9272 132.133L44.8034 132.15L44.1215 132.319L43.7176 132.232L42.7849 131.533L41.9175 130.644L41.5898 129.226L40.2806 128.315L38.7695 127.594L34.5686 127.671L33.9087 127.453L32.9104 126.733L31.7427 125.543L30.8043 124.185L29.9805 122.346L29.5879 121.233L29.1241 119.864L28.0985 117.813L26.6474 114.91L25.5236 112.532L24.3179 109.979L23.8267 108.107L22.8884 106.04L21.35 103.497L20.5699 102.504L19.7188 101.615L17.5095 99.9023L15.0051 98.2001L13.6469 97.0545L11.8245 93.6447L11.061 92.4117L10.5316 90.2459L10.1333 87.9983L10.2971 87.0872L11.9121 84.1903L12.0756 83.3775L11.8791 82.2808L11.0826 79.9731L10.4879 78.4674L10.0734 77.1799L9.21129 75.0359L8.02755 72.0845L7.72754 70.7969L7.76583 69.8314L8.40415 67.2836L8.96589 64.6594L8.94957 63.9394L13.7668 64.0376L14.5579 63.4647L17.28 61.7735L20.3408 58.3856L20.9518 56.9781L22.2011 54.8067L23.4232 53.732L23.8923 52.9847L24.214 51.8118L24.5959 50.8188L26.1999 49.3512L27.7602 48.2221L27.6457 47.7692L27.4382 47.4309L27.6677 47.1417L28.5184 46.5635L30.177 46.0344L30.5043 44.9051L30.499 43.623L30.2316 42.9082L30.2805 42.0846L30.0241 41.6263L28.9386 41.5117L27.3293 40.8734L25.9655 40.606L25.0544 40.2351L24.7161 39.9514L24.5686 39.1822L24.836 38.3421L24.9725 38.102L25.3215 37.2018L24.7271 36.6617L24.5743 36.3998L24.847 35.9689L26.2492 33.1211L26.5545 32.7229L27.1655 32.6738L28.1312 32.3247L29.0259 32.1663L29.7571 32.2864L30.2972 32.15L30.7717 31.7846L31.1753 30.6716L31.5082 28.8167L31.3228 27.3055L30.6245 26.1381L30.4334 24.3595L30.7554 21.97L30.5263 19.9841L29.7514 18.3966L28.9606 17.4528L27.7549 17.0055L25.8562 14.5832L25.2779 13.4103L25.3818 12.6792L25.8836 12.4446L26.0364 12.3737L27.2474 12.4828L28.3822 12.2046L29.4404 11.5389L30.4663 11.3481L30.6735 11.3808Z" fill="#D900C6" stroke="#6F6F6F" stroke-width="2"/>
<path d="M48.1893 85.3481H58.6893V88.8081H55.2293V99.3481H51.6493V88.8081H48.1893V85.3481ZM65.2085 90.2681V89.3481H68.5285V99.3481H65.2085V98.4281C64.5285 99.2281 63.5818 99.6281 62.3685 99.6281C61.0218 99.6281 59.9018 99.1281 59.0085 98.1281C58.1151 97.1148 57.6685 95.8548 57.6685 94.3481C57.6685 92.8281 58.1151 91.5748 59.0085 90.5881C59.9018 89.5748 61.0218 89.0681 62.3685 89.0681C63.5818 89.0681 64.5285 89.4681 65.2085 90.2681ZM61.5885 95.9281C61.9618 96.3281 62.4685 96.5281 63.1085 96.5281C63.7485 96.5281 64.2551 96.3281 64.6285 95.9281C65.0151 95.5148 65.2085 94.9881 65.2085 94.3481C65.2085 93.7081 65.0151 93.1815 64.6285 92.7681C64.2551 92.3681 63.7485 92.1681 63.1085 92.1681C62.4685 92.1681 61.9618 92.3681 61.5885 92.7681C61.2018 93.1815 61.0085 93.7081 61.0085 94.3481C61.0085 94.9881 61.2018 95.5148 61.5885 95.9281ZM76.5532 89.0681C77.6598 89.0681 78.5465 89.4481 79.2132 90.2081C79.8932 90.9548 80.2332 92.0081 80.2332 93.3681V99.3481H76.9132V93.7881C76.9132 93.2815 76.7798 92.8948 76.5132 92.6281C76.2465 92.3481 75.8798 92.2081 75.4132 92.2081C74.8932 92.2081 74.4865 92.3681 74.1932 92.6881C73.9132 92.9948 73.7732 93.4415 73.7732 94.0281V99.3481H70.4532V89.3481H73.7732V90.3481C74.3732 89.4948 75.2998 89.0681 76.5532 89.0681ZM89.7575 91.6281L86.2175 96.2681H89.9575V99.3481H81.7775V97.0681L85.3175 92.4281H81.9775V89.3481H89.7575V91.6281ZM98.0796 90.2681V89.3481H101.4V99.3481H98.0796V98.4281C97.3996 99.2281 96.4529 99.6281 95.2396 99.6281C93.8929 99.6281 92.7729 99.1281 91.8796 98.1281C90.9862 97.1148 90.5396 95.8548 90.5396 94.3481C90.5396 92.8281 90.9862 91.5748 91.8796 90.5881C92.7729 89.5748 93.8929 89.0681 95.2396 89.0681C96.4529 89.0681 97.3996 89.4681 98.0796 90.2681ZM94.4596 95.9281C94.8329 96.3281 95.3396 96.5281 95.9796 96.5281C96.6196 96.5281 97.1262 96.3281 97.4996 95.9281C97.8862 95.5148 98.0796 94.9881 98.0796 94.3481C98.0796 93.7081 97.8862 93.1815 97.4996 92.7681C97.1262 92.3681 96.6196 92.1681 95.9796 92.1681C95.3396 92.1681 94.8329 92.3681 94.4596 92.7681C94.0729 93.1815 93.8796 93.7081 93.8796 94.3481C93.8796 94.9881 94.0729 95.5148 94.4596 95.9281ZM109.424 89.0681C110.531 89.0681 111.418 89.4481 112.084 90.2081C112.764 90.9548 113.104 92.0081 113.104 93.3681V99.3481H109.784V93.7881C109.784 93.2815 109.651 92.8948 109.384 92.6281C109.118 92.3481 108.751 92.2081 108.284 92.2081C107.764 92.2081 107.358 92.3681 107.064 92.6881C106.784 92.9948 106.644 93.4415 106.644 94.0281V99.3481H103.324V89.3481H106.644V90.3481C107.244 89.4948 108.171 89.0681 109.424 89.0681ZM117.906 87.9681C117.533 88.3415 117.086 88.5281 116.566 88.5281C116.046 88.5281 115.593 88.3415 115.206 87.9681C114.833 87.5815 114.646 87.1281 114.646 86.6081C114.646 86.0881 114.833 85.6415 115.206 85.2681C115.593 84.8948 116.046 84.7081 116.566 84.7081C117.086 84.7081 117.533 84.8948 117.906 85.2681C118.293 85.6415 118.486 86.0881 118.486 86.6081C118.486 87.1281 118.293 87.5815 117.906 87.9681ZM118.226 99.3481H114.906V89.3481H118.226V99.3481ZM127.181 90.2681V89.3481H130.501V99.3481H127.181V98.4281C126.501 99.2281 125.554 99.6281 124.341 99.6281C122.994 99.6281 121.874 99.1281 120.981 98.1281C120.088 97.1148 119.641 95.8548 119.641 94.3481C119.641 92.8281 120.088 91.5748 120.981 90.5881C121.874 89.5748 122.994 89.0681 124.341 89.0681C125.554 89.0681 126.501 89.4681 127.181 90.2681ZM123.561 95.9281C123.934 96.3281 124.441 96.5281 125.081 96.5281C125.721 96.5281 126.228 96.3281 126.601 95.9281C126.988 95.5148 127.181 94.9881 127.181 94.3481C127.181 93.7081 126.988 93.1815 126.601 92.7681C126.228 92.3681 125.721 92.1681 125.081 92.1681C124.441 92.1681 123.934 92.3681 123.561 92.7681C123.174 93.1815 122.981 93.7081 122.981 94.3481C122.981 94.9881 123.174 95.5148 123.561 95.9281Z" fill="white"/>
<defs>
<filter id="filter0_d_2167_1530" x="0.476562" y="0.0947266" width="211.113" height="204.809" filterUnits="userSpaceOnUse" color-interpolation-filters="sRGB">
<feFlood flood-opacity="0" result="BackgroundImageFix"/>
<feColorMatrix in="SourceAlpha" type="matrix" values="0 0 0 0 0 0 0 0 0 0 0 0 0 0 0 0 0 0 127 0" result="hardAlpha"/>
<feOffset dx="8" dy="4"/>
<feGaussianBlur stdDeviation="10"/>
<feComposite in2="hardAlpha" operator="out"/>
<feColorMatrix type="matrix" values="0 0 0 0 0.85098 0 0 0 0 0 0 0 0 0 0.776471 0 0 0 0.25 0"/>
<feBlend mode="normal" in2="BackgroundImageFix" result="effect1_dropShadow_2167_1530"/>
<feBlend mode="normal" in="SourceGraphic" in2="effect1_dropShadow_2167_1530" result="shape"/>
</filter>
</defs>
</svg>
