<svg width="211" height="223" viewBox="0 0 211 223" fill="none" xmlns="http://www.w3.org/2000/svg">
<g filter="url(#filter0_d_2167_1534)">
<path d="M148.541 183.12H145.107H139.527H133.946H128.365H122.784H117.214H111.633H106.052H100.472H94.8904H89.3092H83.7287H78.1476H72.578H66.9968H61.4163H55.8351H52.536L51.8759 183.029L51.4172 182.892L49.3147 183.291L47.1337 184.693L44.8189 185.264L42.3361 185.047L42.0228 185.195L40.7702 185.161L38.9585 185.058L37.3256 185.423L36.0839 186.643L34.8088 188.741L32.5158 191.136L30.7267 193.268L29.2058 194.773L25.7271 197.27L23.826 198L22.8867 197.886L22.3051 197.418L21.2088 194.237L20.5377 193.724L13.7715 195.366L12.7421 195.389L12.8322 194.397L12.3284 186.917L12.2725 182.333L13.1565 179.471L13.6705 176.165L13.7265 173.245L14.9682 168.285L14.5094 165.31L16.1088 154.876L16.5341 153.178L17.1601 148.138L18.1554 146.587L19.0503 145.983L20.2026 142.893L22.4279 137.944L23.9604 135.401L23.6246 129.848L23.8819 126.063L24.2287 125.23L27.5053 123.817L31.7554 120.328L33.5562 116.211L36.0949 113.589L41.0159 111.89L41.0275 111.879L55.6112 97.7739L62.3891 90.1687L65.3414 86.269L65.4425 84.8663L66.0125 83.0308L64.8274 81.594L63.4178 80.2943L62.9372 79.0855L61.729 78.4925L59.9848 78.5155L58.8326 77.6376L57.524 75.927L56.2154 74.8552L52.0773 74.9464L48.8901 73.1905L48.9344 70.8076L50.1761 66.1097L52.592 60.728L52.7258 59.2456L52.379 57.9801L51.7974 56.8968L50.7127 55.8247L49.684 54.5366L50.4779 50.6595L51.9988 46.8743L53.2514 44.9698L54.4706 42.8489L54.1238 41.1046L52.3455 40.2381L53.2739 38.539L55.1866 35.6769L58.9111 32.7808L62.1877 30.8426L64.3796 30.8311L68.6297 32.3817L72.477 34.1949L74.5801 34.2861L77.1523 33.5334L82.4536 30.3067L83.7397 31.3329L85.2831 33.2826L86.9719 36.5208L90.3161 37.9916L91.9155 39.0178L93.0671 39.3143L93.7047 39.0522L94.9689 36.5093L96.5007 35.1296L99.3302 33.3852L105.582 31.9829L110.045 31.5608L111.935 31.2643L115.1 30.4435L120.1 27.8323L125.02 31.1961L130.367 31.8458L135.545 31.8232L137.122 30.797L138.028 30.0214L143.464 24.4914L150.822 17L155.722 27.5473L157.41 28.1744L157.164 29.0864L156.75 29.9758L159.96 32.5188L163.908 33.8525L165.317 35.1525L165.44 36.5549L164.11 42.7237L164.355 44.4795L165.631 50.6595L167.979 52.0392L170.06 58.265L174.276 60.8988L174.88 61.6515L175.853 64.6618L177.139 67.9682L178.145 68.7323L178.761 68.9261L180.002 72.4152L179.287 74.3879L180.259 80.3625L181.836 85.699L182.262 92.0728L182.272 94.8777L182.216 96.5995L181.87 99.0168L181.121 100.419L179.779 101.787L178.28 103.931L176.983 106.234L176.166 107.363L176.803 110.807L176.636 111.707L176.3 112.141L174.387 112.665L171.95 113.589L170.473 114.501L168.371 116.257L166.693 118.138L164.467 123.691L160.754 128.024L160.128 129.449L156.627 132.026L155.084 135.207L154.1 139.107L152.746 141.901L149.783 145.743L149.112 151.809L149.201 163.907L148.429 177.704L148.541 183.12Z" fill="black"/>
<path d="M148.541 183.12H145.107H139.527H133.946H128.365H122.784H117.214H111.633H106.052H100.472H94.8904H89.3092H83.7287H78.1476H72.578H66.9968H61.4163H55.8351H52.536L51.8759 183.029L51.4172 182.892L49.3147 183.291L47.1337 184.693L44.8189 185.264L42.3361 185.047L42.0228 185.195L40.7702 185.161L38.9585 185.058L37.3256 185.423L36.0839 186.643L34.8088 188.741L32.5158 191.136L30.7267 193.268L29.2058 194.773L25.7271 197.27L23.826 198L22.8867 197.886L22.3051 197.418L21.2088 194.237L20.5377 193.724L13.7715 195.366L12.7421 195.389L12.8322 194.397L12.3284 186.917L12.2725 182.333L13.1565 179.471L13.6705 176.165L13.7265 173.245L14.9682 168.285L14.5094 165.31L16.1088 154.876L16.5341 153.178L17.1601 148.138L18.1554 146.587L19.0503 145.983L20.2026 142.893L22.4279 137.944L23.9604 135.401L23.6246 129.848L23.8819 126.063L24.2287 125.23L27.5053 123.817L31.7554 120.328L33.5562 116.211L36.0949 113.589L41.0159 111.89L41.0275 111.879L55.6112 97.7739L62.3891 90.1687L65.3414 86.269L65.4425 84.8663L66.0125 83.0308L64.8274 81.594L63.4178 80.2943L62.9372 79.0855L61.729 78.4925L59.9848 78.5155L58.8326 77.6376L57.524 75.927L56.2154 74.8552L52.0773 74.9464L48.8901 73.1905L48.9344 70.8076L50.1761 66.1097L52.592 60.728L52.7258 59.2456L52.379 57.9801L51.7974 56.8968L50.7127 55.8247L49.684 54.5366L50.4779 50.6595L51.9988 46.8743L53.2514 44.9698L54.4706 42.8489L54.1238 41.1046L52.3455 40.2381L53.2739 38.539L55.1866 35.6769L58.9111 32.7808L62.1877 30.8426L64.3796 30.8311L68.6297 32.3817L72.477 34.1949L74.5801 34.2861L77.1523 33.5334L82.4536 30.3067L83.7397 31.3329L85.2831 33.2826L86.9719 36.5208L90.3161 37.9916L91.9155 39.0178L93.0671 39.3143L93.7047 39.0522L94.9689 36.5093L96.5007 35.1296L99.3302 33.3852L105.582 31.9829L110.045 31.5608L111.935 31.2643L115.1 30.4435L120.1 27.8323L125.02 31.1961L130.367 31.8458L135.545 31.8232L137.122 30.797L138.028 30.0214L143.464 24.4914L150.822 17L155.722 27.5473L157.41 28.1744L157.164 29.0864L156.75 29.9758L159.96 32.5188L163.908 33.8525L165.317 35.1525L165.44 36.5549L164.11 42.7237L164.355 44.4795L165.631 50.6595L167.979 52.0392L170.06 58.265L174.276 60.8988L174.88 61.6515L175.853 64.6618L177.139 67.9682L178.145 68.7323L178.761 68.9261L180.002 72.4152L179.287 74.3879L180.259 80.3625L181.836 85.699L182.262 92.0728L182.272 94.8777L182.216 96.5995L181.87 99.0168L181.121 100.419L179.779 101.787L178.28 103.931L176.983 106.234L176.166 107.363L176.803 110.807L176.636 111.707L176.3 112.141L174.387 112.665L171.95 113.589L170.473 114.501L168.371 116.257L166.693 118.138L164.467 123.691L160.754 128.024L160.128 129.449L156.627 132.026L155.084 135.207L154.1 139.107L152.746 141.901L149.783 145.743L149.112 151.809L149.201 163.907L148.429 177.704L148.541 183.12Z" stroke="black" stroke-width="0.5"/>
</g>
<path d="M143.541 178.12H140.107H134.527H128.946H123.365H117.784H112.214H106.633H101.052H95.4716H89.8904H84.3092H78.7287H73.1476H67.578H61.9968H56.4163H50.8351H47.536L46.8759 178.029L46.4172 177.892L44.3147 178.291L42.1337 179.693L39.8189 180.264L37.3361 180.047L37.0228 180.195L35.7702 180.161L33.9585 180.058L32.3256 180.423L31.0839 181.643L29.8088 183.741L27.5158 186.136L25.7267 188.268L24.2058 189.773L20.7271 192.27L18.826 193L17.8867 192.886L17.3051 192.418L16.2088 189.237L15.5377 188.724L8.77152 190.366L7.74211 190.389L7.83222 189.397L7.32844 181.917L7.27246 177.333L8.15647 174.471L8.67049 171.165L8.72646 168.245L9.96816 163.285L9.50944 160.31L11.1088 149.876L11.5341 148.178L12.1601 143.138L13.1554 141.587L14.0503 140.983L15.2026 137.893L17.4279 132.944L18.9604 130.401L18.6246 124.848L18.8819 121.063L19.2287 120.23L22.5053 118.817L26.7554 115.328L28.5562 111.211L31.0949 108.589L36.0159 106.89L36.0275 106.879L50.6112 92.7739L57.3891 85.1687L60.3414 81.269L60.4425 79.8663L61.0125 78.0308L59.8274 76.594L58.4178 75.2943L57.9372 74.0855L56.729 73.4925L54.9848 73.5155L53.8326 72.6376L52.524 70.927L51.2154 69.8552L47.0773 69.9464L43.8901 68.1905L43.9344 65.8076L45.1761 61.1097L47.592 55.728L47.7258 54.2456L47.379 52.9801L46.7974 51.8968L45.7127 50.8247L44.684 49.5366L45.4779 45.6595L46.9988 41.8743L48.2514 39.9698L49.4706 37.8489L49.1238 36.1046L47.3455 35.2381L48.2739 33.539L50.1866 30.6769L53.9111 27.7808L57.1877 25.8426L59.3796 25.8311L63.6297 27.3817L67.477 29.1949L69.5801 29.2861L72.1523 28.5334L77.4536 25.3067L78.7397 26.3329L80.2831 28.2826L81.9719 31.5208L85.3161 32.9916L86.9155 34.0178L88.0671 34.3143L88.7047 34.0522L89.9689 31.5093L91.5007 30.1296L94.3302 28.3852L100.582 26.9829L105.045 26.5608L106.935 26.2643L110.1 25.4435L115.1 22.8323L120.02 26.1961L125.367 26.8458L130.545 26.8232L132.122 25.797L133.028 25.0214L138.464 19.4914L145.822 12L150.722 22.5473L152.41 23.1744L152.164 24.0864L151.75 24.9758L154.96 27.5188L158.908 28.8525L160.317 30.1525L160.44 31.5549L159.11 37.7237L159.355 39.4795L160.631 45.6595L162.979 47.0392L165.06 53.265L169.276 55.8988L169.88 56.6515L170.853 59.6618L172.139 62.9682L173.145 63.7323L173.761 63.9261L175.002 67.4152L174.287 69.3879L175.259 75.3625L176.836 80.699L177.262 87.0728L177.272 89.8777L177.216 91.5995L176.87 94.0168L176.121 95.4192L174.779 96.7874L173.28 98.9312L171.983 101.234L171.166 102.363L171.803 105.807L171.636 106.707L171.3 107.141L169.387 107.665L166.95 108.589L165.473 109.501L163.371 111.257L161.693 113.138L159.467 118.691L155.754 123.024L155.128 124.449L151.627 127.026L150.084 130.207L149.1 134.107L147.746 136.901L144.783 140.743L144.112 146.809L144.201 158.907L143.429 172.704L143.541 178.12Z" fill="#D900C6" stroke="#6F6F6F" stroke-width="2"/>
<path d="M67.8321 103.4V94H71.4121V103.06C71.4121 104.233 72.0654 104.82 73.3721 104.82C74.6787 104.82 75.3321 104.233 75.3321 103.06V94H78.9121V103.4C78.9121 104.867 78.3921 106.053 77.3521 106.96C76.3387 107.853 75.0121 108.3 73.3721 108.3C71.7321 108.3 70.3987 107.853 69.3721 106.96C68.3454 106.053 67.8321 104.867 67.8321 103.4ZM87.9022 98.96V98H91.1822V107.6C91.1822 109.147 90.6689 110.313 89.6422 111.1C88.6156 111.9 87.3756 112.3 85.9222 112.3C84.8022 112.3 83.8089 112.087 82.9422 111.66C82.0889 111.247 81.4422 110.647 81.0022 109.86L83.7622 108.26C84.2422 109.02 84.9489 109.4 85.8822 109.4C86.4956 109.4 86.9822 109.24 87.3422 108.92C87.7156 108.613 87.9022 108.173 87.9022 107.6V106.64C87.2222 107.467 86.2889 107.88 85.1022 107.88C83.7289 107.88 82.5889 107.387 81.6822 106.4C80.7889 105.427 80.3422 104.227 80.3422 102.8C80.3422 101.373 80.7889 100.173 81.6822 99.2C82.5889 98.2133 83.7289 97.72 85.1022 97.72C86.2889 97.72 87.2222 98.1333 87.9022 98.96ZM84.2422 104.3C84.6556 104.687 85.1689 104.88 85.7822 104.88C86.4089 104.88 86.9156 104.687 87.3022 104.3C87.7022 103.9 87.9022 103.4 87.9022 102.8C87.9022 102.187 87.7022 101.693 87.3022 101.32C86.9289 100.92 86.4222 100.72 85.7822 100.72C85.1556 100.72 84.6422 100.92 84.2422 101.32C83.8556 101.707 83.6622 102.2 83.6622 102.8C83.6622 103.387 83.8556 103.887 84.2422 104.3ZM100.146 98.92V98H103.466V108H100.146V107.08C99.466 107.88 98.5193 108.28 97.306 108.28C95.9593 108.28 94.8393 107.78 93.946 106.78C93.0526 105.767 92.606 104.507 92.606 103C92.606 101.48 93.0526 100.227 93.946 99.24C94.8393 98.2267 95.9593 97.72 97.306 97.72C98.5193 97.72 99.466 98.12 100.146 98.92ZM96.526 104.58C96.8993 104.98 97.406 105.18 98.046 105.18C98.686 105.18 99.1926 104.98 99.566 104.58C99.9526 104.167 100.146 103.64 100.146 103C100.146 102.36 99.9526 101.833 99.566 101.42C99.1926 101.02 98.686 100.82 98.046 100.82C97.406 100.82 96.8993 101.02 96.526 101.42C96.1393 101.833 95.946 102.36 95.946 103C95.946 103.64 96.1393 104.167 96.526 104.58ZM111.491 97.72C112.597 97.72 113.484 98.1 114.151 98.86C114.831 99.6067 115.171 100.66 115.171 102.02V108H111.851V102.44C111.851 101.933 111.717 101.547 111.451 101.28C111.184 101 110.817 100.86 110.351 100.86C109.831 100.86 109.424 101.02 109.131 101.34C108.851 101.647 108.711 102.093 108.711 102.68V108H105.391V98H108.711V99C109.311 98.1467 110.237 97.72 111.491 97.72ZM124.013 98.92V94H127.333V108H124.013V107.08C123.333 107.88 122.386 108.28 121.173 108.28C119.826 108.28 118.706 107.78 117.813 106.78C116.92 105.767 116.473 104.507 116.473 103C116.473 101.48 116.92 100.227 117.813 99.24C118.706 98.2267 119.826 97.72 121.173 97.72C122.386 97.72 123.333 98.12 124.013 98.92ZM120.393 104.58C120.766 104.98 121.273 105.18 121.913 105.18C122.553 105.18 123.06 104.98 123.433 104.58C123.82 104.167 124.013 103.64 124.013 103C124.013 102.36 123.82 101.833 123.433 101.42C123.06 101.02 122.553 100.82 121.913 100.82C121.273 100.82 120.766 101.02 120.393 101.42C120.006 101.833 119.813 102.36 119.813 103C119.813 103.64 120.006 104.167 120.393 104.58ZM136.298 98.92V98H139.618V108H136.298V107.08C135.618 107.88 134.672 108.28 133.458 108.28C132.112 108.28 130.992 107.78 130.098 106.78C129.205 105.767 128.758 104.507 128.758 103C128.758 101.48 129.205 100.227 130.098 99.24C130.992 98.2267 132.112 97.72 133.458 97.72C134.672 97.72 135.618 98.12 136.298 98.92ZM132.678 104.58C133.052 104.98 133.558 105.18 134.198 105.18C134.838 105.18 135.345 104.98 135.718 104.58C136.105 104.167 136.298 103.64 136.298 103C136.298 102.36 136.105 101.833 135.718 101.42C135.345 101.02 134.838 100.82 134.198 100.82C133.558 100.82 133.052 101.02 132.678 101.42C132.292 101.833 132.098 102.36 132.098 103C132.098 103.64 132.292 104.167 132.678 104.58Z" fill="white"/>
<defs>
<filter id="filter0_d_2167_1534" x="0.0224609" y="0.567383" width="210.5" height="221.688" filterUnits="userSpaceOnUse" color-interpolation-filters="sRGB">
<feFlood flood-opacity="0" result="BackgroundImageFix"/>
<feColorMatrix in="SourceAlpha" type="matrix" values="0 0 0 0 0 0 0 0 0 0 0 0 0 0 0 0 0 0 127 0" result="hardAlpha"/>
<feOffset dx="8" dy="4"/>
<feGaussianBlur stdDeviation="10"/>
<feComposite in2="hardAlpha" operator="out"/>
<feColorMatrix type="matrix" values="0 0 0 0 0.85098 0 0 0 0 0 0 0 0 0 0.776471 0 0 0 0.25 0"/>
<feBlend mode="normal" in2="BackgroundImageFix" result="effect1_dropShadow_2167_1534"/>
<feBlend mode="normal" in="SourceGraphic" in2="effect1_dropShadow_2167_1534" result="shape"/>
</filter>
</defs>
</svg>
