<svg width="1042" height="569" viewBox="0 0 1042 569" fill="none" xmlns="http://www.w3.org/2000/svg">
<path d="M565.525 21.6374L567.682 21.3036L569.537 21.4L571.406 21.5477L572.401 21.7659L575.277 22.9597L577.151 23.9355L579.841 25.7457L581.331 26.5481L582.05 28.4289L582.884 30.8361H584.078L584.977 29.4239L587.263 29.1671L590.267 30.1555L592.912 32.9672L596.713 35.4706L599.037 36.7159L601.399 36.7096L604.397 35.4706L607.588 33.0699L609.886 32.6526L611.247 32.8902L612.024 34.7581L612.974 35.4706L615.452 35.2588L620.62 35.6183L624.735 35.1111L625.673 36.1833L626.507 37.8715L628.177 38.4041L630.443 37.8715L634.006 38.2372L633.518 38.507L632.991 38.4492L632.304 38.8535L631.451 39.7137L629.48 40.9398L626.398 42.5381L622.842 44.0016L615.632 46.64L611.138 49.3745L609.148 51.0114L601.412 59.2022L596.745 63.5479L589.189 69.6332L588.47 70.4035L588.425 71.1224L589.041 71.7963L590.582 72.7721L591.782 72.8941L593.317 72.6951L599.383 71.0133L601.938 69.845L604.449 67.8807L604.705 67.8165L605.752 68.176L606.079 68.3493L609.341 66.0834L610.413 65.7944L611.254 65.8522L612.3 66.7445L612.544 67.2838L612.191 68.3237L611.254 69.8577L610.798 71.1481L610.824 72.1944L610.419 73.3241L609.392 74.8583L609.764 75.2691L612.518 74.1651L612.923 73.7349L612.968 73.4783L612.801 73.1701L613.115 73.0289L615.285 74.5373L616.73 75.3718L617.943 75.7698L620.242 75.2883L623.625 73.9274L626.514 72.2713L628.902 70.3071L631.881 69.1004L635.457 68.6575L638.012 67.9642L639.553 67.0141L641.62 65.159L642.782 64.6134L644.245 64.4465L645.343 63.7276L646.082 62.4566L647.481 61.0122L649.535 59.3947L650.71 58.7399L650.999 59.048L651.108 59.6194L651.031 60.4602L651.545 61.1343L652.643 61.6542L653.143 62.341L653.047 63.1947L653.342 63.9201L654.036 64.5235L654.216 65.833L653.894 67.8421L653.856 69.1452L654.1 69.7359L654.344 70.0697L654.736 69.7486L655.23 69.0426L655.41 68.6061L655.538 68.1632L658.543 66.1347L659.127 66.0321L660.109 66.5584L664.654 67.2901L666.445 67.81L668.326 68.9719L668.968 69.4213L671.273 73.1701L672.326 74.6337L672.981 75.038L673.353 75.6094L673.648 76.9317L674.008 77.3296L677.385 77.612L678.913 77.3746L679.844 76.8418L680.877 77.1885L682.014 78.408L683.131 78.7482L684.228 78.2154L685.262 78.2283L686.231 78.7996L686.681 79.2104L686.976 79.1912L688.896 77.3296L691.207 75.6735L694.295 73.8826L696.086 73.0867L696.58 73.2792L699.424 72.6821L701.986 72.6308L705.382 72.9903L708.528 72.573L711.423 71.3728L713.985 70.7052L716.212 70.5639L717.053 70.8977L716.508 71.7128L716.212 73.1059L716.174 75.083L715.981 76.3283L715.641 76.8547L715.602 77.3552L715.859 77.8303L718.023 78.1384L719.159 78.7804L720.462 78.806L721.932 78.2219L723.056 78.4466L723.839 79.4672L724.975 79.6533L726.08 78.9216L726.856 78.2348L727.524 77.9331L728.044 77.8689L728.596 78.2154L728.968 78.7996L729.906 80.4043L730.368 81.4892L730.651 83.1005L730.85 83.6333L730.824 84.5705L730.195 85.2059L730.028 85.7129L730.407 86.2201L732.538 86.3613L733.507 86.862L733.867 87.4205L733.623 88.0366L733.758 88.698L734.278 89.3911L735.985 90.4438L736.403 90.9445L736.281 91.4773L735.774 91.8176L734.881 91.9716L728.359 90.9831L726.439 90.8227L726.157 91.1886L725.977 91.2399L725.669 91.1435L725.11 91.1243L724.828 90.8867L724.59 90.2256L724.025 89.802L723.12 89.6158L722.343 90.1165L721.438 92.0744L721.579 92.4402L721.432 93.6919L721.663 94.0322L721.65 94.3147L721.393 94.5521L720.86 94.52L720.051 94.2248L716.989 91.2656L714.671 89.7891L711.802 88.7042L709.529 88.1716L707.86 88.1973L706.486 88.9611L705.414 90.4503L703.738 91.2977L701.459 91.503L700.227 91.9075L700.034 92.5044L699.212 92.5174L697.761 91.9524L696.266 91.792L694.718 92.0423L693.589 92.6265L692.388 94.4557L692.151 95.3545L691.284 96.1377L688.979 97.3574L688.864 97.8065L687.65 99.1931L687.265 99.9571L687.271 100.708L686.867 100.663L686.052 99.8221L686.02 98.6924L686.771 97.2674L687.445 96.5806L688.035 96.6255L688.401 95.99L688.543 94.6804L688.331 94.0258L687.182 94.2826L686.578 94.8025L685.814 94.9181L684.896 94.6226L684.087 95.3353L683.387 97.0619L682.553 98.1917L681.583 98.7245L680.929 98.1341L680.595 96.42V95.0785L680.986 93.4545L680.787 93.1399L680.377 93.6598L679.76 95.0142L678.938 97.9672L678.412 98.9235L677.699 99.3279L676.57 101.112L675.029 104.271L673.289 107.333L671.35 110.285L670.182 111.871L669.79 112.096L669.617 112.622L669.521 114.515L669.174 115.799L668.159 116.807L665.508 118.078L665.091 118.945L665.033 119.657L663.325 122.604L662.491 124.407L661.945 126.282L662.118 127.463L663.011 127.944L663.736 127.758L664.288 126.904L665.136 126.128L666.285 125.434L667.119 124.414L668.281 121.93L669.585 120.498L670.278 120.415L670.471 120.453L671.825 119.805L672.917 120.017L673.578 120.992L674.252 121.66L674.4 122.289L674.066 123.688L673.443 125.165L672.538 126.712L671.716 129.029L670.978 132.117L670.824 134.447L671.247 136.02L670.843 137.425L669.61 138.658L668.615 140.307L667.864 142.368L667.441 144.095L667.338 145.494L667.447 146.54L667.909 147.953L667.877 148.665L666.542 151.766L666.06 153.268L665.977 154.455L665.643 155.624L664.622 157.992L664.301 159.308L664.243 160.515L664.474 162.492L664.346 163.159L664.404 163.667L664.654 164.007V164.629L664.391 165.535L664.494 166.234L664.956 166.735L665.251 167.692L665.386 169.097L665.739 170.272L666.311 171.209L666.413 172.576L666.047 174.361L665.861 177.712L665.855 182.622L666.124 185.768L666.676 187.161L667.293 188.188L667.973 188.849L668.757 190.877L669.642 194.279L670.458 196.526L671.215 197.617L671.896 198.221L672.435 198.574L672.833 198.625L673.058 199.158L674.072 199.479L675.927 199.614L677.635 199.402L679.189 198.85L684.132 195.987L686.052 194.427L687.117 193.028L688.151 191.185L689.146 188.9L691.175 185.472L692.163 183.399L693.114 180.767L693.832 178.007L694.314 175.112L694.545 172.101L694.52 168.982L694.032 165.836L693.088 162.659L692.581 161.035L692.382 160.605L690.674 156.522L688.748 150.822L688.774 150.334L690.571 146.926L690.616 146.463L690.424 143.69L690.038 142.297L689.12 140.423L689.152 139.948L691.021 137.554L692.151 135.731L693.178 133.516L693.845 130.929L694.147 127.97L694.141 125.993L693.813 125.004L693.845 124.241L694.237 123.708L696.24 123.014L696.914 121.84L697.055 119.773L697.466 118.746L698.147 118.765L698.776 118.341L699.354 117.475L700.118 117.225L701.068 117.603L702.397 116.319L704.104 113.373L705.414 111.723L706.332 111.377L706.505 111.646L705.94 112.526L705.767 113.495L705.985 114.548L705.793 115.568L705.369 116.961L705.632 117.398L704.9 119.638L704.868 120.755L705.311 121.602L705.838 121.307L706.448 119.863L706.634 119.092L706.383 118.996L706.48 118.38L706.91 117.25L707.295 116.711L707.629 116.775L707.719 117.391L707.571 118.566L706.602 121.333L706.409 122.174L706.627 122.411L707.796 120.678L708.772 117.918L709.516 115.799L709.651 114.644L709.426 111.659L709.471 110.433L709.754 109.586L710.768 108.629L712.508 107.564L714.228 106.992L715.93 106.922L717.117 106.633L717.792 106.126L717.554 105.715L716.411 105.413L715.538 104.746L714.947 103.712L714.748 102.525L714.947 101.189L715.673 99.8736L716.931 98.5833L717.329 97.6396L716.861 97.0298L717.4 96.8116L718.941 96.985L720.019 96.8181L720.629 96.3109L720.796 96.3751L722.086 96.8566L724.391 98.442L726.58 99.3665L728.654 99.6295L730.169 100.188L731.119 101.042L731.806 101.998L732.223 103.058L733.212 103.654L734.772 103.789L735.998 104.239L736.891 105.002L741.847 106.973L743.92 108.013L745.063 109.027L745.384 109.682L745.288 110.324L745.403 111.011L746.251 112.346L746.572 112.468L746.771 113.11L746.841 114.278L747.092 115.061L747.516 115.459L747.252 115.62L745.724 114.946L744.858 115.151L744.453 116.024L744.389 116.852L744.665 117.629L746.617 119.965L747.124 122.096L747.22 124.67L746.976 125.672L746.771 127.874L746.604 131.276L746.565 132.438L745.923 133.574L744.184 135.204L744.158 134.896L743.741 134.813L743.291 135.063L742.662 136.456L742.123 138.998L741.468 140.378L740.691 140.596L740.223 140.962L740.069 141.476L739.24 141.823L737.732 142.002L736.698 142.772L735.928 144.942L735.96 145.982L735.6 147.272L735.626 148.376L736.03 149.294L737.25 150.212L739.279 151.13L740.492 151.271L741.327 150.886L742.2 149.384L743.047 148.794L744.081 148.543L744.472 147.863L746.174 144.852V144.185L745.551 143.928L745.641 143.742L746.443 143.62L747.137 143.215L747.727 142.522L748.761 142.009L751.278 141.219L752.626 140.32L753.48 140.173L754.725 140.654L756.356 141.758L757.646 143.37L758.596 145.481L759.797 150.944L761.248 159.719L762.236 164.61L762.769 165.65L763.032 166.17L761.755 172.981L760.728 175.786L758.93 177.41L757.145 178.983L754.918 181.614L752.472 182.911L751.22 183.675L750.95 184.169L750.648 184.015L749.981 185.44L749.384 187.411L749.146 188.932L749.358 189.767L748.851 190.299L747.933 191.301L747.76 191.667L747.824 192.251L747.631 192.533L747.188 192.521L746.848 192.803L746.02 193.849L744.594 196.584L744.325 197.155L744.562 197.579L746.193 197.842L747.304 198.343L748.17 199.094L751.297 200.564L752.253 201.475L753.203 201.976L754.147 202.066L754.796 201.777L755.142 201.109L755.585 201.064L756.125 201.642L757.884 202.271L757.941 202.47L753.062 203.561L752.041 204.069L753.261 204.422L754.494 204.338L755.733 203.812L757.158 203.837L758.41 204.088L758.808 203.876L758.969 203.767L761.1 205.198L761.896 205.41L762.724 205.25L763.578 204.711L765.459 204.011L768.361 203.144L771.154 202.791L773.837 202.952L775.532 202.708L777.085 201.809L780.514 198.856L784.449 196.475L790.927 193.515L800.557 189.953L802.046 189.125L803.555 188.31L804.338 187.841L805.211 187.417L811.913 183.682L815.367 181.473L817.094 179.868L818.917 178.533L820.83 177.468L822.346 176.101L823.469 174.432L824.708 173.186L826.063 172.371L826.794 171.511L826.897 170.612L826.64 169.392L826.037 167.858L825.954 166.652L826.39 165.766L826.486 165.169L826.242 164.861L823.398 163.981L823.52 159.745L823.482 159.623L823.63 159.571L830.184 157.69L834.364 157.042L839.454 156.869L845.521 157.8L847.877 158.647L849.367 159.725L851.087 160.014L853.039 159.513L855.742 159.347L859.202 159.513L861.051 159.77L861.295 160.111L861.532 160.008L861.77 159.469L862.694 158.872L865.288 157.979L865.635 158.166L866.168 157.716L866.887 156.625L868.209 155.418L870.135 154.096L871.875 153.409L873.435 153.351L874.475 153.03L875.001 152.433L875.162 151.907L874.956 151.451L875.046 150.944L875.136 150.694L875.059 150.488L874.873 150.058L874.725 147.888L874.424 146.868L874 146.11L873.461 145.623L873.525 145.116L874.462 144.486L874.392 145.07L874.636 145.25L875.072 144.981L876.073 143.671L876.189 143.177L876.87 142.67L877.377 141.88L876.818 141.765L875.489 142.002L875.188 141.765L875.875 140.712L875.746 140.115L875.528 139.865L875.091 139.762L873.595 140.686L873.133 140.77L873.069 140.282L872.299 139.197L874.366 137.271L881.672 131.898L882.416 131.083L882.692 130.351L882.493 129.71L882.288 129.549L882.397 129.389L889.44 122.443L893.439 119.227L896.739 117.43L899.256 116.576L900.957 116.698L901.92 116.576H902.742L906.934 116.57L914.432 116.557L921.931 116.55L929.429 116.537L936.921 116.525L944.42 116.512L951.918 116.499L959.41 116.486L961.188 111.582L962.838 109.29L965.104 110.048L966.311 109.984L967.653 108.803L968.738 108.084L969.45 108.193L970.06 109.271L970.568 109.99L971.165 109.778L971.672 108.758L971.653 107.339L972.346 106.351L973.174 106.203L973.938 106.235L974.323 105.753L974.278 105.067L974.009 103.95L974.105 102.608L976.012 100.227L978.348 98.6154L979.164 97.8065L979.401 96.1698L980.743 94.4687L981.411 93.4865L981.571 92.6327L981.225 91.58L981.257 89.5709L981.719 87.1702L982.271 84.5511L983.504 82.189L985.526 79.6084L986.052 76.2063L986.598 72.6116L989.05 69.1004L991.83 65.1012L993.416 62.8225L996.266 58.6693L998.295 55.7037L999.316 54.3428L1000.38 52.7253L1002.12 53.213L1003.85 53.6946L1003.6 56.0439L1003.88 57.7514L1004.7 58.7336L1005.89 59.401L1006.79 59.6257L1007.85 59.613L1010.74 58.2842L1014.13 57.424L1015.99 56.6216L1016.33 55.8706L1017.18 55.6075L1018.54 55.832L1021.04 57.7128L1023.96 60.5501L1026.27 62.7904L1026.34 66.6676L1026.38 70.7629L1026.43 75.0636L1026.46 78.1257L1026.52 82.3237L1026.56 85.6489L1026.62 89.9817L1026.65 92.2927L1026.97 92.9603L1026.77 93.8653L1026.69 94.321L1026.71 94.6869L1026.84 95.1428L1026.82 95.7782L1026.52 96.3495L1026.38 97.0171L1026.34 98.102L1026.65 98.7696L1027.18 99.161H1027.62L1028.19 99.5526L1028.93 100.246L1030.05 100.849L1031.22 101.061L1032.02 100.913L1032.99 101.305L1033.33 102.268L1033.14 103.173L1032.59 103.597L1032 103.924L1031.89 104.617L1032.19 105.336L1032.61 105.965L1033.07 107.069L1032.88 108.032L1032.46 108.841L1032.27 109.675L1032.63 110.394L1033.58 111.351L1034.17 112.275L1035.1 112.782L1035.54 112.423L1035.9 111.941L1036.28 111.582L1036.94 111.794L1037.7 112.063L1038.53 112.384L1038.43 113.161L1038.93 114.464L1039.32 116.968L1038.72 118.104L1038.85 119.606L1040.52 120.042L1040.92 120.505L1041 121.057L1037.32 124.902L1034.21 124.369L1032.52 125.389L1030.75 125.685L1029.98 127.399L1029.01 127.765L1027.68 127.662L1026.53 127.181L1025.66 127.418L1024.43 130.506L1023.43 130.236L1023.03 131.346L1022.5 131.834L1021.73 132.245L1021.07 130.878L1020.64 129.575L1020.01 129.292L1019.18 128.958L1018.33 128.971L1017.75 129.157L1017.04 129.998L1016.01 130.724L1015.24 130.12L1014.63 129.151L1014.11 130.711L1013.35 132.354L1013.48 134.267L1013.15 135.403L1012.43 135.102L1011.72 134.107L1009.72 133.311L1008.12 133.381L1008.44 132.316L1009.95 130.788L1009.49 130.493L1008.75 130.704L1008.43 130.493L1008.96 129.1L1009.01 127.566L1008.34 128.098L1007.49 129.716L1005.43 131.006L1005.53 133.163L1003.6 137.567L1003.51 139.441L1002.27 140.93L1000.66 142.214L998.526 141.854L996.896 142.965L996.067 144.242L995.348 144.435L994.976 142.811L994.706 142.31L994.103 144.711L993.493 144.859L993.262 143.158L992.973 142.034L992.138 143.004L991.586 145.571L991.008 145.353L990.822 144.403L990.405 144.114L990.264 145.205L990.469 146.74L990.167 147.555L989.59 147.118L989.012 146.38L988.055 146.939L987.176 147.163V146.412L987.343 145.488L985.597 145.995L983.497 147.696L981.867 150.045L982.431 150.437L983.067 151.181L980.236 154.796L977.334 158.043L975.145 163.326L974.265 163.943L973.508 164.906L972.705 168.083L971.781 170.901L972.301 172.159L972.641 173.449L973.463 174.72L974.163 174.836L974.92 174.605L975.472 174.656L975.832 175.195L975.678 175.844L974.805 176.004L973.174 177.134L971.742 177.571L971.03 178.931L969.958 180.504L967.871 182.956L968.763 183.713L971.98 184.561L973.418 185.434L975.588 189.992L975.094 190.447L974.895 191.282L976.827 192.45L977.443 195.711L979.029 196.821L981.391 197.502L984.287 196.52L986.694 195.165L986.611 194.055L985.096 191.461L984.73 190.248L983.606 189.459L983.183 190.126L982.457 189.26L982.374 188.772L983.048 188.534L983.838 188.631L984.755 189.086L987.118 191.917L987.773 195.614L987.914 197.958L987.644 198.76L986.958 198.593L985.648 198.754L979.427 199.967L978.047 201.032L974.882 202.188L974.683 201.61L974.914 200.416L974.715 197.964L974.092 197.848L969.168 201.848L967.268 202.098L965.669 203.266L965.31 202.618L965.027 199.626L966.029 197.11L965.496 197.149L963.827 198.657L963.114 197.726L962.755 196.706L962.241 196.128L961.682 195.91L962.164 198.137L961.028 199.806L960.72 204.113L959.294 205.898L954.852 207.047L951.956 206.803L949.363 207.163L945.915 207.984L944.009 207.496L942.057 208.363L935.432 208.6L934.032 208.138L932.247 209.775L929.39 210.744L922.168 214.41L920.576 215.745L918.637 217.818L917.334 218.935L916.262 219.301L915.6 220.232L914.882 220.835L915.575 218.768L916.326 217.022L916.955 213.627L916.769 210.879L915.992 209.749L915.19 208.992L916.127 211.707L916.281 215.032L915.954 216.977L914.182 220.72L913.431 221.586L912.551 222.357L911.884 222.684L911.267 223.281L910.555 224.224L909.88 226.099L910.291 227.806L913.745 228.429L914.676 227.903L915.145 229.122L915.414 230.817L915.151 232.653L914.574 234.514L914.137 236.825L913.765 240.336L913.206 243.488L913.129 242.532L913.482 238.693L912.917 239.098L912.526 239.983L911.473 244.926L910.022 247.552L908.686 249.368L907.306 249.066L907.614 250.511L907.236 251.262L906.914 252.828L906.093 253.862L905.322 253.765L904.218 254.478L903.782 255.023L903.75 256.07L903.005 256.988L900.328 261.751L898.004 263.15L897.452 262.945L898.061 260.698L898.479 258.426L897.066 257.437L895.718 256.911L894.171 256.981L892.457 255.209L890.255 253.926L887.18 250.434L887.27 249.464L887.193 247.834L888.13 245.26L889.022 243.456L890.261 242.519L893.856 241.569L894.755 240.137L895.288 238.931L893.51 241.004L890.846 241.71L889.408 242.487L888.259 243.668L887.578 245.151L886.037 246.935L886.146 248.129L886.403 248.977L886.281 250.748L887.257 252.469L889.183 255.287L889.555 259.652L891.025 262.566L893.285 265.955L895.018 266.918L895.108 268.176L894.306 270.256L893.247 271.206L894.621 271.013L895.301 271.488L895.969 273.222L895.917 274.987L895.693 275.975L895.275 276.373L895.288 275.359L894.993 275.006L894.505 275.443L894.19 275.943L894.056 277.914L893.722 278.896L892.54 279.185L891.34 281.765L890.229 283.229L885.857 293.089L886.024 294.732L885.222 295.258L884.015 295.688L882.789 296.671L881.973 297.749L881.216 300.65L879.765 303.911L878.86 302.557L878.629 301.395L879.033 298.352L880.6 293.365L882.327 290.258L883.642 288.781L884.721 285.765L883.354 285.315L881.267 285.367L881.659 283.974L882.269 282.748L881.184 281.522L880.542 281.367L879.88 280.867L880.657 279.846L881.036 278.768L880.805 277.452L881.132 276.457L880.593 276.604L879.72 277.657L879.181 278.074L878.853 277.144L878.474 277.355L878.231 277.997L877.672 278.344L876.497 277.471L874.783 276.476L873.833 274.756L873.287 273.421L873.839 271.007L875.027 270.577L876.568 270.969H878.584L878.295 270.436L877.576 270.526L875.451 268.561L874.764 267.374L873.589 267.046L873.056 268.189L872.459 268.491L873.191 265.994L874.154 265.891L875.573 265.198L875.162 263.747L874.263 263.112L872.645 263.907L872.665 262.887L872.966 261.584H874.186L875.258 262.007L876.17 259.896L876.208 258.952L874.7 260.326L874.359 257.366L875.842 254.51L877.261 253.258L879.033 253.297L880.831 253.098L879.701 252.571L878.539 252.289L879.412 251.153L880.156 250.947L880.888 249.959L879.136 250.106L879.341 248.232L878.487 248.617L877.467 248.79L877.069 249.586L877.145 250.909L876.85 251.775L876.054 252.469L874.713 253.008L874.584 252.071L874.141 251.647L873.974 253.656L873.621 254.337L872.639 252.456L872.344 252.834L872.382 253.367L872.132 254.292L871.291 254.773L871.342 255.954L871.015 256.602L868.325 255.575L868.26 255.922L869.782 258.137L870.893 258.894L871.027 260.101L870.071 261.102L868.755 260.242L868.53 260.306L869.249 261.783L869.699 263.073L869.236 264.151L869.307 265.487L869.204 266.693L868.922 267.746L869.564 272.58L870.334 273.896L871.092 275.147L871.496 276.322L870.694 276.489L869.41 275.526L868.28 274.788L866.938 272.432L866.72 271.488L866.392 270.744L866.546 272.451L867.028 274.358L871.226 278.62L872.003 280.25L872.594 281.534L872.446 282.754L871.348 281.887L870.405 280.783L867.894 279.531L864.73 278.742L862.945 275.828L862.951 277.041L862.553 278.074L861.462 276.816L860.775 275.744L860.544 274.57L859.183 274.647L857.758 275.674L856.377 275.43L856.217 273.433L856.589 272.374L858.136 269.871L859.6 268.587L860.242 266.931L860.024 264.363L859.754 266.976L858.92 268.266L857.604 269.255L855.877 271.013L855.459 272.638L854.92 275.674L855.645 276.701L856.39 276.97L858.586 276.284L859.722 276.592L862.252 280.238L866.964 281.676L868.684 282.574L870.084 284.474L872.189 285.565L873.827 287.151L873.871 288.185L873.307 289.404L873.082 291.054L872.388 292.094L870.726 292.216L869.718 291.946L864.306 286.137L863.657 285.604L861.648 282.555L859.292 280.918L858.56 280.95L861.911 283.974L863.279 286.086L865.686 289.038L867.407 290.29L868.671 292.241L869.853 293.153L873.069 294.45L871.952 295.387L873.737 296.183L873.993 297.64L873.833 299.302L871.355 298.641L871.271 299.867L871.496 300.586L870.405 301.183L868.883 300.374L864.935 295.945L864.967 296.536L865.288 297.223L867.58 300.073L869.628 301.78L871.361 302.55L872.697 303.982L873.172 304.842L873.486 306.152L872.498 307.037L871.368 307.532L870.27 306.646L869.461 305.709L867.74 304.123L867.22 302.345L865.911 302.435L860.441 300.182L856.044 299.919L856.474 300.374L857.026 300.676L860.525 301.228L861.905 302.268L864.781 303.192L866.469 303.443L867.15 306.267L869.48 308.212L869.782 309.65L871.374 309.811L874.173 308.405L875.977 308.899L878.584 309.303L879.181 310.44L879.624 312.596L880.548 315.023L882.936 324.562L886.525 332.322L886.968 333.657L886.133 332.483L883.469 327.347L881.999 323.624L880.49 317.038L880.054 315.562L879.534 314.972L879.194 315.453L879.046 316.294L879.296 316.942L878.699 319.112L878.956 320.107L879.919 321.134L880.972 323.695L881.813 327.142L880.677 325.743L879.47 325.005L877.589 324.44L875.913 323.445L876.035 324.87L875.875 326.41L874.584 325.942L873.705 325.428L874.488 327.065L872.799 326.577L871.67 326.68L870.938 328.137L869.955 329.017L868.504 329.299L866.347 327.97L865.654 326.353L865.365 324.549L865.25 326.68L865.635 328.894L865.5 330.576L867.574 330.884L869.512 330.615L872.132 330.686L873.839 330.371L874.867 329.838L877.332 330.3L877.505 332.329L877.223 334.344L877.081 336.482L877.762 336.469L878.564 335.782L878.969 331.937L881.222 330.512L881.98 330.615L882.699 331.847L882.943 333.099L883.199 334.819L882.673 337.438L879.213 340.494L876.735 343.312L875.464 343.883L873.64 343.556L871.567 342.85L870.546 342.708L869.776 342.946L869.307 342.073L869.005 340.487L868.203 339.961L867.593 340.019L867.182 341.701L865.25 342.182L862.624 341.482L859.87 340.07L861.051 341.585L867.875 344.416L868.646 344.949L869.365 345.719L868.415 346.932L867.663 348.299L867.554 349.371L867.291 350.046L864.569 351.862L863.099 351.541L859.331 348.261L861.051 351.098L862.425 352.299L865.198 352.94L870.392 351.881L872.1 353.037L870.7 355.085L869.313 356.516L867.49 356.676L865.885 357.068L865.41 358.05L864.267 358.114L862.476 358.172L859.709 358.262L858.188 358.031L856.063 360.04L855.26 360.316L854.143 359.937L853.674 358.32L853.174 357.524L853.161 360.547L853.36 361.362L853.764 361.972L851.28 363.609L848.898 365.65L848.044 366.202L847.075 367.223L845.091 370.169L844.603 372.313L843.884 374.701L843.794 373.629L843.916 371.819L843.428 369.746L843.114 373.546L842.343 375.305L835.269 375.183L832.174 376.139L827.424 379.355L826.005 380.767L822.076 386.204L821.074 389.677L820.272 388.22L820.471 387.129L820.484 386.23L819.502 388.059L820.439 390.858L819.598 391.924L817.004 393.914L815.585 394.235L813.993 394.799L813.493 396.757L811.329 398.561L810.071 399.357L807.76 398.876L808.472 400.609L807.625 401.925L806.161 402.932L804.344 403.587L803.304 403.504L802.418 403.85L801.718 404.685L800.017 405.468L798.252 405.032L796.249 404.768L795.132 405.237L797.006 406.014L798.014 407.131L797.809 408.639L797.308 409.217L796.12 410.006L795.6 409.891L795.286 409.185L794.901 407.708L794.349 408.023L794.252 408.71L793.777 408.96L792.095 406.604L792.178 408.402L792.763 409.782L793.328 410.481L793.899 410.892L794.04 411.534L792.891 413.094L792.301 413.441L791.248 413.691L790.657 414.647L790.83 415.475L789.906 417.266L787.704 418.383L787.036 418.338L786.491 418.666L786.812 419.462L787.357 420.039L787.338 420.579L786.76 421.31L785.611 421.516L784.969 422.344L785.175 423.133L785.553 423.57L785.47 424.321L784.167 425.078L783.858 425.823L784.507 426.041L785.008 425.823L785.373 425.983L784.59 427.229L783.89 427.986L783.223 429.347L781.676 429.726L781.733 430.169L782.607 430.56L783.338 431.607L781.965 433.539L781.104 433.378L780.578 432.955L780.244 434.476L780.372 435.285L780.045 436.947L779.519 438.937L779.159 439.753L779.236 441.274L779.461 442.744L780.302 444.631L781.592 452.34L782.472 455.011L784.051 462.2L786.664 469.146L790.349 477.51L796.396 487.601L797.122 489.032L796.332 490.245L796.095 491.503L796.024 493.397L796.242 495.246L796.955 497.499L798.329 500.939L797.558 500.259L795.568 495.316L795.337 492.415L795.62 488.288L795.151 488.39L794.772 489.732L794.56 491.304L794.053 491.914L793.366 489.507L793.418 488.422L794.149 487.151L793.938 486.695L792.75 486.041L792.5 485.02L792.66 484.006L791.986 483.467L791.453 483.492L791.813 485.989L792.371 487.517L793.064 491.182L794.188 493.397L794.843 495.252L802.483 514.959L804.293 517.456L804.961 519.247L805.654 522.989L805.808 527.784L804.563 536.521L804.28 542.458L804.1 542.279L803.978 541.649L803.689 541.566L802.611 544.281L801.141 546.727L800.653 550.527L799.947 552.427L797.822 554.436L796.506 554.385L793.283 555.893L791.016 555.502L788.32 556.349L786.548 556.253L785.521 554.462L785.675 553.66L786.08 552.857L786.773 552.671L789.155 554.552L789.604 553.756L788.885 552.819L787.505 552.292L786.491 551.715L784.443 547.427L782.318 544.48L781.958 542.503L778.292 541.296L775.641 539.467L773.908 536.219L772.913 530.448L771.744 529.8L771.25 529.35L772.392 527.2L773.599 525.396L772.649 525.846L771.95 526.513L771.057 528.105L770.402 528.349L769.805 528.105L769.118 525.05L769.317 521.295L770.28 519.889L768.797 519.85L767.263 520.383L767.488 521.635L767.27 522.321L766.152 522.142L765.299 521.705L764.149 520.396L762.577 517.905L759.347 511.024L758.718 510.055L757.646 509.034L758.153 508.719L759.071 508.533L761.145 505.426L762.769 503.546L763.308 502.243L763.212 501.684L762.493 500.875L761.549 501.581L761.145 501.382L760.079 499.745L759.065 499.283L758.359 499.636L759.103 500.972L759.771 501.472L759.508 503.417L759.238 504.046L758.609 504.605L757.627 504.303L757.132 504.784L756.548 504.277L755.97 503.424L755.322 502.018L757.036 494.084L758.622 489.013L758.802 483.21L758.924 482.35L758.789 480.803L756.664 477.445L747.272 469.223L739.998 459.44L733.693 455.762L728.911 456.571L728.083 457.309L727.729 458.272L728.025 459.369L727.595 459.825L726.311 459.767L724.584 460.024L720.071 462.598L718.478 462.502L717.034 463.169L715.949 463.67L713.124 463.94L710.73 464.511L709.696 464.203L709.022 462.707V461.16L709.568 462.348L710.415 463.278L710.807 462.906L710.948 462.085L710.107 460.473L707.391 458.407L704.303 455.383L705.247 455.486L705.485 454.838L704.528 453.984L704.933 453.002L705.607 451.968L704.303 452.122L703.129 452.847L703.09 453.74L702.859 454.452L702.23 454.35L701.061 453.47L695.309 451.018L690.276 449.632L694.141 449.009L696.234 449.49L695.983 448.746L695.476 448.271L693.826 447.674L691.72 447.898L690.391 447.616L689.037 448.213L687.548 449.092L686.219 449.542L681.031 450.177L676.826 450.864L677.5 450.139L678.219 449.67L680.704 448.958L681.076 447.481L680.492 446.056L679.837 446.396L679.15 447.507L678.309 446.704L677.378 446.711L677.122 448.476L675.921 449.664L675.382 450.858L671.87 451.795L671.421 451.487L672.448 450.351L672.365 449.721L671.196 450.261L669.232 452.405L662.317 453.104L662.696 452.616L664.16 452.514L666.208 451.84L665.791 450.697L665.001 449.439L664.269 449.298L663.788 448.559L663.813 446.236L663.345 444.875L662.221 443.476L661.842 443.745L661.014 446.146L660.327 449.285L659.987 450.299L657.939 450.37L656.122 450.152L649.959 450.53L647.661 449.465L646.704 449.259L646.12 449.285L643.443 450.261L640.387 451.005L639.668 450.768L638.641 450.736L636.426 453.271L633.813 454.459L627.226 452.321L625.589 450.607L624.132 450.241L622.341 450.029L620.421 452.141L618.958 454.985L621.262 456.545L623.24 457.29L626.501 456.667L628.305 455.287L629.775 455.332L630.481 455.056L631.123 454.337L632.382 454.902L632.427 455.473L631.534 456.275L630.404 456.949L629.724 457.745L631.008 459.344L633.03 459.883L633.787 459.652L634.256 457.854L635.502 456.692L637.19 456.943L636.952 457.675L637.19 458.362L637.967 459.536L637.877 461.218L638.025 461.622L636.208 462.361L634.853 462.611L633.768 463.58L634.34 464.139L633.235 464.633L632.491 464.434L632.112 464.614L631.996 465.211L631.425 465.756L632.253 467.419L633.954 468.497L635.155 469.858L639.983 471.643L641.151 471.591L642.3 473.389L643.231 474.005L644.123 474.319L644.021 475.552L642.429 476.457L641.999 477.535L641.6 478.139L640.881 477.375L640.15 476.816L638.448 478.505L637.627 478.864L638.031 477.041L637.389 476.329L636.42 474.499L635.001 473.369L633.999 472.991L633.222 472.278L632.279 471.989L631.476 472.066L630.115 471.649L630.025 470.673L629.647 469.942L628.581 469.082L623.503 467.451L623.471 468.125L623.824 468.632L624.556 468.972L625.429 469.627L625.422 471.572L625.044 472.394L624.883 473.562L624.543 474.756L623.92 475.693L622.534 476.329L621.924 475.796L620.935 473.235L619.535 472.432L617.314 472.336L615.805 472.914L614.162 475.398L612.833 475.802L608.294 474.518L603.12 472.554L603.255 471.899L604.07 471.688L605.636 471.957L605.553 471.283L603.954 469.088L603.665 468.099L603.871 466.893L603.351 466.918L602.394 467.932L599.095 467.072L598.183 466.039L596.244 463.137L593.509 463.041L592.27 461.282L590.03 462.02L588.9 462.836L587.905 464.1L588.29 464.755L589.285 465.795L588.836 466.302L585.645 467.04L578.249 466.212L576.086 465.435L573.184 463.792L569.165 462.457L567.226 462.239L565.332 462.502L559.811 462.637L558.534 462.99L557.442 463.561L556.736 462.932L556.409 461.809L557.051 461.629L557.763 460.968L558.405 459.658L558.482 458.862L558.033 458.349L557.179 458.297L555.292 461.706L556.37 463.612L556.3 464.299L552.531 464.691L543.973 468.523L540.635 470.59L540.808 469.897L544.84 467.22L543.415 466.809L541.123 467.477L540.301 467.22L541.271 465.005L540.956 463.048L539.325 462.996L538.286 464.556L537.566 464.492L536.623 463.824L535.891 464.036L536.43 467.573L537.457 469.024L538.318 470.879L535.974 473.158L533.798 475.038L533.56 476.855L531.371 479.217L529.317 480.559L524.483 483.704L523.102 484.372L520.92 485.829L517.915 486.92L515.026 488.653L514.057 488.917L515.899 487.447L518.082 485.996L516.207 486.195L513.319 485.527L511.553 485.489L511.547 486.021L510.205 486.772L508.812 485.675L508.208 484.937L507.919 484.295L507.329 484.141L506.764 484.436L508.844 488.929L509.73 489.122L510.706 489.565L509.486 490.611L508.17 491.407L506.103 491.934L504.357 490.297L503.978 492.351L503.753 494.398L503.169 494.925L502.231 495.676L501.724 495.111L501.48 494.315L500.877 495.021L499.997 495.554L498.546 495.663L497.462 495.945L497.487 496.793L497.738 497.646L499.663 496.973L498.964 499.161L497.192 501.325L495.747 501.832L493.539 501.517L492.993 501.736L492.505 502.185L495.08 505.555L493.423 510.632L492.364 512.475L491.632 512.712L490.823 512.77L487.973 511.14L486.419 509.875L487.793 513.309L491.53 514.31L491.722 515.614L491.703 516.718L490.965 518.021L490.278 519.748L490.785 520.948L491.375 523.92L491.883 525.281L492.435 529.408L493.025 531.193L496.421 537.753L497.564 537.804L497.744 538.51L497.635 539.871L495.195 540.269L494.168 540.873L493.969 541.399L493.821 541.682L493.507 541.656L492.345 541.277L489.693 539.416L485.835 538.26L480.763 537.811L477.297 536.88L475.435 535.462L473.496 534.614L471.474 534.351L469.792 533.581L468.463 532.303L466.518 531.488L463.956 531.129L462.287 530.172L461.131 527.823L461.125 527.791L460.085 523.862L458.775 521.397L456.233 518.342L456.002 517.937L455.983 517.437L456.297 515.658L456.028 514.375L455.225 513.328L455.039 512.224L455.476 511.062L455.501 509.663L455.122 508.026L453.505 506.254L450.641 504.354L448.202 501.569L446.192 497.903L444.202 495.361L442.231 493.943L440.89 492.21L440.164 490.162L439.952 488.974L440.248 488.647L439.041 486.368L436.325 482.138L434.765 479.038L434.361 477.073L432.634 474.737L429.578 472.021L427.921 470.256L427.517 469.03H427.511L422.747 465.448L421.36 463.208L420.282 462.502L419.043 462.579L418.407 462.361L418.375 461.854L417.971 461.828L417.194 462.29L414.658 462.38L410.363 462.11L407.262 461.501L405.356 460.557L404.02 460.685L403.25 461.892L401.619 462.669L399.122 463.015L396.978 465.249L395.18 469.37L394.391 472.015L394.609 473.196L394.134 474.05L392.965 474.583L391.778 475.777L390.571 477.632L389.158 478.53L387.547 478.466L384.568 477.041L380.228 474.242L376.826 472.509L374.36 471.848L372.184 470.552L370.297 468.619L368.557 467.329L366.965 466.681L365.103 464.537L362.972 460.891L361.906 458.073V455.094L359.12 448.592L357.643 445.767L356.545 444.464L354.401 442.911L351.198 441.101L346.909 437.48L341.529 432.03L337.722 428.744L335.488 427.627L333.549 425.656L331.906 422.832L330.301 421.028L330.134 420.944L329.993 420.906L326.032 420.88L322.071 420.855L318.11 420.829L314.148 420.81L310.188 420.784L306.226 420.765L302.265 420.739L298.304 420.713L298.291 423.082L298.227 425.47L298.221 427.832L298.208 430.194L291.839 430.207L285.471 430.22L279.102 430.233L272.734 430.246L266.365 430.259L259.997 430.271L253.628 430.284L247.26 430.297L238.715 427.19L230.17 424.077L221.625 420.957L213.08 417.831L204.536 414.705L195.991 411.573L187.446 408.434L178.901 405.288L179.761 404.088L180.904 400.878L178.843 401.109L173.688 401.565L168.533 402.021L163.378 402.477L158.223 402.932L153.067 403.388L147.912 403.844L142.757 404.3L137.602 404.756L137.563 404.621L137.435 402.291L136.6 401.469L135.528 401.976L135.04 398.946L135.31 397.515L135.182 396.115L134.174 392.668L131.497 388.483L125.712 383.264L122.766 381.518L120.455 379.31L118.984 378.694L117.135 378.527L116.603 379.522L114.51 378.842L114.824 376.37L112.783 372.93L111.114 372.545L106.909 372.775L101.291 370.882L99.6348 369.752L99.0635 367.73L96.4313 365.971L92.9646 364.245L91.0322 364.649L88.5092 364.379L84.9077 363.134L82.8084 362.98L78.7189 363.346L77.191 363.083L75.7722 361.51L74.2442 360.72L74.5652 358.782L74.3727 357.029L74.6038 355.662L73.9168 352.664L74.4497 349.879L73.9874 348.871L73.1208 348.094L70.4116 346.952L69.9173 345.52L70.3602 343.53L69.654 342.214L67.4328 340.988L65.3592 338.202L62.727 336.674L61.6485 334.113L60.0306 332.528L59.4657 331.122L55.8705 326.096L52.0315 322.161L51.4409 319.889L51.2932 316.775L52.7955 314.875L53.6043 313.2L53.5208 311.666L53.2898 310.536L51.9674 308.572L46.8571 307.403L42.7034 302.531L42.4595 298.795L40.8288 294.969L40.8095 292.473L40.5592 289.77L41.7983 289.18L42.9024 289.398L42.7934 290.47L43.1656 292.402L44.4689 293.853L45.7079 294.488L46.8378 295.894L47.6852 296.318L48.5583 296.42L48.0897 295.515L47.5889 294.938L46.979 293.063L45.8235 290.669L44.4946 289.346L43.8204 286.933L43.2427 286.374L42.8831 285.476L44.1671 284.41L45.9198 283.653L48.2695 283.447L54.9332 283.807L56.3521 283.184L57.527 283.383L58.3872 283.306L56.5767 282.664L55.5624 282.876L54.3619 282.741L51.9801 282.87L51.0172 282.6L49.9579 281.842L49.2646 281.765L47.0625 283.088L46.0802 282.927L43.7562 281.483L42.7419 281.278L41.1112 282.099L40.9123 285.636L41.4194 288.262L40.4436 288.531L39.3073 287.453L37.5675 286.811L36.1294 285.829L34.1008 283.999L33.0351 283.332L31.8282 284.853L31.7832 284.153L32.3803 282.382L32.2133 279.41L34.0301 281.785L33.4652 280.116L32.0529 278.273L30.9807 277.632L29.6326 274.332L26.5959 272.349L24.1628 269.139L19.181 263.805L18.8536 259.106L17.0368 253.143L17.8008 249.74L17.698 247.327L16.8057 243.668L15.8748 241.678L11.8367 236.203L7.95273 232.505L7.3685 229.7L7.09887 226.869L7.94626 224.347L8.68458 221.683L9.21741 220.977L9.42927 221.272L9.28159 221.837L9.83373 222.01L10.0456 220.835L10.373 220.232L9.79517 220.155L9.85299 219.783L10.1997 219.038L11.4066 215.533L11.2782 211.104L12.5686 205.654L12.5044 203.85L11.6826 199.96L10.8609 197.624L9.39718 195.968L10.0456 193.541L9.99419 191.224L7.40701 187.88L6.41832 183.482L6.23218 181.621L6.48897 176.691L5.81488 174.579L4.08792 171.094L4.82619 168.057L5.62228 166.202L7.56752 158.095L8.03612 157.434L8.84509 157.453L10.2638 156.073L9.60903 155.752L8.62034 156.413L9.49987 153.191L10.4886 150.424L11.1305 149.429L11.4579 140.365L12.0229 133.401L12.9538 131.096L12.6264 128.715L13.0051 125.486L12.7355 122.212L14.7321 106.363L14.4689 104.438L15.0787 101.851L14.5074 95.0142L14.7642 87.3242L14.257 86.3421L14.0002 85.2765L14.4753 85.116L15.3998 86.2393L19.6883 86.2266L22.4231 85.1866L23.4181 85.5268L24.5736 86.939L26.031 87.2215L27.8478 86.9712L27.2957 86.6182L26.4418 86.5218L24.5288 85.2187L23.4438 83.9156L20.0991 84.0055L19.4186 83.171L15.6822 84.0055L14.5266 83.1518L12.4915 83.7038L12.9923 81.2775L12.9024 78.2091L13.0116 75.2178L13.5123 77.4003L14.777 79.7175L15.3869 77.0921L15.8042 73.7799L14.5716 72.509L12.5172 71.5653L11.7789 68.4714L16.6388 65.8266L14.058 65.2681L13.0437 64.0806L11.7918 63.933L11.6955 64.8508L11.291 66.0513L10.8545 64.453L10.7261 62.5722L10.2125 59.3561L8.22235 54.1631L7.01538 47.4038L5.50033 44.053L2.59849 40.8434L1.84097 38.9691L1.14762 34.1996L1.53925 30.5793L1 28.0244L2.3931 28.1721L6.05883 30.1812L10.6233 31.7541L12.0037 32.8965L14.2185 33.744L26.4933 35.0598L27.2957 34.9315L28.8815 34.1162L29.5554 34.219L31.3595 36.0869L32.2647 36.3116L33.4396 36.2152L34.3062 35.8622L35.7892 34.5847L35.9882 35.0598L35.9626 36.2473L36.489 37.9355L37.5739 40.118L37.9848 41.4724L35.7892 45.2855L35.372 45.369L35.3078 44.0786L35.0189 43.8218L30.8844 50.2538L29.4335 53.29L29.2922 54.6574L29.3437 55.4598L29.9214 55.6588L31.2439 55.3442L33.202 54.086L33.2983 53.8099L31.4751 54.2593L30.602 54.2979L30.7239 52.86L30.9294 52.1795L32.1235 50.0484L33.3753 48.7711L35.1536 47.4102L36.1809 46.2868L36.8871 44.6436L38.8644 42.6793L39.2303 42.1336L39.1468 40.5161L39.2687 40.2079L40.2253 40.4262L40.6233 43.2122L40.3859 44.451L38.6781 45.9594L38.4662 46.4923L38.7616 48.5527L38.4984 48.7517L37.85 48.5078L37.651 48.6426L39.2624 50.8764L39.776 52.6097L39.8467 54.1567L39.41 57.1159L38.9414 57.6101L38.1389 57.4305L37.0732 56.5061L36.8357 56.8013L35.9882 59.0993L35.7122 58.9003L35.1857 56.1722L34.8968 55.9669L33.2598 57.2123L32.5985 58.406L32.0336 60.3062L31.3145 61.1983L33.3561 61.3909L35.1986 61.0058L36.6751 61.911L37.176 61.9367L38.5241 61.0508L38.9349 60.4537L40.052 57.5845L40.6105 57.071L41.4387 57.0516L42.2412 56.6216L43.4352 55.0425L43.4867 54.4135L43.0501 50.8764L43.1785 48.8673L42.9538 48.2318L42.421 47.5707L42.4852 46.9287L42.9024 45.8695L42.9345 44.9131L42.5749 44.0594L42.7356 43.0901L43.8654 40.9976L44.0773 40.0732L45.4512 37.9869L45.1045 37.1461L44.0901 36.119L43.4481 35.214L42.8062 33.8017L42.3182 33.3267L42.1578 33.5449L42.8446 35.8557L42.697 36.0099L40.9123 34.7646L40.495 33.9749L40.2767 32.903L40.4308 32.1006L41.3938 31.3047L42.5429 31.0157L42.4467 30.3481L41.0086 28.1786L40.052 27.1901L39.3137 26.7086L38.3187 26.5803L37.8756 26.2271L37.7601 25.7201L37.972 25.0525L38.5049 24.8342L40.0392 25.1038L40.8673 24.6287L40.7902 23.7621L40.5399 23.2808L40.5785 20.1739L39.9942 17.6449L39.6925 17.2147L39.365 17.1698L39.0183 17.5099L38.0555 17.5998L37.4584 16.7718L36.7971 15.167L35.603 11.3411H37.452H45.1366H52.8147H60.4993H68.184H75.8621H83.5467H91.2313H98.9158H106.594H114.279H121.963H129.641H137.326H145.011H152.695H160.373H168.058H175.742H183.421H191.105H198.79H206.474H214.153H221.837H229.522H237.2H244.884H252.569H260.254H267.932H275.616H283.301H290.979H298.664H306.348H314.033H321.711H329.396H337.08H344.758H352.443H360.128H367.806H375.49H383.175H390.86H398.538H406.222H413.907H421.585H429.27H436.954H444.639H452.304H459.989H467.673H475.351H483.036H490.721H498.405H506.083H513.768H521.453H529.131L533.381 11.3797L533.451 5.58317L533.503 1L537.393 1.5585L538.555 2.39301L538.927 2.79088L538.818 4.05558L539.139 7.88769L539.845 11.0716L541.476 14.891L541.483 14.8974L541.617 16.3866L542.15 17.3173L543.132 18.184L546.856 19.2302L553.321 20.4564L556.987 21.8621L557.853 23.4477L559.58 24.0832L562.167 23.775L563.978 23.1139L565.525 21.6374ZM35.7379 20.1096L35.9754 20.7002L35.25 21.2779L34.7364 21.3679L33.9146 20.4434L33.5551 20.328L33.844 21.753L33.7413 22.2408L32.0657 21.3679L31.7575 20.6746L32.2261 19.9429L33.2855 19.1854L33.6513 19.0955L35.7379 20.1096ZM31.5778 24.7764L32.0529 25.6687L30.114 25.0973L29.2987 24.5839L29.0548 24.0832L28.7658 22.4463L28.9008 21.9134L29.7674 21.7273L31.3852 23.7558L31.5778 24.7764ZM35.0381 26.6572L34.7557 26.9268L33.7926 26.5738L33.2277 25.9704L33.0351 25.2194L33.3946 23.775L33.8761 23.4026L34.1778 23.4861L34.3062 24.7572L35.16 26.0987L35.0381 26.6572ZM39.5128 34.0778L40.3923 37.6017L40.771 36.1317L43.2235 38.6739V39.9254L42.9281 40.3427L42.4145 40.4904L41.9458 40.1245L41.5158 39.2451L40.9637 38.783L39.7888 38.4876L39.1789 37.4862L38.9671 36.8058L38.9093 34.8286L38.614 34.2125L37.9913 34.0778L37.3942 33.6092L36.4698 32.2226L36.3413 31.8502L36.7778 30.7205L37.7794 28.8268L38.5049 27.9282L38.9542 28.0244L39.5128 28.5958L40.1803 29.6356L40.052 30.3675L37.3557 31.7989L37.2657 32.1327L38.5754 32.537L39.0569 32.8965L39.5128 34.0778ZM645.208 40.2722L645.119 40.7151L645.773 40.8499L645.651 41.0746L644.939 41.4789L642.923 42.3005L641.575 42.5638L640.881 42.2686L640.811 41.7228L641.357 40.9204V40.5225H640.798L640.933 40.2015L641.761 39.566L648.81 35.5156L651.821 34.0392L653.426 33.5706L653.683 33.8017L651.943 35.3293L651.667 35.9521L651.731 36.3694L651.16 37.1717L646.004 40.0089L645.208 40.2722ZM40.8737 49.1241L40.7774 49.6376L39.7824 49.0277L39.455 48.463L39.4935 47.1983L39.7439 46.3767L39.93 46.2098L40.5142 46.5692L40.6812 46.7812L40.8737 49.1241ZM42.7291 54.4262L42.6456 55.0296L41.9587 55.4982L41.5992 55.3763L41.5736 54.6639L41.3873 54.5547L40.6426 55.4085L40.7005 53.7202L41.0663 51.9421L41.3873 51.91L41.8625 53.0783L42.7291 54.4262ZM658.421 59.3175L658.087 60.1715L658.151 60.6849L655.962 62.9444L655.166 64.3695L654.504 64.5942L653.972 63.6249V62.8417L654.511 62.2511L655.044 61.4103L655.108 60.2484L654.902 59.8247L654.235 60.871L654.607 61.0957L654.716 61.2755L654.588 61.6542L652.071 61.0957L651.32 60.2806L651.449 59.1444L652.29 57.6871L655.313 54.5996L656.649 53.7394L660.436 52.3785L662.523 52.0641H664.622L666.144 52.5133L667.087 53.4056L666.195 53.9962L662.048 54.5032L661.932 54.6639L662.728 55.1516L662.876 55.4982L662.144 56.4034L658.421 59.3175ZM34.4603 59.4717L34.2869 59.9916L34.0301 59.966L33.4652 58.9068L33.3946 58.1622L33.8761 57.6231L34.5245 59.17L34.4603 59.4717ZM618.694 64.1897L618.104 64.6005L617.879 64.4079L618.02 63.5992L618.316 63.1307L618.771 62.9957L618.996 63.1947L618.99 63.7211L618.694 64.1897ZM613.629 66.7831L613.36 66.9692L612.673 66.5263L612.576 66.1604L612.762 65.7944L613.083 65.8779L613.533 66.4107L613.629 66.7831ZM616.537 66.9949L615.934 67.1426L614.643 66.9114L614.663 66.5263L616.004 65.9935L616.601 65.8458L616.743 66.0705L616.537 66.9949ZM613.584 70.5639L612.551 70.9234L612.12 70.8591L612.294 70.3649L612.827 69.7743L615.228 68.298L615.645 68.3237L615.773 68.6767L614.611 69.4021L614.175 69.7872L614.123 70.1915L613.584 70.5639ZM732.095 81.5662V82.1247L731.543 81.9964L731.081 81.6175L730.708 80.9885L730.246 79.4159L729.54 78.2989L730.599 77.0344L731.235 76.8866L731.915 77.1691L732.012 77.9075L731.511 79.1012L731.536 80.3209L732.095 81.5662ZM732.313 84.5897L732.057 84.7309L731.151 83.7167L730.959 83.094L731.093 82.5741L731.44 82.5484L732.005 83.0235L732.326 83.5755L732.397 84.2045L732.313 84.5897ZM743.432 90.6236L743.606 91.2013L743.169 92.0486L741.905 92.4788L739.337 92.4339L737.674 92.1064L736.91 91.503L736.743 91.1886L736.814 90.5145L737.186 90.4697L737.732 90.8354L738.547 90.6814L739.632 90.0009L740.203 89.4874L740.255 89.1472L739.908 88.4925L740.184 88.2165L741.545 88.4733L742.052 88.8968L742.97 90.3604L743.432 90.6236ZM724.449 95.5919L726.754 95.9514L726.978 95.7526L727.633 96.4329L727.736 97.0106L727.46 97.4921L727.055 97.7617L726.535 97.8065L725.701 97.3188L724.34 96.0221L724.449 95.5919ZM706.531 101.202L705.915 101.331L705.446 101.029L705.523 99.8221L706.152 97.7168L706.768 96.7538L707.603 97.1454L707.436 97.4022L707.603 99.6489L707.301 100.631L706.531 101.202ZM682.925 107.609L682.386 107.865L681.397 107.775L681.038 107.198L681.558 105.728L681.77 105.997L682.63 106.017L682.925 106.158L683.022 106.524L682.925 107.609ZM680.582 110.446L680.248 110.773L679.69 110.555L679.471 111.036L679.6 112.211L679.414 112.75L678.919 112.66L678.894 112.879L679.33 113.399L679.375 113.97L679.035 114.593L678.701 114.881L678.386 114.837L677.892 115.543L677.224 117L676.993 117.841L677.205 118.072L677.051 118.56L675.388 120.768L674.746 120.98L674.046 120.671L673.552 120.03L673.263 119.048L673.18 118.29L673.295 117.751L674.759 115.793L675.408 114.515L675.78 113.078L676.454 112.16L677.443 111.762L678.245 110.869L678.855 109.477L679.561 108.873L680.357 109.053L680.704 109.579L680.582 110.446ZM698.879 113.983L698.667 114.342L698.166 114.31L697.768 113.963L697.376 112.84L697.505 112.596L698.474 112.757L698.814 113.232L698.879 113.983ZM1019.39 133.433L1018.34 133.92L1017.19 133.709L1017.21 135.031L1017.09 135.506L1015.81 134.826L1015.35 134.389L1015.38 132.637L1016.51 130.974L1017.37 130.313L1018.47 130.769L1019.32 132.63L1019.39 133.433ZM876.619 134.813L876.054 135.018L875.919 134.723L876.009 134.447L876.478 134.1H877.268L877.178 134.376L876.619 134.813ZM1011.53 136.854L1010.85 137.348L1010.12 137.188L1010.09 135.955L1010.32 135.538L1010.57 135.352L1010.95 135.699L1011.53 136.854ZM873.904 141.996L873.634 142.073L873.66 141.54L873.936 141.193L874.462 141.039L874.449 141.309L873.904 141.996ZM825.838 165.952L825.286 166.793L824.753 166.709L824.361 166.44L824.227 165.907L824.323 165.239L824.798 164.944L826.088 165.201L826.133 165.47L825.838 165.952ZM964.366 203.067L963.473 203.722L962.478 203.606L962.986 202.721L963.178 201.418L963.673 199.986L963.955 199.549L964.539 199.164L964.366 203.067ZM962.132 203.228L961.631 203.671L961.445 202.515L961.798 201.18L962.151 201.154L962.331 201.86L962.132 203.228ZM977.54 205.834L972.577 207.002L971.787 206.251L973.026 205.898L974.587 204.107L975.626 203.902L977.257 204.916L977.54 205.834ZM987.124 208.485L985.738 208.87L982.528 207.991L985.167 207.246L985.597 206.983L985.943 205.885L985.988 205.333L986.99 207.695L987.124 208.485ZM941.511 215.148L940.234 216.682L941.389 216.836L942.384 216.387L943.322 215.475L945.511 214.243L947.379 213.704L947.963 213.588L948.856 214.455L950.621 213.761L952.438 213.37L944.586 217.331L942.981 217.773L940.683 218.954L938.513 219.789L936.953 220.091L929.179 223.018L928.562 223.082L927.895 222.8L921.488 224.302L918.862 224.469L916.467 224.995L918.239 223.782L918.278 223.326L917.854 222.973L916.91 223.076L915.941 224.321L914.394 224.738L914.086 223.384L914.605 222.331L915.305 221.33L916.84 219.757L919.042 218.762L920.159 217.902L920.936 218.659L921.103 217.632L921.7 217.042L922.348 216.721L923.902 216.714L924.743 216.554L925.346 216.214L925.969 216.149L927.676 216.618L929.339 216.483L930.681 215.841L932.08 215.623L935.772 215.482L939.438 215.013L940.908 214.179L943.989 211.829L945.761 211.174L943.001 213.903L941.511 215.148ZM911.274 226.118L910.413 226.214L911.274 223.948L912.853 222.909L913.424 223.127L913.443 223.929L913.225 224.61L912.166 225.669L911.274 226.118ZM912.262 245.876L910.15 249.4L910.105 248.726L912.744 244.348L912.262 245.876ZM890.64 287.132L889.818 287.504L892.566 282.947L894.165 279.114L894.877 277.786L894.184 280.469L892.977 282.934L890.64 287.132ZM885.19 332.708L884.92 333.157L883.72 330.711L884.952 331.501L885.17 332.162L885.19 332.708ZM886.84 346.284L884.426 346.881L884.214 346.688L886.981 345.436L887.854 341.02L887.976 338.979L887.565 335.371L887.578 334.627L888.027 335.789L888.425 339.152L888.278 341.694L887.475 345.398L886.84 346.284ZM882.558 347.382L879.283 348.948L878.911 348.852L881.062 347.735L882.558 347.382ZM869.551 359.347L869.102 359.597L870.751 356.875L874.006 353.416L874.886 352.883L872.177 355.836L869.551 359.347ZM868.787 359.09L868.382 359.141L867.676 358.904L866.701 358.442L866.482 358.102L867.413 358.223L868.787 359.09ZM87.9829 371.588L91.6485 372.698L93.6259 372.166L93.9854 372.698L93.7542 373.167L89.2988 374.002L87.9314 373.417L87.8094 372.615L87.3472 371.845L87.9829 371.588ZM80.3431 372.769L79.3866 372.827L77.9101 372.596L78.43 372.089L79.2453 371.723L79.5085 371.999L80.3431 372.769ZM85.0809 375.067L83.8163 375.369L82.8597 375.086L81.3317 373.02L84.5738 372.744L85.9733 373.642L86.1595 373.892L85.0809 375.067ZM115.633 386.551L116.545 388.13L115.235 387.937L113.868 388.027L113.45 387.167L113.046 385.967L112.77 385.665L111.833 385.556L111.762 385.447L111.653 384.863L111.916 384.587L114.856 385.922L115.633 386.551ZM95.9884 390.165L95.1859 390.204L94.0817 390.005L93.5168 388.849L94.4219 388.772L95.2565 388.932L95.9178 389.838L95.9884 390.165ZM115.588 398.497L114.535 398.69L113.373 398.253L112.372 396.192L111.268 394.581L111.865 394.119L112.757 395.673L114.998 398.035L115.588 398.497ZM780.989 437.692L780.186 442.782L779.84 440.979L779.807 439.232L780.411 438.193L780.989 437.692ZM661.13 452.674L659.544 453.117L657.194 453.072L656.719 452.918L657.657 452.623L660.443 452.225L661.13 452.674ZM652.367 453.432L652.135 453.663L650.537 453.233L649.568 452.828L649.394 452.424L652.071 453.149L652.367 453.432ZM640.361 456.16L640.426 457.123L639.54 456.641L638.23 456.596L638.808 456.269L639.212 455.948L639.418 455.601L641.068 454.401L640.599 455.28L640.361 456.16ZM647.507 461.879L647 462.54L647.5 459.389L646.801 456.731L647.539 457.899L647.783 459.286L647.507 461.879ZM646.396 463.843L645.42 464.922L645.465 464.511L646.184 463.433L646.698 463.009L646.396 463.843ZM718.132 465.288L716.321 466.032L714.363 465.493L715.577 465.39L716.456 465.609L718.684 464.543L719.852 463.741L721.2 463.439L718.132 465.288ZM594.068 468.208L593.4 468.504L590.421 466.719L590.235 465.955L591.705 465.262L592.604 465.326L594.023 466.238L594.543 466.488L594.787 466.854L594.652 467.425L594.068 468.208ZM535.583 475.507L534.684 475.706L538.613 472.548L539.435 471.495L540.487 471.54L538.735 473.305L535.583 475.507ZM504.504 495.791L503.843 495.875L504.665 494.777L506 494.225L508.927 492.113L510.121 491.966L510.744 491.24L511.014 491.131L510.841 492.023L508.491 493.294L504.504 495.791ZM500.004 500.888L499.612 500.939L500.485 499.277L500.646 498.609L502.077 496.504L502.835 496.189L503.15 497.088L501.679 498.564L500.004 500.888ZM803.189 513.489L803.484 514.972L801.828 511.525L799.78 506.113L798.688 501.922L799.427 503.058L800.152 505.401L803.189 513.489ZM493.892 513.052L493.327 514.214L493.481 512.487L494.945 508.553L497.917 503.372L499.169 502.506L495.741 508.187L493.892 513.052ZM497.185 535.936L496.935 536.867L495.446 532.534L493.019 522.7L492.929 517.077L493.314 515.139L493.937 523.085L496.621 533.131L497.185 535.936ZM769.016 528.079L768.99 529.254L768.078 527.283L767.475 525.101L768.342 525.807L769.016 528.079ZM769.85 530.057L769.208 530.583L767.905 530.198L767.199 529.511L766.891 528.169L768.021 529.594L768.425 529.915L769.85 530.057ZM799.677 556.157L796.095 559.873L796.493 558.943L797.892 556.953L798.342 556.015L799.285 555.425L800.165 554.353L800.229 553.095L801.507 552.215L801.924 552.087L799.677 556.157ZM795.055 560.881L794.573 560.977L795.286 560.137L795.485 560.201L795.055 560.881ZM791.614 562.845H791.273L791.44 562.563L792.153 562.004L792.41 562.223L792.384 562.505L791.614 562.845ZM787.742 564.559L786.921 565.028L786.067 564.681L787.004 564.213L789.797 563.712L788.744 564.335L787.742 564.559ZM782.51 565.869L781.971 566.273L781.714 566.145V565.554L780.944 564.245L780.969 563.905L782.728 565.182L782.773 565.529L782.51 565.869ZM778.331 566.864L777.162 567.056L778.106 566.28L778.408 565.098L778.96 566.016L778.954 566.575L778.331 566.864ZM774.415 567.955L773.959 568L773.92 567.698L774.71 567.326L775.237 567.352L775.217 567.762L774.415 567.955Z" fill="#D900C6" stroke="white" stroke-width="0.5"/>
</svg>
