<svg width="166" height="57" viewBox="0 0 166 57" fill="none" xmlns="http://www.w3.org/2000/svg">
<rect x="0.686814" y="0.712094" width="162.634" height="52.6268" rx="11.2173" transform="matrix(0.999848 0.0174524 -0.0186847 0.999825 1.02318 -0.0118622)" fill="#D900C6"/>
<rect x="0.686814" y="0.712094" width="162.634" height="52.6268" rx="11.2173" transform="matrix(0.999848 0.0174524 -0.0186847 0.999825 1.02318 -0.0118622)" stroke="white" stroke-width="1.4"/>
<circle cx="148.192" cy="29.1919" r="4" transform="rotate(2.81998 148.192 29.1919)" fill="white"/>
<g clip-path="url(#clip0_208_627)">
<path fill-rule="evenodd" clip-rule="evenodd" d="M53.1692 27.355L53.2661 21.8003L32.6473 21.4404L32.5503 26.9951L53.1692 27.355ZM19.8085 26.7727C19.5645 25.6162 19.4532 24.3881 19.4759 23.0892L19.4812 22.7855C19.5325 19.8444 20.2802 17.2672 21.7315 15.078C23.1757 12.8567 25.213 11.1575 27.8204 9.97982C30.4355 8.80229 33.4569 8.23944 36.8997 8.29954C40.3426 8.35963 43.1992 8.83322 45.6701 9.72378C48.1642 10.6147 50.0575 11.855 51.3501 13.4525C52.6735 15.0505 53.3204 16.9165 53.2833 19.0424L53.2803 19.2183L45.6302 19.0848L45.6333 18.9089C45.6439 18.3015 45.2602 17.7192 44.4819 17.186C43.7041 16.6208 42.6543 16.1627 41.3321 15.8199C40.0176 15.4771 38.5923 15.2924 37.0716 15.2658C33.8294 15.2093 31.3709 15.8219 29.6883 17.1036C28.0057 18.3853 27.1384 20.2969 27.094 22.8384L27.0848 23.3659C27.061 24.7283 27.2712 25.9099 27.7154 26.9107L19.8085 26.7727Z" fill="white"/>
<path fill-rule="evenodd" clip-rule="evenodd" d="M89.5203 27.9898L89.6172 22.4351L68.9983 22.0752L68.9014 27.6299L89.5203 27.9898ZM56.1596 27.4075C55.9155 26.2509 55.8043 25.0229 55.8269 23.724L55.8323 23.4203C55.8836 20.4792 56.6313 17.902 58.0825 15.7128C59.5267 13.4915 61.5641 11.7922 64.1715 10.6146C66.7866 9.43706 69.8079 8.87421 73.2508 8.9343C76.6937 8.9944 79.5502 9.46798 82.0211 10.3585C84.5152 11.2495 86.4086 12.4897 87.7011 14.0872C89.0245 15.6853 89.6715 17.5513 89.6344 19.6772L89.6313 19.8531L81.9813 19.7195L81.9844 19.5437C81.995 18.9363 81.6113 18.354 80.833 17.8208C80.0552 17.2556 79.0054 16.7975 77.6832 16.4547C76.3687 16.1119 74.9434 15.9272 73.4226 15.9006C70.1805 15.844 67.7219 16.4566 66.0394 17.7384C64.3568 19.0201 63.4894 20.9317 63.4451 23.4732L63.4359 24.0007C63.4121 25.3631 63.6223 26.5447 64.0665 27.5455L56.1596 27.4075Z" fill="white"/>
<path fill-rule="evenodd" clip-rule="evenodd" d="M92.5218 28.0422L100.429 28.1802C99.9849 27.1795 99.7746 25.9978 99.7984 24.6355L99.8076 24.108C99.8519 21.5665 100.719 19.6549 102.402 18.3732C104.084 17.0914 106.543 16.4788 109.785 16.5354C111.306 16.5619 112.731 16.7467 114.046 17.0894C115.367 17.4323 116.417 17.8903 117.195 18.4556C117.974 18.9887 118.357 19.571 118.347 20.1784L118.344 20.3543L125.994 20.4878L125.997 20.312C126.034 18.1861 125.387 16.32 124.063 14.722C122.771 13.1245 120.878 11.8843 118.384 10.9933C115.913 10.1028 113.056 9.62916 109.613 9.56907C106.17 9.50897 103.149 10.0718 100.533 11.2493C97.9261 12.427 95.8888 14.1263 94.4448 16.3475C92.9935 18.5368 92.2459 21.1139 92.1946 24.055L92.1893 24.3587C92.1666 25.6576 92.2779 26.8857 92.5218 28.0422Z" fill="white"/>
<path d="M24.4354 35.0872C23.8201 35.6813 23.5042 36.4482 23.4878 37.3877C23.4714 38.3273 23.7603 39.1047 24.3545 39.72C24.9595 40.3355 25.6994 40.6508 26.5741 40.6661C27.2437 40.6778 27.8405 40.5208 28.3648 40.1951C28.8889 39.8693 29.253 39.4328 29.457 38.8854L25.8285 38.8221L25.8715 36.3599L32.4806 36.4753C32.5189 36.7568 32.5329 37.1891 32.5228 37.7723C32.4939 39.4245 31.8976 40.7861 30.7338 41.8568C29.5809 42.9277 28.1783 43.4488 26.526 43.4199C24.8738 43.3911 23.4851 42.8051 22.36 41.662C21.2459 40.5083 20.7039 39.0675 20.734 37.3396C20.7642 35.6118 21.356 34.1962 22.5096 33.0929C23.6741 31.9789 25.0824 31.4364 26.7347 31.4652C27.8794 31.4852 28.9166 31.7842 29.8464 32.3621C30.7869 32.9403 31.4863 33.7141 31.9447 34.6835L29.4437 35.9361C29.1936 35.4133 28.8227 35.0017 28.331 34.7014C27.8395 34.3904 27.2914 34.2296 26.6866 34.219C25.8119 34.2038 25.0615 34.4931 24.4354 35.0872ZM40.5955 35.3692C39.9802 35.9634 39.6643 36.7303 39.6479 37.6698C39.6315 38.6094 39.9205 39.3867 40.5146 40.0021C41.1197 40.6176 41.8595 40.9329 42.7342 40.9482C43.4038 40.9599 44.0007 40.8029 44.5249 40.4771C45.0491 40.1514 45.4131 39.7149 45.6172 39.1675L41.9886 39.1041L42.0316 36.642L48.6407 36.7573C48.679 37.0388 48.6931 37.4712 48.6829 38.0544C48.6541 39.7066 48.0577 41.0682 46.894 42.1389C45.741 43.2098 44.3384 43.7308 42.6862 43.702C41.0339 43.6731 39.6452 43.0871 38.5201 41.9441C37.406 40.7904 36.864 39.3496 36.8942 37.6217C36.9244 35.8939 37.5162 34.4782 38.6697 33.3749C39.8342 32.261 41.2426 31.7185 42.8948 31.7473C44.0395 31.7673 45.0768 32.0662 46.0065 32.6442C46.947 33.2224 47.6465 33.9961 48.1049 34.9656L45.6038 36.2182C45.3537 35.6954 44.9828 35.2838 44.4911 34.9835C43.9996 34.6725 43.4515 34.5117 42.8468 34.5011C41.9721 34.4858 41.2217 34.7752 40.5955 35.3692ZM51.5395 38.7524L57.614 38.8584L57.5693 41.4178L51.4949 41.3118L51.5395 38.7524ZM51.5527 43.5651L48.3778 43.5097L52.8198 32.2446L56.4483 32.3079L60.5268 43.7217L57.3519 43.6663L54.6334 35.0957L51.5527 43.5651ZM67.8886 32.5076L67.8411 35.229L64.6014 35.1725L64.451 43.7902L61.6972 43.7422L61.8476 35.1244L58.6079 35.0679L58.6554 32.3465L67.8886 32.5076ZM71.2674 36.8606L76.3863 36.95L76.3388 39.6714L71.2199 39.582L71.1919 41.1857L76.6995 41.2818L76.652 44.0032L68.3907 43.859L68.5886 32.5199L76.85 32.6641L76.8025 35.3854L71.2949 35.2893L71.2674 36.8606ZM81.9183 41.4539C81.416 40.527 81.1745 39.5073 81.1939 38.395C81.2133 37.2827 81.4901 36.2775 82.0243 35.3794C82.5587 34.4705 83.284 33.7648 84.2002 33.2623C85.1165 32.749 86.1255 32.5019 87.227 32.5211C88.4581 32.5426 89.5645 32.9022 90.5461 33.5999C91.539 34.287 92.284 35.2182 92.7818 36.3936L89.9791 37.3168C89.7307 36.686 89.3558 36.1933 88.8543 35.8389C88.3529 35.4737 87.7891 35.2856 87.1627 35.2746C86.2664 35.259 85.5103 35.5591 84.8947 36.1749C84.2792 36.7799 83.9635 37.5359 83.9477 38.443C83.9318 39.3502 84.2209 40.1222 84.8147 40.7591C85.4087 41.3852 86.1484 41.706 87.034 41.7214C87.6927 41.7329 88.2846 41.5542 88.8095 41.1853C89.3345 40.8164 89.7324 40.2994 90.0029 39.6344L92.7889 40.6391C92.2708 41.8399 91.493 42.7877 90.4548 43.4825C89.4272 44.1667 88.2818 44.4979 87.0183 44.4758C85.9168 44.4566 84.917 44.1799 84.0189 43.6457C83.121 43.1007 82.4208 42.3701 81.9183 41.4539ZM96.0704 38.6222C96.0538 39.5726 96.3423 40.3608 96.9365 40.9869C97.5303 41.6022 98.2705 41.9176 99.1558 41.933C100.041 41.9485 100.792 41.6591 101.407 41.065C102.022 40.4599 102.339 39.6823 102.356 38.7319C102.372 37.8033 102.077 37.0365 101.472 36.4318C100.878 35.8165 100.143 35.5012 99.2683 35.4859C98.3936 35.4707 97.6435 35.76 97.0174 36.3541C96.402 36.9374 96.0866 37.6935 96.0704 38.6222ZM93.3164 38.5742C93.3466 36.8463 93.9383 35.4361 95.0914 34.3436C96.2561 33.2405 97.6644 32.7033 99.3164 32.7321C100.969 32.761 102.352 33.3469 103.466 34.4898C104.592 35.6221 105.139 37.0522 105.109 38.78C105.078 40.5187 104.481 41.945 103.317 43.0589C102.163 44.173 100.76 44.7157 99.1077 44.6868C97.4557 44.658 96.0671 44.0666 94.9419 42.9127C93.8279 41.759 93.2861 40.3129 93.3164 38.5742ZM105.821 44.5124L106.019 33.1732L109.145 33.2278L112.863 40.2117L112.984 33.2948L115.738 33.3428L115.54 44.682L112.414 44.6274L108.695 37.6435L108.574 44.5604L105.821 44.5124ZM119.554 37.7035L124.672 37.7928L124.625 40.5142L119.506 40.4249L119.431 44.7499L116.677 44.7019L116.875 33.3627L125.136 33.5069L125.089 36.2283L119.581 36.1322L119.554 37.7035Z" fill="white"/>
</g>
<defs>
<clipPath id="clip0_208_627">
<rect width="107.322" height="42.3639" fill="white" transform="translate(19.7393 8) rotate(1)"/>
</clipPath>
</defs>
</svg>
