<svg width="287" height="119" viewBox="0 0 287 119" fill="none" xmlns="http://www.w3.org/2000/svg">
<rect x="2.08426" y="1.90945" width="267.684" height="92.1745" rx="19.2142" transform="matrix(0.999016 -0.0443428 0.0431115 0.99907 0.47515 22.1411)" fill="#D900C6"/>
<rect x="2.08426" y="1.90945" width="267.684" height="92.1745" rx="19.2142" transform="matrix(0.999016 -0.0443428 0.0431115 0.99907 0.47515 22.1411)" stroke="white" stroke-width="4"/>
<ellipse cx="7.06436" cy="6.99149" rx="7.06436" ry="6.99149" transform="matrix(0.996781 0.0801761 -0.0838886 0.996475 241.173 33)" fill="white"/>
<ellipse cx="7.06436" cy="6.99149" rx="7.06436" ry="6.99149" transform="matrix(0.996781 0.0801761 -0.0838886 0.996475 242.173 68)" fill="white"/>
<g clip-path="url(#clip0_612_4)">
<path fill-rule="evenodd" clip-rule="evenodd" d="M93.1325 64.3389L92.7201 55.0477L58.2313 56.5785L58.6437 65.8698L93.1325 64.3389ZM37.3307 66.8158C36.8033 64.9086 36.4904 62.8682 36.394 60.6955L36.3714 60.1875C36.1531 55.268 37.1358 50.8845 39.3344 47.0766C41.5177 43.2157 44.7462 40.1658 48.981 37.9284C53.2287 35.6905 58.2189 34.4376 63.9777 34.182C69.7366 33.9264 74.5585 34.4223 78.7793 35.6548C83.0386 36.8856 86.3305 38.762 88.6554 41.2976C91.0318 43.8309 92.3058 46.8819 92.4637 50.4379L92.4767 50.732L79.6806 51.3L79.6676 51.0058C79.6225 49.9898 78.9212 49.0566 77.5656 48.2461C76.2076 47.3821 74.406 46.7253 72.1614 46.2892C69.9296 45.8524 67.529 45.6912 64.9852 45.8041C59.5621 46.0448 55.5176 47.3226 52.8387 49.6383C50.1599 51.9539 48.9083 55.2376 49.097 59.4887L49.1362 60.3711C49.2373 62.6499 49.7107 64.6025 50.5564 66.2287L37.3307 66.8158Z" fill="white"/>
<path fill-rule="evenodd" clip-rule="evenodd" d="M153.937 61.6397L153.524 52.3485L119.035 53.8793L119.448 63.1706L153.937 61.6397ZM98.1349 64.1166C97.6075 62.2094 97.2946 60.1689 97.1982 57.9963L97.1757 57.4883C96.9573 52.5688 97.9401 48.1853 100.139 44.3773C102.322 40.5165 105.55 37.4666 109.785 35.2292C114.033 32.9913 119.023 31.7384 124.782 31.4828C130.541 31.2271 135.363 31.7231 139.583 32.9556C143.843 34.1863 147.135 36.0628 149.46 38.5984C151.836 41.1317 153.11 44.1826 153.268 47.7386L153.281 48.0328L140.485 48.6008L140.472 48.3066C140.427 47.2906 139.725 46.3573 138.37 45.5469C137.012 44.6829 135.21 44.0261 132.966 43.59C130.734 43.1532 128.333 42.9919 125.789 43.1048C120.366 43.3456 116.322 44.6234 113.643 46.9391C110.964 49.2547 109.713 52.5384 109.901 56.7895L109.94 57.6719C110.042 59.9506 110.515 61.9033 111.361 63.5295L98.1349 64.1166Z" fill="white"/>
<path fill-rule="evenodd" clip-rule="evenodd" d="M158.957 61.4173L172.183 60.8303C171.338 59.204 170.865 57.2514 170.763 54.9726L170.724 54.0903C170.536 49.8391 171.787 46.5554 174.466 44.2398C177.145 41.9242 181.189 40.6463 186.613 40.4056C189.156 40.2927 191.557 40.454 193.789 40.8908C196.032 41.3269 197.834 41.9837 199.193 42.8477C200.548 43.6581 201.25 44.5914 201.295 45.6074L201.308 45.9015L214.103 45.3336L214.09 45.0394C213.933 41.4834 212.659 38.4324 210.282 35.8992C207.957 33.3636 204.666 31.4871 200.406 30.2563C196.186 29.0238 191.363 28.5279 185.605 28.7835C179.846 29.0392 174.856 30.292 170.607 32.53C166.373 34.7674 163.144 37.8173 160.961 41.6781C158.763 45.4861 157.78 49.8696 157.998 54.7891L158.021 55.2971C158.117 57.4697 158.43 59.5102 158.957 61.4173Z" fill="white"/>
<path d="M45.9211 80.2288C44.9545 81.2852 44.506 82.5992 44.5758 84.1707C44.6455 85.7423 45.2086 87.0113 46.2651 87.9781C47.3396 88.9439 48.6084 89.3943 50.0715 89.3294C51.1916 89.2796 52.1726 88.9556 53.0148 88.3571C53.8569 87.7587 54.4202 86.9916 54.7045 86.0559L48.6351 86.3253L48.4523 82.2068L59.5072 81.7162C59.6003 82.1826 59.6685 82.9035 59.7118 83.879C59.8345 86.6427 58.9789 88.9793 57.1451 90.8887C55.3294 92.7973 53.0398 93.8129 50.276 93.9356C47.5123 94.0583 45.1314 93.2227 43.1333 91.4291C41.1524 89.6166 40.0978 87.2654 39.9696 84.3752C39.8413 81.485 40.6838 79.0585 42.4971 77.0957C44.3276 75.114 46.6247 74.0619 49.3884 73.9392C51.3032 73.8542 53.0672 74.2464 54.6804 75.1161C56.3117 75.9849 57.5604 77.2054 58.4266 78.7778L54.3772 81.1294C53.9052 80.2816 53.2429 79.6322 52.3903 79.1814C51.5369 78.7126 50.6045 78.5005 49.5929 78.5454C48.1298 78.6104 46.9058 79.1714 45.9211 80.2288ZM72.9519 79.029C71.9853 80.0854 71.5367 81.3994 71.6065 82.9709C71.6763 84.5425 72.2395 85.8115 73.2959 86.7783C74.3705 87.7441 75.6393 88.1945 77.1024 88.1296C78.2224 88.0798 79.2034 87.7558 80.0456 87.1573C80.8878 86.5589 81.451 85.7918 81.7353 84.8561L75.6659 85.1255L75.4831 81.007L86.538 80.5164C86.6311 80.9828 86.6993 81.7037 86.7426 82.6792C86.8653 85.4429 86.0097 87.7795 84.1759 89.6889C82.3602 91.5975 80.0706 92.6131 77.3068 92.7358C74.5432 92.8585 72.1622 92.0229 70.1641 90.2293C68.1832 88.4168 67.1287 86.0656 67.0004 83.1754C66.8721 80.2852 67.7146 77.8587 69.5279 75.8959C71.3584 73.9142 73.6556 72.8621 76.4192 72.7394C78.334 72.6544 80.098 73.0466 81.7113 73.9162C83.3425 74.7851 84.5912 76.0056 85.4574 77.578L81.408 79.9296C80.936 79.0818 80.2737 78.4324 79.4211 77.9816C78.5677 77.5128 77.6353 77.3007 76.6237 77.3456C75.1606 77.4106 73.9367 77.9716 72.9519 79.029ZM91.5879 83.5501L101.749 83.0991L101.939 87.3801L91.7779 87.8311L91.5879 83.5501ZM92.1076 91.5902L86.797 91.8259L93.0541 72.544L99.1234 72.2746L107.118 90.9239L101.808 91.1596L96.3793 77.1203L92.1076 91.5902ZM118.259 71.4252L118.461 75.9772L113.042 76.2178L113.682 90.6326L109.076 90.837L108.436 76.4222L103.017 76.6627L102.815 72.1107L118.259 71.4252ZM124.355 78.3491L132.917 77.9691L133.119 82.5211L124.557 82.9012L124.676 85.5836L133.889 85.1747L134.091 89.7267L120.272 90.3401L119.43 71.3732L133.249 70.7599L133.451 75.3119L124.239 75.7208L124.355 78.3491ZM142.626 84.9225C141.691 83.4257 141.182 81.7469 141.1 79.8863C141.017 78.0258 141.376 76.3176 142.175 74.7618C142.974 73.1879 144.113 71.9337 145.592 70.9994C147.07 70.0469 148.73 69.5297 150.573 69.448C152.632 69.3566 154.518 69.843 156.23 70.9072C157.96 71.9526 159.301 73.4315 160.255 75.3439L155.667 77.1764C155.187 76.148 154.51 75.3636 153.635 74.8233C152.76 74.2648 151.798 74.0089 150.75 74.0554C149.251 74.1219 148.019 74.7015 147.054 75.7942C146.088 76.8686 145.639 78.1645 145.706 79.6819C145.773 81.1993 146.336 82.4593 147.394 83.4621C148.451 84.4468 149.721 84.9063 151.202 84.8405C152.304 84.7916 153.274 84.4318 154.113 83.7611C154.952 83.0904 155.564 82.1855 155.947 81.0463L160.706 82.4369C159.964 84.4969 158.763 86.161 157.1 87.4294C155.454 88.6789 153.574 89.3506 151.46 89.4444C149.618 89.5261 147.919 89.1672 146.363 88.3675C144.806 87.5497 143.561 86.4014 142.626 84.9225ZM165.98 78.7277C166.051 80.3173 166.614 81.6045 167.672 82.5892C168.728 83.5559 169.997 84.0063 171.478 83.9406C172.959 83.8748 174.183 83.3137 175.15 82.2573C176.115 81.1827 176.564 79.8507 176.493 78.261C176.424 76.7076 175.853 75.457 174.779 74.5092C173.722 73.5425 172.462 73.0917 170.999 73.1566C169.536 73.2216 168.313 73.7826 167.328 74.84C166.36 75.8783 165.911 77.1743 165.98 78.7277ZM161.374 78.9321C161.245 76.042 162.088 73.6246 163.902 71.6798C165.734 69.7162 168.031 68.673 170.795 68.5504C173.559 68.4277 175.93 69.2636 177.91 71.0581C179.908 72.8336 180.97 75.1665 181.098 78.0566C181.228 80.9649 180.378 83.4098 178.547 85.3915C176.734 87.3723 174.447 88.4241 171.682 88.5468C168.919 88.6694 166.538 87.8249 164.538 86.0133C162.558 84.2008 161.503 81.8404 161.374 78.9321ZM182.881 87.5611L182.039 68.5942L187.268 68.3622L194.203 79.6469L193.689 68.0771L198.296 67.8727L199.138 86.8395L193.909 87.0716L186.973 75.7869L187.486 87.3567L182.881 87.5611ZM205.123 74.7641L213.684 74.3841L213.886 78.9362L205.325 79.3162L205.646 86.5506L201.04 86.7551L200.198 67.7882L214.016 67.1749L214.218 71.7269L205.007 72.1358L205.123 74.7641Z" fill="white"/>
</g>
<rect x="253.255" y="1.255" width="32.49" height="33.49" rx="16.245" fill="white"/>
<rect x="253.255" y="1.255" width="32.49" height="33.49" rx="16.245" stroke="#D900C6" stroke-width="2.51"/>
<path d="M267.978 19.3259H259.324L260.018 20.0388L262.791 21.4652H266.558L267.978 19.3259ZM277.437 17.5433C277.437 17.5433 276.657 18.613 276.917 19.3259H273.192L271.713 21.4652H277.35L278.91 21.3759L279.43 19.7714L277.437 17.5433ZM264.698 23.7827H269.637L268.511 25.922H263.658L264.698 23.7827ZM264.611 10.4119L266.171 12.2838H270.504L269.031 10.0557L264.611 10.4119ZM259.584 13.9776C259.584 13.9776 262.097 13.7995 262.791 15.0473L263.224 14.6905L262.271 12.2838L259.671 11.8383L259.584 13.9776Z" fill="#C0EAFF"/>
<path d="M278.172 21.9255H271.896C271.758 21.9255 271.626 21.8691 271.528 21.7688C271.431 21.6685 271.376 21.5325 271.376 21.3907C271.376 21.2488 271.431 21.1128 271.528 21.0125C271.626 20.9122 271.758 20.8558 271.896 20.8558H278.172C278.345 20.8554 278.514 20.8019 278.657 20.7023C278.8 20.6027 278.911 20.4614 278.975 20.2966C279.04 20.1318 279.055 19.9509 279.019 19.7771C278.983 19.6033 278.898 19.4444 278.774 19.3209L274.899 15.4845H263.079C263.011 15.4845 262.943 15.4707 262.88 15.4438C262.817 15.4169 262.76 15.3775 262.712 15.3279C262.663 15.2782 262.625 15.2192 262.599 15.1544C262.573 15.0895 262.559 15.0199 262.559 14.9497V14.5111C262.562 14.1499 262.478 13.7935 262.316 13.4731C262.154 13.1526 261.918 12.8778 261.629 12.6724C261.392 12.499 261.123 12.3769 260.838 12.3136C260.553 12.2502 260.259 12.2469 259.974 12.3039V19.5187L262.863 20.8558H263.902C264.04 20.8558 264.173 20.9122 264.27 21.0125C264.368 21.1128 264.422 21.2488 264.422 21.3907C264.422 21.5325 264.368 21.6685 264.27 21.7688C264.173 21.8691 264.04 21.9255 263.902 21.9255H262.751C262.677 21.9255 262.605 21.9094 262.537 21.8784L259.24 20.352C259.149 20.3096 259.071 20.241 259.017 20.1545C258.963 20.068 258.934 19.9672 258.934 19.8643V11.8985C258.934 11.6738 259.07 11.4727 259.276 11.3957C259.762 11.2102 260.285 11.1498 260.799 11.2196C261.313 11.2894 261.803 11.4874 262.226 11.7963C262.639 12.0902 262.979 12.4808 263.218 12.9359C263.456 13.3911 263.586 13.8979 263.598 14.4148H275.108C275.243 14.4148 275.372 14.4683 275.469 14.5646L279.494 18.5507C279.679 18.7338 279.826 18.9532 279.926 19.1959C280.027 19.4385 280.079 19.6995 280.079 19.9632C280.079 20.4834 279.878 20.9822 279.52 21.3501C279.163 21.718 278.678 21.9249 278.172 21.9255Z" fill="#1F87DD"/>
<path d="M268.267 26.3323H263.575C263.478 26.3322 263.384 26.3047 263.302 26.2526C263.22 26.2005 263.153 26.1261 263.11 26.0375C263.067 25.9489 263.048 25.8496 263.057 25.7509C263.065 25.6521 263.1 25.5577 263.158 25.4781L267.722 19.1794C267.762 19.1212 267.813 19.0718 267.872 19.0342C267.931 18.9966 267.997 18.9714 268.065 18.9603C268.134 18.9491 268.203 18.9522 268.271 18.9693C268.338 18.9864 268.401 19.0171 268.457 19.0598C268.513 19.1024 268.559 19.156 268.595 19.2175C268.63 19.279 268.653 19.3471 268.662 19.4178C268.671 19.4885 268.666 19.5604 268.648 19.6292C268.63 19.698 268.598 19.7624 268.556 19.8185L264.61 25.2631H268.021L272.732 19.3565C272.82 19.2504 272.946 19.1843 273.081 19.1721C273.217 19.16 273.351 19.2028 273.456 19.2914C273.561 19.38 273.628 19.5074 273.643 19.6463C273.658 19.7852 273.62 19.9246 273.536 20.0346L268.669 26.1371C268.62 26.1981 268.559 26.2473 268.489 26.2811C268.42 26.3148 268.344 26.3323 268.267 26.3323ZM272.885 15.2864C272.808 15.2865 272.732 15.269 272.663 15.2351C272.593 15.2013 272.532 15.1519 272.483 15.0906L269.011 10.7371H265.6L267.357 13.1615C267.4 13.2176 267.431 13.282 267.449 13.3508C267.468 13.4196 267.472 13.4915 267.463 13.5622C267.454 13.6329 267.431 13.701 267.396 13.7625C267.361 13.824 267.314 13.8776 267.259 13.9203C267.203 13.9629 267.14 13.9937 267.072 14.0108C267.005 14.0278 266.935 14.0309 266.866 14.0197C266.798 14.0086 266.732 13.9835 266.673 13.9458C266.615 13.9082 266.564 13.8588 266.523 13.8006L264.148 10.5221C264.09 10.4426 264.055 10.3482 264.046 10.2493C264.038 10.1505 264.056 10.0512 264.1 9.96248C264.143 9.87381 264.209 9.79929 264.291 9.74727C264.374 9.69526 264.468 9.6678 264.565 9.66797H269.257C269.334 9.668 269.41 9.68557 269.48 9.71941C269.549 9.75326 269.611 9.80255 269.659 9.86372L273.288 14.413C273.35 14.4913 273.39 14.5863 273.402 14.6868C273.414 14.7874 273.398 14.8894 273.356 14.9809C273.314 15.0725 273.247 15.1498 273.164 15.2039C273.08 15.258 272.984 15.2866 272.885 15.2864Z" fill="#1F87DD"/>
<path d="M270.351 12.4642H265.881C265.743 12.4642 265.611 12.4078 265.513 12.3075C265.416 12.2072 265.361 12.0712 265.361 11.9294C265.361 11.7875 265.416 11.6515 265.513 11.5512C265.611 11.4509 265.743 11.3945 265.881 11.3945H270.351C270.489 11.3945 270.621 11.4509 270.719 11.5512C270.816 11.6515 270.871 11.7875 270.871 11.9294C270.871 12.0712 270.816 12.2072 270.719 12.3075C270.621 12.4078 270.489 12.4642 270.351 12.4642ZM269.671 24.5108H265.201C265.063 24.5108 264.931 24.4544 264.833 24.3541C264.736 24.2538 264.681 24.1178 264.681 23.9759C264.681 23.8341 264.736 23.698 264.833 23.5977C264.931 23.4974 265.063 23.4411 265.201 23.4411H269.671C269.809 23.4411 269.941 23.4974 270.039 23.5977C270.136 23.698 270.191 23.8341 270.191 23.9759C270.191 24.1178 270.136 24.2538 270.039 24.3541C269.941 24.4544 269.809 24.5108 269.671 24.5108ZM267.942 17.7088H267.484C267.346 17.7088 267.214 17.6524 267.116 17.5521C267.019 17.4518 266.964 17.3158 266.964 17.1739C266.964 17.0321 267.019 16.896 267.116 16.7957C267.214 16.6954 267.346 16.6391 267.484 16.6391H267.942C268.08 16.6391 268.212 16.6954 268.309 16.7957C268.407 16.896 268.462 17.0321 268.462 17.1739C268.462 17.3158 268.407 17.4518 268.309 17.5521C268.212 17.6524 268.08 17.7088 267.942 17.7088ZM270.91 17.7088H270.453C270.315 17.7088 270.182 17.6524 270.085 17.5521C269.987 17.4518 269.933 17.3158 269.933 17.1739C269.933 17.0321 269.987 16.896 270.085 16.7957C270.182 16.6954 270.315 16.6391 270.453 16.6391H270.91C271.048 16.6391 271.18 16.6954 271.278 16.7957C271.375 16.896 271.43 17.0321 271.43 17.1739C271.43 17.3158 271.375 17.4518 271.278 17.5521C271.18 17.6524 271.048 17.7088 270.91 17.7088ZM264.974 17.7088H264.516C264.378 17.7088 264.246 17.6524 264.148 17.5521C264.051 17.4518 263.996 17.3158 263.996 17.1739C263.996 17.0321 264.051 16.896 264.148 16.7957C264.246 16.6954 264.378 16.6391 264.516 16.6391H264.974C265.112 16.6391 265.244 16.6954 265.341 16.7957C265.439 16.896 265.494 17.0321 265.494 17.1739C265.494 17.3158 265.439 17.4518 265.341 17.5521C265.244 17.6524 265.112 17.7088 264.974 17.7088ZM277.129 17.7088H273.791C273.653 17.7088 273.521 17.6524 273.424 17.5521C273.326 17.4518 273.271 17.3158 273.271 17.1739C273.271 17.0321 273.326 16.896 273.424 16.7957C273.521 16.6954 273.653 16.6391 273.791 16.6391H277.129C277.267 16.6391 277.399 16.6954 277.496 16.7957C277.594 16.896 277.649 17.0321 277.649 17.1739C277.649 17.3158 277.594 17.4518 277.496 17.5521C277.399 17.6524 277.267 17.7088 277.129 17.7088Z" fill="#1F87DD"/>
<defs>
<clipPath id="clip0_612_4">
<rect width="179.665" height="70.9204" fill="white" transform="translate(35.2737 35.4561) rotate(-2.54149)"/>
</clipPath>
</defs>
</svg>
