<svg width="270" height="40" viewBox="0 0 270 40" fill="none" xmlns="http://www.w3.org/2000/svg">
<g clip-path="url(#clip0_209_5239)">
<path d="M184.299 17.8005C185.314 17.8005 185.981 18.835 185.549 19.7483L183.106 24.9673L181.35 28.7324L181.228 28.9934L181.012 29.4501L180.467 30.615L177.076 37.875L176.832 38.3969C176.381 39.3662 175.404 39.9906 174.324 39.9906H166.49C165.485 39.9906 164.818 38.9561 165.232 38.0428L165.316 37.8657L168.707 30.6057L169.252 29.4407L169.468 28.9841L169.59 28.7231L171.346 24.958L172.906 21.6215C173.328 20.7082 172.661 19.6737 171.656 19.6737H170.595C169.515 19.6737 168.538 20.2888 168.087 21.2674L166.359 24.9673L164.978 27.9216L164.593 28.7324L163.963 30.0838L163.719 30.6057L160.516 37.465L160.328 37.8657L160.14 38.2665L160.075 38.4063C159.624 39.3755 158.647 39.9906 157.567 39.9906H149.733C148.728 39.9906 148.061 38.9561 148.474 38.0428L148.559 37.8657L151.292 32.013L151.95 30.6057L152.194 30.0838L152.823 28.7324L154.58 24.9673L156.139 21.6309C156.562 20.7175 155.895 19.683 154.89 19.683H153.819C152.739 19.683 151.762 20.2981 151.311 21.2767L149.583 24.9766L147.854 28.6765L147.826 28.7418L146.953 30.615L143.318 38.4063C142.867 39.3755 141.89 39.9906 140.81 39.9906H132.976C131.971 39.9906 131.294 38.9561 131.727 38.0428L131.811 37.8657L135.202 30.6057L136.076 28.7324L137.832 24.9673L140.302 19.683L140.443 19.3941C140.894 18.4249 141.871 17.8098 142.951 17.8098H169.684L169.571 18.0614L169.693 17.8098H184.271L184.299 17.8005Z" fill="white"/>
<path d="M101.744 17.8099C102.759 17.8099 103.426 18.8444 102.994 19.7577L101.294 23.383C100.843 24.3523 99.8659 24.9674 98.7857 24.9674H88.7915L90.3507 21.6309C90.7734 20.7176 90.1065 19.6831 89.1015 19.6831H88.04C86.9598 19.6831 85.983 20.2982 85.5321 21.2768L83.8038 24.9767L82.0473 28.7418V28.7605L81.1737 30.6151L81.1362 30.6896L78.694 35.9273C78.2713 36.8406 78.9382 37.8751 79.9432 37.8751H81.0047C82.0849 37.8751 83.0617 37.26 83.5126 36.2908L86.1614 30.6244L86.3681 30.1864L87.0444 28.7418H98.8045L98.1282 30.1864L97.9215 30.6244L94.5306 37.8844L94.2864 38.4063C93.8355 39.3756 92.8587 40 91.7785 40H67.2063C66.2012 40 65.5249 38.9655 65.957 38.0522L66.0322 37.8844L69.423 30.6244L70.2872 28.7698V28.7512H70.2966L72.0531 24.986L74.5235 19.7018L74.655 19.4129C75.1058 18.4436 76.0827 17.8192 77.1629 17.8192H101.735L101.744 17.8099Z" fill="white"/>
<path d="M110.084 17.8098C109.013 17.8098 108.036 18.4249 107.576 19.3942L107.52 19.506L107.435 19.6831L104.965 24.9673L103.208 28.7325L102.335 30.6057L101.893 31.5377L98.9345 37.8657L98.8594 38.0335C98.4367 38.9468 99.1036 39.9813 100.109 39.9813H124.681C125.761 39.9813 126.738 39.3569 127.189 38.3876L127.433 37.8657L129.565 33.3084L130.241 31.8546L130.824 30.6057L131.697 28.7325L133.454 24.9673L135.182 21.2674L135.924 19.6738C136.338 18.7977 135.689 17.8005 134.713 17.8005H110.056L110.084 17.8098ZM121.722 24.9673L119.966 28.7325L119.092 30.6057L117.833 33.3084L116.443 36.2721C115.992 37.2413 115.015 37.8564 113.935 37.8564H112.874C111.859 37.8564 111.192 36.8219 111.624 35.9086L113.672 31.5284L114.104 30.5964L114.987 28.7231L116.744 24.958L118.472 21.2581C118.923 20.2889 119.9 19.6738 120.98 19.6738H122.041C123.046 19.6738 123.723 20.7082 123.291 21.6216L121.731 24.958L121.722 24.9673Z" fill="white"/>
<path d="M225.561 17.8098C224.49 17.8098 223.504 18.4249 223.053 19.3941L222.996 19.506L222.912 19.683L220.442 24.9673L218.685 28.7324L217.811 30.6057L217.37 31.5377L214.411 37.8657L214.336 38.0335C213.913 38.9468 214.58 39.9813 215.595 39.9813H240.167C241.247 39.9813 242.224 39.3569 242.675 38.3876L242.919 37.8657L245.051 33.3084L245.728 31.8545L246.31 30.6057L247.183 28.7324L248.94 24.9673L250.668 21.2674L251.382 19.7483C251.805 18.835 251.138 17.8005 250.133 17.8005H225.551L225.561 17.8098ZM237.189 24.9673L235.433 28.7324L234.559 30.6057L233.301 33.3084L231.91 36.2721C231.46 37.2413 230.483 37.8564 229.402 37.8564H228.341C227.327 37.8564 226.66 36.8219 227.092 35.9086L229.139 31.5283L229.572 30.5964L230.454 28.7231L232.211 24.958L233.939 21.2581C234.39 20.2888 235.367 19.6737 236.447 19.6737H237.509C238.514 19.6737 239.19 20.7082 238.767 21.6215L237.208 24.958L237.189 24.9673Z" fill="white"/>
<path d="M11.3445 17.8099C10.2643 17.8099 9.28743 18.4343 8.83657 19.4035L8.70506 19.6924L7.14582 23.0289C6.72313 23.9329 7.39004 24.9767 8.39509 24.9767H17.9854L18.2014 24.5293L19.7231 21.2768C20.174 20.3075 21.1508 19.6924 22.231 19.6924H23.2924C24.2975 19.6924 24.9738 20.7269 24.5417 21.6402L22.9825 24.9767L22.6913 25.5918L21.968 27.1482C21.5172 28.1174 20.5403 28.7325 19.4601 28.7325H6.24409C5.16389 28.7325 4.18701 29.3569 3.73615 30.3262L3.60465 30.6151L0.204366 37.8658L0.129222 38.0335C-0.293465 38.9468 0.373441 39.9813 1.38789 39.9813H25.9601C27.0403 39.9813 28.0171 39.3569 28.468 38.3877L28.7122 37.8658L32.1031 30.6058L32.9767 28.7325L34.442 25.5918L34.7332 24.9767L34.9398 24.5293L37.166 19.7577C37.5886 18.8443 36.9217 17.8099 35.9073 17.8099H11.3445ZM12.8756 35.918L14.6133 32.1994C15.0641 31.2302 16.041 30.6151 17.1212 30.6151H18.1826C19.1877 30.6151 19.864 31.6496 19.4413 32.5629L17.7036 36.2814C17.2527 37.2507 16.2759 37.8658 15.1957 37.8658H14.1342C13.1292 37.8658 12.4529 36.8313 12.8756 35.918Z" fill="white"/>
<path d="M205.159 17.782C203.985 17.782 203.205 16.5704 203.694 15.508L204.999 12.7121L207.113 8.19204C207.357 7.67013 207.244 7.05504 206.84 6.64497L200.425 0.27964C199.974 -0.167703 199.204 -0.0372281 198.941 0.540591L181.442 38.0336C181.019 38.9469 181.686 39.9814 182.691 39.9814H207.263C208.343 39.9814 209.32 39.357 209.771 38.3877L210.015 37.8658L210.598 36.6357L213.406 30.6058L214.28 28.7233L215.416 26.2815L216.036 24.9581L218.469 19.7298C218.892 18.8165 218.225 17.782 217.21 17.782H205.15H205.159ZM204.285 24.9581L203.666 26.2815L202.529 28.7233L201.655 30.6058L199.007 36.2815C198.556 37.2507 197.579 37.8752 196.499 37.8752H195.437C194.423 37.8752 193.756 36.8314 194.188 35.9274L194.564 35.1259L196.668 30.6058L197.541 28.7233L199.298 24.9581L199.382 24.7717L201.017 21.2582C201.468 20.289 202.444 19.6645 203.525 19.6645H204.586C205.6 19.6645 206.267 20.7083 205.835 21.6124L204.276 24.9581H204.285Z" fill="white"/>
<path d="M75.2163 6.64497L68.7915 0.27964C68.3406 -0.167703 67.5704 -0.0372281 67.3074 0.540591L59.6427 16.9432C59.3984 17.4651 58.863 17.8099 58.2807 17.8099H44.2569C43.1767 17.8099 42.1998 18.4343 41.7489 19.4036L41.6174 19.6925L39.1471 24.9768L38.8559 25.6012L38.6398 26.0578L37.3906 28.7419L36.517 30.6151L33.1261 37.8752L33.051 38.0429C32.6283 38.9562 33.2952 39.9907 34.3003 39.9907H58.8724C59.9526 39.9907 60.9295 39.3756 61.3804 38.4064L75.4981 8.20135C75.7423 7.67945 75.6296 7.06436 75.2257 6.65429L75.2163 6.64497ZM57.4541 21.631L55.8948 24.9674L55.6882 25.4055L54.1383 28.7233L53.2648 30.5965L50.616 36.2629C50.1651 37.2321 49.1882 37.8472 48.108 37.8472H47.0466C46.0415 37.8472 45.3652 36.8127 45.7879 35.8994L48.2677 30.5872L49.1412 28.7139L50.3999 26.0299L50.616 25.5732L50.9071 24.9488L52.6355 21.2489C53.0863 20.2796 54.0632 19.6552 55.1434 19.6552H56.2048C57.2099 19.6552 57.8862 20.6897 57.4541 21.603V21.631Z" fill="white"/>
<path d="M254.513 0.00931966C253.583 7.24138 247.289 13.1221 239.023 14.8462H250.304C251.751 14.8462 253.075 15.5638 253.855 16.7754C254.635 17.9776 254.738 19.4781 254.127 20.7735L252.587 24.0541C253.592 25.7875 254.259 27.6794 254.513 29.6738C255.442 22.4417 261.736 16.561 270.002 14.8369C261.736 13.1221 255.442 7.23206 254.513 0V0.00931966Z" fill="white"/>
<path d="M225.561 17.8098C224.49 17.8098 223.504 18.4249 223.053 19.3941L222.996 19.506L222.912 19.683L220.442 24.9673L218.685 28.7324L217.811 30.6057L217.37 31.5377L214.411 37.8657L214.336 38.0335C213.913 38.9468 214.58 39.9813 215.595 39.9813H240.167C241.247 39.9813 242.224 39.3569 242.675 38.3876L242.919 37.8657L245.051 33.3084L245.728 31.8545L246.31 30.6057L247.183 28.7324L248.94 24.9673L250.668 21.2674L251.382 19.7483C251.805 18.835 251.138 17.8005 250.133 17.8005H225.551L225.561 17.8098ZM237.189 24.9673L235.433 28.7324L234.559 30.6057L233.301 33.3084L231.91 36.2721C231.46 37.2413 230.483 37.8564 229.402 37.8564H228.341C227.327 37.8564 226.66 36.8219 227.092 35.9086L229.139 31.5283L229.572 30.5964L230.454 28.7231L232.211 24.958L233.939 21.2581C234.39 20.2888 235.367 19.6737 236.447 19.6737H237.509C238.514 19.6737 239.19 20.7082 238.767 21.6215L237.208 24.958L237.189 24.9673Z" fill="white"/>
</g>
<defs>
<clipPath id="clip0_209_5239">
<rect width="270" height="40" fill="white"/>
</clipPath>
</defs>
</svg>
