<svg width="1397" height="1397" viewBox="0 0 1397 1397" fill="none" xmlns="http://www.w3.org/2000/svg">
<g opacity="0.94" filter="url(#filter0_f_119_107)">
<circle cx="698.5" cy="698.5" r="198.5" fill="#D900C6" fill-opacity="0.8"/>
</g>
<path d="M614.302 860.256C614.231 860.228 614.154 860.144 614.158 860.063C614.132 859.917 614.235 859.793 614.358 859.759C672.346 849.057 738.285 833.953 787.217 789.767C806.772 772.108 819.855 752.922 826.111 732.7C833.492 708.871 830.267 683.578 817.687 666.732C811.998 659.089 804.066 652.57 794.167 647.309C763.632 631.149 724.54 633.799 694.486 654.025C694.378 654.092 694.193 654.075 694.135 653.943C694.043 653.825 694.075 653.674 694.192 653.583C708.878 643.679 726.087 637.787 743.98 636.558C761.93 635.324 779.369 638.865 794.408 646.829C804.379 652.117 812.349 658.678 818.091 666.397C830.762 683.36 834.012 708.799 826.591 732.804C820.307 753.098 807.188 772.379 787.557 790.09C738.508 834.367 672.479 849.491 614.434 860.198C614.406 860.269 614.35 860.274 614.302 860.256Z" fill="white" fill-opacity="0.8"/>
<path d="M614.302 860.256C614.231 860.228 614.168 860.177 614.148 860.087C614.114 859.964 614.202 859.807 614.325 859.773C663.598 846.264 719.81 828.07 763.383 782.872C780.792 764.818 792.842 745.613 799.23 725.825C806.749 702.487 805.457 678.353 795.827 662.87C791.482 655.857 785.197 650.032 777.193 645.534C752.471 631.683 719.517 636.44 693.171 657.558C693.053 657.649 692.892 657.641 692.8 657.523C692.709 657.406 692.74 657.254 692.834 657.154C705.714 646.823 720.526 640.192 735.588 638.002C750.764 635.802 765.224 638.269 777.401 645.068C785.501 649.603 791.838 655.504 796.236 662.592C805.925 678.207 807.242 702.486 799.691 725.977C793.299 745.846 781.207 765.088 763.738 783.228C720.094 828.536 663.793 846.75 614.454 860.288C614.43 860.278 614.35 860.274 614.302 860.256Z" fill="white" fill-opacity="0.8"/>
<path d="M614.302 860.256C614.231 860.228 614.192 860.186 614.163 860.12C614.105 859.988 614.16 859.846 614.292 859.788C654.865 843.505 701.321 822.292 739.462 776.134C754.724 757.684 765.736 738.542 772.224 719.202C779.863 696.402 780.495 673.452 773.813 659.331C770.788 652.94 766.175 647.817 760.033 644.096C741.163 632.597 714.327 639.372 691.706 661.334C691.612 661.434 691.451 661.426 691.35 661.332C691.25 661.239 691.257 661.078 691.351 660.977C714.141 638.863 741.204 632.066 760.289 643.649C766.493 647.422 771.207 652.637 774.261 659.095C780.977 673.338 780.38 696.411 772.685 719.354C766.179 738.741 755.139 757.955 739.835 776.443C701.61 822.678 655.078 843.943 614.472 860.24C614.43 860.278 614.373 860.284 614.302 860.256Z" fill="white" fill-opacity="0.8"/>
<path d="M614.302 860.256C614.254 860.238 614.216 860.195 614.178 860.153C614.11 860.045 614.151 859.869 614.259 859.802C646.043 840.903 682.703 816.847 715.315 770.047C728.351 751.334 738.298 732.326 744.84 713.553C752.586 691.395 755.071 669.738 751.321 657.027C749.63 651.29 746.623 646.9 742.376 643.941C729.315 634.831 708.673 643.572 689.818 666.202C689.724 666.302 689.554 666.318 689.453 666.224C689.352 666.131 689.327 665.984 689.43 665.86C708.448 643.021 729.351 634.244 742.656 643.503C746.989 646.522 750.063 651.021 751.798 656.857C755.568 669.657 753.094 691.428 745.311 713.681C738.727 732.492 728.794 751.534 715.716 770.284C683.044 817.17 646.341 841.265 614.515 860.202C614.463 860.264 614.373 860.284 614.302 860.256Z" fill="white" fill-opacity="0.8"/>
<path d="M614.302 860.256C614.278 860.247 614.231 860.228 614.216 860.195C614.115 860.102 614.123 859.941 614.217 859.84C637.163 838.524 663.92 811.829 690.841 764.734C701.619 745.911 710.413 727.192 716.996 709.091C724.76 687.733 729.044 667.511 728.197 656.281C727.799 651.236 726.421 647.588 724.06 645.415C722.364 643.856 720.276 643.237 717.806 643.536C709.864 644.526 698.497 655.334 687.404 672.424C687.334 672.533 687.188 672.558 687.045 672.503C686.935 672.433 686.886 672.277 686.965 672.144C698.295 654.655 709.498 644.056 717.733 643.016C720.351 642.692 722.614 643.352 724.41 645.005C726.872 647.271 728.318 651.028 728.717 656.21C729.585 667.529 725.273 687.823 717.482 709.252C710.89 727.377 702.086 746.119 691.298 764.966C664.326 812.123 637.56 838.842 614.571 860.197C614.511 860.282 614.397 860.293 614.302 860.256Z" fill="white" fill-opacity="0.8"/>
<path d="M614.302 860.256C614.278 860.247 614.278 860.247 614.254 860.237C614.145 860.168 614.095 860.012 614.174 859.879C628.061 836.715 644.606 808.108 665.478 761.781C673.801 743.289 681.309 725.274 687.776 708.248C695.398 688.174 701.342 669.743 703.324 660.185C704.2 655.88 704.385 653.001 703.868 651.653C703.609 650.979 703.263 650.954 703.125 650.955C701.053 650.862 694.639 659.138 683.43 682.739C683.384 682.858 683.186 682.945 683.086 682.852C682.943 682.796 682.894 682.641 682.973 682.507C692.565 662.295 700.118 650.308 703.134 650.439C703.513 650.45 704.013 650.644 704.321 651.474C704.873 652.944 704.707 655.913 703.804 660.289C701.836 669.88 695.86 688.325 688.228 708.424C681.752 725.473 674.268 743.498 665.921 761.98C645.04 808.331 628.485 836.962 614.599 860.125C614.553 860.244 614.421 860.302 614.302 860.256Z" fill="white" fill-opacity="0.8"/>
<path d="M614.302 860.256C614.183 860.21 614.115 860.102 614.138 859.974C619.512 833.481 626.569 801.166 642.419 752.891C648.76 733.577 655.364 715.211 662.059 698.301C669.977 678.313 678.024 660.671 683.015 652.253C685.299 648.412 687.187 646.085 688.578 645.395C689.365 644.989 689.879 645.216 690.152 645.431C692.491 647.377 689.961 661.313 683.416 682.706C683.361 682.849 683.229 682.907 683.1 682.885C683.1 682.885 683.1 682.885 683.076 682.875C682.957 682.829 682.875 682.688 682.921 682.569C690.559 657.583 691.394 647.17 689.81 645.818C689.71 645.724 689.437 645.509 688.791 645.833C687.491 646.503 685.687 648.754 683.44 652.499C678.434 660.885 670.429 678.489 662.512 698.476C655.816 715.386 649.189 733.743 642.88 753.043C627.064 801.303 619.992 833.585 614.617 860.078C614.595 860.206 614.445 860.311 614.316 860.289C614.326 860.265 614.326 860.265 614.302 860.256Z" fill="white" fill-opacity="0.8"/>
<path d="M614.302 860.256C614.207 860.219 614.154 860.144 614.143 860.03C611.558 828.784 609.808 791.004 621.698 737.97C626.441 716.778 632.578 697.002 639.932 679.172C648.619 658.117 659.128 640.201 667.401 632.427C671.191 628.87 674.791 627.07 678.138 627.056C680.578 627.047 682.704 628.063 684.409 630.09C689.775 636.379 690.892 651.784 687.489 672.347C687.466 672.475 687.34 672.59 687.188 672.558C687.036 672.527 686.944 672.409 686.976 672.258C690.308 652.158 689.203 636.512 684.005 630.425C682.382 628.539 680.423 627.588 678.129 627.572C674.92 627.584 671.442 629.35 667.747 632.807C659.549 640.528 649.067 658.373 640.408 679.357C633.072 697.139 626.935 716.915 622.202 738.083C610.349 791.023 612.083 828.769 614.654 859.983C614.656 860.12 614.553 860.244 614.416 860.245C614.383 860.26 614.35 860.274 614.302 860.256Z" fill="white" fill-opacity="0.8"/>
<path d="M614.302 860.256C614.231 860.228 614.168 860.177 614.148 860.087C603.382 824.657 592.56 782.101 600.048 725.447C603.034 702.781 608.539 682.022 616.361 663.692C625.62 642.011 638.472 624.266 649.912 617.365C655.128 614.225 660.432 612.976 665.668 613.668C681.76 615.812 691.253 636.378 689.897 666.069C689.898 666.206 689.772 666.321 689.634 666.322C689.497 666.323 689.382 666.197 689.38 666.059C690.74 636.644 681.405 616.303 665.579 614.18C660.447 613.501 655.266 614.715 650.149 617.812C638.809 624.67 626.04 642.338 616.819 663.924C609.015 682.207 603.519 702.942 600.552 725.56C593.076 782.11 603.903 824.585 614.654 859.983C614.689 860.106 614.624 860.272 614.478 860.297C614.43 860.278 614.35 860.274 614.302 860.256Z" fill="white" fill-opacity="0.8"/>
<path d="M614.302 860.256C614.254 860.238 614.192 860.186 614.163 860.12C595.166 820.705 575.121 773.615 578.094 713.707C579.283 689.744 584.063 668.102 592.331 649.398C602.11 627.292 617.237 609.827 631.8 603.838C638.443 601.114 645.408 600.455 652.533 601.853C674.461 606.178 689.871 629.422 691.78 661.144C691.781 661.281 691.678 661.405 691.541 661.406C691.403 661.408 691.279 661.305 691.277 661.167C689.382 629.696 674.148 606.631 652.444 602.365C645.423 600.98 638.539 601.643 631.995 604.323C617.54 610.245 602.531 627.619 592.798 649.607C584.548 668.263 579.772 689.824 578.601 713.74C575.642 773.544 595.643 820.535 614.625 859.917C614.684 860.049 614.628 860.191 614.496 860.249C614.454 860.288 614.373 860.284 614.302 860.256Z" fill="white" fill-opacity="0.8"/>
<path d="M614.302 860.256C614.254 860.238 614.216 860.195 614.178 860.153C586.871 816.886 557.577 765.472 555.9 702.585C555.223 677.434 559.278 655.047 567.955 636.064C578.196 613.617 595.54 596.576 613.248 591.587C621.275 589.319 629.934 589.235 638.973 591.348C652.583 594.523 664.916 602.476 674.614 614.324C684.284 626.107 690.736 640.959 693.296 657.306C693.321 657.452 693.218 657.576 693.072 657.601C692.925 657.626 692.8 657.524 692.775 657.377C687.559 624.017 666.399 598.297 638.836 591.841C629.902 589.741 621.324 589.829 613.386 592.078C595.834 597.018 578.607 613.968 568.422 636.273C559.796 655.193 555.754 677.476 556.426 702.571C558.102 765.32 587.367 816.669 614.644 859.869C614.711 859.978 614.67 860.153 614.562 860.22C614.463 860.264 614.373 860.284 614.302 860.256Z" fill="white" fill-opacity="0.8"/>
<path d="M614.302 860.256C614.254 860.238 614.207 860.219 614.201 860.162C578.558 813.115 539.997 757.423 533.633 691.653C531.079 665.337 534.392 642.252 543.436 623.029C554.143 600.299 573.696 583.705 594.492 579.722C603.927 577.918 614.246 578.424 625.175 581.242C641.627 585.492 656.917 594.647 669.34 607.661C681.7 620.625 690.436 636.58 694.626 653.806C694.651 653.952 694.572 654.085 694.426 654.11C694.303 654.145 694.145 654.056 694.111 653.934C685.58 618.742 658.452 590.406 625.029 581.759C614.181 578.945 603.943 578.443 594.564 580.242C573.939 584.209 554.512 600.688 543.861 623.276C534.854 642.404 531.568 665.417 534.102 691.644C540.441 757.268 578.963 812.917 614.554 859.889C614.645 860.007 614.614 860.158 614.496 860.249C614.487 860.273 614.397 860.293 614.302 860.256Z" fill="white" fill-opacity="0.8"/>
<path d="M614.302 860.256C614.254 860.238 614.207 860.219 614.201 860.162C578.558 813.115 539.997 757.423 533.633 691.653C531.533 669.884 533.458 650.168 539.388 633.043C539.443 632.901 539.575 632.843 539.718 632.898C539.837 632.944 539.919 633.085 539.864 633.228C533.961 650.281 532.032 669.941 534.135 691.63C540.468 757.197 578.929 812.795 614.495 859.757C672.427 849.06 738.318 833.938 787.207 789.791C803.385 775.193 815.217 759.374 822.357 742.801C822.403 742.682 822.568 742.609 822.687 742.655C822.806 742.702 822.879 742.866 822.833 742.985C815.665 759.63 803.791 775.487 787.562 790.147C738.513 834.424 672.484 849.547 614.439 860.255C614.406 860.269 614.35 860.274 614.302 860.256Z" fill="white" fill-opacity="0.8"/>
<path d="M624.296 834.49C624.248 834.471 624.21 834.429 624.172 834.387C620.514 829.061 616.717 823.6 613.065 818.331C594.294 791.325 574.897 763.393 560.078 735.515C554.567 725.154 549.909 715.206 546.245 705.944C542.523 696.55 539.845 687.779 538.009 679.171C535.169 665.666 534.806 653.259 536.914 642.247C537.532 639.099 538.35 636.001 539.364 633.034C539.42 632.891 539.552 632.833 539.694 632.889C539.813 632.935 539.896 633.076 539.84 633.219C538.812 636.153 538.003 639.227 537.394 642.351C535.289 653.282 535.647 665.633 538.482 679.082C540.304 687.657 542.99 696.403 546.698 705.764C550.362 715.027 554.996 724.965 560.493 735.293C575.32 763.147 594.703 791.046 613.451 818.043C617.064 823.27 620.832 828.665 624.475 833.958C630.734 832.506 637.13 831.053 643.323 829.63C675.372 822.336 708.531 814.789 738.253 804.243C749.276 800.322 759.423 796.117 768.351 791.739C777.401 787.326 785.26 782.67 792.411 777.575C803.563 769.579 812.156 760.7 817.982 751.185C819.639 748.467 821.114 745.652 822.343 742.768C822.389 742.649 822.554 742.576 822.673 742.622C822.792 742.669 822.865 742.833 822.819 742.952C821.591 745.836 820.106 748.675 818.416 751.408C812.571 760.97 803.904 769.903 792.709 777.937C785.548 783.055 777.666 787.702 768.583 792.129C759.632 796.498 749.475 800.727 738.419 804.662C708.654 815.247 675.495 822.794 643.423 830.079C637.173 831.507 630.72 832.965 624.404 834.422C624.401 834.503 624.344 834.508 624.296 834.49Z" fill="white" fill-opacity="0.8"/>
<path d="M634.299 808.7C634.252 808.681 634.213 808.639 634.175 808.597C621.483 788.156 607.172 767.797 593.304 748.13C584.85 736.108 576.849 724.754 569.333 713.56C562.859 703.918 557.56 695.552 553.119 688.01C548.426 679.988 544.902 673.048 542.39 666.746C538.272 656.324 536.773 647.41 537.85 639.55C538.142 637.314 538.658 635.137 539.379 633.067C539.434 632.924 539.566 632.866 539.709 632.922C539.828 632.968 539.91 633.109 539.855 633.251C539.143 635.298 538.637 637.451 538.339 639.63C537.29 647.419 538.769 656.244 542.843 666.567C545.34 672.836 548.841 679.767 553.543 687.765C557.984 695.307 563.283 703.673 569.733 713.306C577.249 724.499 585.226 735.844 593.68 747.866C607.509 767.491 621.792 787.784 634.469 808.192C657.568 801.661 681.822 796.315 705.244 791.139C719.594 787.962 733.158 784.973 746.256 781.775C757.538 779.021 767.093 776.415 775.434 773.831C784.299 771.096 791.558 768.338 797.629 765.393C807.623 760.526 814.665 755.007 819.118 748.538C820.368 746.728 821.446 744.797 822.31 742.782C822.356 742.663 822.521 742.591 822.64 742.637C822.759 742.683 822.832 742.848 822.786 742.967C821.913 745.005 820.826 746.96 819.534 748.809C814.996 755.354 807.911 760.911 797.843 765.831C791.748 768.767 784.456 771.539 775.581 774.298C767.216 776.873 757.662 779.478 746.37 782.256C733.272 785.454 719.708 788.444 705.359 791.62C681.88 796.802 657.559 802.176 634.428 808.722C634.418 808.746 634.347 808.718 634.299 808.7Z" fill="white" fill-opacity="0.8"/>
<path d="M644.294 782.934C644.246 782.915 644.184 782.864 644.169 782.831C629.078 755.585 608.261 726.583 578.621 691.591C572.371 684.195 566.114 676.959 560.026 670.062C555.09 664.432 550.413 659.121 546.804 654.306C541.357 647.03 538.801 641.476 538.772 636.82C538.762 635.505 538.975 634.249 539.388 633.043C539.443 632.901 539.575 632.843 539.718 632.898C539.837 632.944 539.919 633.085 539.864 633.228C539.47 634.386 539.275 635.595 539.279 636.853C539.301 641.315 541.886 646.935 547.213 654.028C550.799 658.834 555.475 664.145 560.397 669.742C566.499 676.671 572.757 683.907 579.007 691.303C608.584 726.244 629.396 755.189 644.487 782.435C673.994 772.515 708.913 765.16 754.291 759.292C763.837 758.05 773.361 756.936 782.573 755.919C790.006 755.114 797.016 754.336 802.904 753.205C811.597 751.55 817.296 749.143 820.344 745.872C821.197 744.946 821.868 743.922 822.357 742.801C822.403 742.682 822.568 742.609 822.687 742.655C822.806 742.702 822.879 742.866 822.833 742.985C822.325 744.154 821.636 745.225 820.741 746.19C817.59 749.585 811.981 751.972 803.019 753.686C797.107 754.808 790.072 755.577 782.631 756.406C773.428 757.399 763.919 758.546 754.373 759.789C708.914 765.652 673.985 773.031 644.446 782.965C644.413 782.98 644.365 782.961 644.294 782.934Z" fill="white" fill-opacity="0.8"/>
<path d="M654.288 757.167C654.24 757.149 654.178 757.097 654.149 757.031C639.414 726.892 615.265 695.04 587.909 669.622C580.341 662.588 573.269 656.676 566.942 652.091C561.083 647.851 556.005 644.707 551.252 641.852L549.901 641.028C544.465 637.744 540.867 635.584 539.761 634.199C539.387 633.753 539.268 633.352 539.383 632.986C539.438 632.844 539.57 632.786 539.713 632.841C539.832 632.887 539.914 633.028 539.859 633.171C539.776 633.385 539.964 633.676 540.156 633.887C541.209 635.197 544.964 637.446 550.157 640.58L551.507 641.405C556.236 644.25 561.363 647.413 567.221 651.653C573.572 656.247 580.645 662.159 588.237 669.202C615.592 694.621 639.726 726.439 654.494 756.564C685.713 744.276 724.991 737.054 762.331 736.73C772.687 736.648 781.896 737.051 789.693 737.917C796.83 738.719 802.773 739.849 808.207 740.946L809.784 741.257C815.732 742.444 819.998 743.306 821.682 743.058C821.943 743.022 822.278 742.934 822.385 742.729C822.431 742.611 822.596 742.538 822.715 742.584C822.834 742.63 822.907 742.795 822.861 742.914C822.723 743.27 822.341 743.477 821.764 743.554C820.013 743.831 815.899 743 809.704 741.745L808.127 741.434C802.693 740.337 796.774 739.216 789.661 738.424C781.896 737.543 772.687 737.14 762.356 737.231C724.991 737.546 685.681 744.783 654.5 757.113C654.416 757.19 654.359 757.195 654.288 757.167Z" fill="white" fill-opacity="0.8"/>
<path d="M664.282 731.401C664.21 731.373 664.172 731.331 664.143 731.265C650.539 699.269 625.497 668.027 597.188 647.676C588.773 641.626 580.925 637.079 573.84 634.166C567.682 631.614 561.617 630.026 555.714 629.431C548.918 628.735 543.434 629.531 541.035 631.551C540.462 632.039 540.08 632.601 539.864 633.228C539.809 633.37 539.677 633.428 539.534 633.373C539.424 633.303 539.333 633.186 539.388 633.043C539.631 632.345 540.074 631.697 540.722 631.156C543.215 629.036 548.855 628.191 555.779 628.91C561.729 629.524 567.843 631.13 574.033 633.668C581.142 636.589 589.038 641.155 597.468 647.238C625.8 667.598 650.818 698.831 664.488 730.798C696.148 716.386 735.698 710.225 770.334 714.262C780.685 715.463 789.57 717.406 796.79 720.043C803.058 722.31 808.694 725.289 813.478 728.838C819.075 732.976 822.671 737.403 823.082 740.65C823.196 741.486 823.095 742.24 822.795 742.943C822.749 743.062 822.584 743.134 822.465 743.088C822.346 743.042 822.273 742.877 822.319 742.758C822.582 742.15 822.655 741.468 822.585 740.731C822.176 737.621 818.662 733.335 813.175 729.267C808.405 725.75 802.841 722.8 796.597 720.542C789.424 717.924 780.563 715.989 770.245 714.774C735.594 710.704 696.05 716.922 664.428 731.376C664.434 731.433 664.353 731.429 664.282 731.401Z" fill="white" fill-opacity="0.8"/>
<path d="M674.276 705.635C674.205 705.607 674.142 705.556 674.113 705.49C662.098 672.361 636.168 641.786 606.453 625.698C597.22 620.696 588.572 617.505 580.756 616.195C573.613 614.982 566.692 615.248 560.179 616.929C552.013 619.062 545.543 623.246 542.008 628.759C541.118 630.135 540.401 631.633 539.864 633.228C539.809 633.37 539.677 633.428 539.534 633.373C539.424 633.303 539.333 633.186 539.388 633.043C539.943 631.401 540.694 629.889 541.593 628.489C545.189 622.889 551.752 618.605 560.065 616.447C566.643 614.737 573.636 614.499 580.836 615.707C588.733 617.021 597.428 620.23 606.699 625.274C636.438 641.372 662.378 671.923 674.497 705.065C705.794 688.764 745.551 683.694 778.366 691.86C788.604 694.41 797.198 697.881 803.916 702.235C810.071 706.207 815.041 711.112 818.755 716.788C823.439 723.986 825.397 731.576 824.276 738.135C823.996 739.775 823.498 741.413 822.833 742.985C822.787 743.104 822.622 743.177 822.503 743.13C822.384 743.084 822.311 742.919 822.357 742.801C823.013 741.252 823.492 739.662 823.763 738.046C824.871 731.59 822.938 724.147 818.322 717.057C814.647 711.424 809.715 706.56 803.622 702.64C796.967 698.337 788.405 694.852 778.238 692.33C745.447 684.173 705.681 689.266 674.47 705.628C674.428 705.667 674.347 705.663 674.276 705.635Z" fill="white" fill-opacity="0.8"/>
<path d="M822.503 743.13C822.36 743.075 822.311 742.919 822.357 742.801C823.429 740.32 824.292 737.814 824.932 735.385C827.524 725.598 826.998 714.739 823.502 704.832C820.784 697.084 816.451 690.322 810.658 684.714C804.533 678.76 796.358 673.786 786.408 669.926C786.337 669.899 786.289 669.88 786.218 669.852C754.898 657.759 714.977 661.7 684.488 679.871C684.347 679.953 684.156 679.879 684.107 679.724C673.846 645.746 647.014 615.941 615.741 603.728C615.67 603.701 615.622 603.682 615.551 603.655C605.577 599.786 596.21 597.956 587.672 598.223C579.588 598.448 571.844 600.553 564.621 604.418C555.335 609.367 547.649 617.041 542.972 625.991C541.808 628.217 540.755 630.65 539.873 633.204C539.818 633.346 539.686 633.405 539.543 633.349C539.424 633.303 539.342 633.162 539.397 633.019C540.288 630.441 541.35 627.985 542.524 625.735C547.27 616.676 555.032 608.949 564.393 603.947C571.691 600.029 579.516 597.928 587.689 597.683C596.308 597.42 605.747 599.278 615.768 603.165C615.839 603.193 615.887 603.211 615.958 603.239C631.421 609.264 645.993 619.561 658.137 633.013C670.28 646.466 679.395 662.432 684.533 679.26C699.642 670.313 717.172 664.654 735.211 662.909C753.249 661.163 770.954 663.386 786.435 669.363C786.506 669.391 786.554 669.409 786.625 669.437C796.646 673.324 804.86 678.34 811.056 684.322C816.903 690.005 821.264 696.833 824.012 704.647C827.552 714.653 828.073 725.593 825.469 735.484C824.819 737.936 823.947 740.467 822.866 742.971C822.787 743.104 822.646 743.186 822.503 743.13Z" fill="white" fill-opacity="0.8"/>
<path d="M539.534 633.373C539.415 633.327 539.333 633.186 539.388 633.043C540.618 629.449 541.946 626.167 543.436 623.029C554.143 600.299 573.696 583.705 594.492 579.722C603.927 577.918 614.246 578.424 625.175 581.242C641.627 585.492 656.917 594.647 669.34 607.661C681.623 620.54 690.334 636.35 694.522 653.438C709.152 643.676 726.254 637.851 743.986 636.615C761.935 635.381 779.375 638.922 794.414 646.886C804.384 652.174 812.355 658.735 818.096 666.454C830.768 683.417 834.017 708.856 826.596 732.861C825.567 736.15 824.343 739.445 822.833 742.985C822.787 743.104 822.622 743.177 822.503 743.13C822.384 743.084 822.311 742.919 822.357 742.801C823.858 739.285 825.105 735.998 826.102 732.724C833.482 708.894 830.258 683.602 817.678 666.756C811.989 659.113 804.057 652.593 794.158 647.333C763.622 631.172 724.531 633.822 694.477 654.048C694.336 654.13 694.121 654.047 694.096 653.901C685.565 618.709 658.437 590.373 625.015 581.726C614.167 578.912 603.928 578.41 594.549 580.209C573.924 584.176 554.497 600.655 543.846 623.243C542.389 626.366 541.07 629.625 539.817 633.209C539.842 633.356 539.686 633.405 539.534 633.373Z" fill="white" fill-opacity="0.8"/>
<path d="M614.302 860.256C614.159 860.201 614.101 860.069 614.156 859.926L682.964 682.531C683.019 682.389 683.151 682.331 683.294 682.386C683.437 682.441 683.495 682.573 683.44 682.716L614.632 860.111C614.586 860.23 614.445 860.311 614.302 860.256Z" fill="white" fill-opacity="0.8"/>
<path d="M614.164 860.612C614.045 860.566 613.959 860.505 613.891 860.397C578.209 813.308 539.619 757.55 533.259 691.7C530.709 665.303 534.017 642.161 543.089 622.867C553.832 600.042 573.503 583.356 594.421 579.34C603.913 577.53 614.289 578.03 625.266 580.867C658.721 589.5 685.919 617.726 694.762 652.82C724.956 632.867 764.04 630.378 794.6 646.548C804.618 651.855 812.65 658.467 818.407 666.219C831.146 683.29 834.43 708.852 826.962 732.976C820.652 753.34 807.49 772.66 787.807 790.433C738.683 834.763 672.588 849.915 614.51 860.637C614.396 860.648 614.283 860.658 614.164 860.612ZM634.657 585.248C631.491 584.02 628.252 582.982 624.948 582.11C614.148 579.314 603.966 578.807 594.653 580.577C574.151 584.509 554.832 600.921 544.227 623.391C535.248 642.447 531.99 665.389 534.518 691.56C540.835 756.956 579.157 812.419 614.67 859.306C672.488 848.62 738.218 833.49 786.972 789.481C806.476 771.884 819.517 752.736 825.768 732.594C833.112 708.86 829.904 683.738 817.401 666.976C811.741 659.399 803.857 652.898 793.996 647.68C763.618 631.608 724.649 634.223 694.704 654.382C694.37 654.608 693.822 654.395 693.728 654.004C686.091 622.437 663.411 596.401 634.657 585.248Z" fill="white" fill-opacity="0.8"/>
<g filter="url(#filter1_f_119_107)">
<path d="M614.302 860.256C614.231 860.228 614.154 860.144 614.158 860.063C614.132 859.917 614.235 859.793 614.358 859.759C672.346 849.057 738.285 833.953 787.217 789.767C806.772 772.108 819.855 752.922 826.111 732.7C833.492 708.871 830.267 683.578 817.687 666.732C811.998 659.089 804.066 652.57 794.167 647.309C763.632 631.149 724.54 633.799 694.486 654.025C694.378 654.092 694.193 654.075 694.135 653.943C694.043 653.825 694.075 653.674 694.192 653.583C708.878 643.679 726.087 637.787 743.98 636.558C761.93 635.324 779.369 638.865 794.408 646.829C804.379 652.117 812.349 658.678 818.091 666.397C830.762 683.36 834.012 708.799 826.591 732.804C820.307 753.098 807.188 772.379 787.557 790.09C738.508 834.367 672.479 849.491 614.434 860.198C614.406 860.269 614.35 860.274 614.302 860.256Z" fill="#D900C6" fill-opacity="0.66"/>
<path d="M614.302 860.256C614.231 860.228 614.168 860.177 614.148 860.087C614.114 859.964 614.202 859.807 614.325 859.773C663.598 846.264 719.81 828.07 763.383 782.872C780.792 764.818 792.842 745.613 799.23 725.825C806.749 702.487 805.457 678.353 795.827 662.87C791.482 655.857 785.197 650.032 777.193 645.534C752.471 631.683 719.517 636.44 693.171 657.558C693.053 657.649 692.892 657.641 692.8 657.523C692.709 657.406 692.74 657.254 692.834 657.154C705.714 646.823 720.526 640.192 735.588 638.002C750.764 635.802 765.224 638.269 777.401 645.068C785.501 649.603 791.838 655.504 796.236 662.592C805.925 678.207 807.242 702.486 799.691 725.977C793.299 745.846 781.207 765.088 763.738 783.228C720.094 828.536 663.793 846.75 614.454 860.288C614.43 860.278 614.35 860.274 614.302 860.256Z" fill="#D900C6" fill-opacity="0.66"/>
<path d="M614.302 860.256C614.231 860.228 614.192 860.186 614.163 860.12C614.105 859.988 614.16 859.846 614.292 859.788C654.865 843.505 701.321 822.292 739.462 776.134C754.724 757.684 765.736 738.542 772.224 719.202C779.863 696.402 780.495 673.452 773.813 659.331C770.788 652.94 766.175 647.817 760.033 644.096C741.163 632.597 714.327 639.372 691.706 661.334C691.612 661.434 691.451 661.426 691.35 661.332C691.25 661.239 691.257 661.078 691.351 660.977C714.141 638.863 741.204 632.066 760.289 643.649C766.493 647.422 771.207 652.637 774.261 659.095C780.977 673.338 780.38 696.411 772.685 719.354C766.179 738.741 755.139 757.955 739.835 776.443C701.61 822.678 655.078 843.943 614.472 860.24C614.43 860.278 614.373 860.284 614.302 860.256Z" fill="#D900C6" fill-opacity="0.66"/>
<path d="M614.302 860.256C614.254 860.238 614.216 860.195 614.178 860.153C614.11 860.045 614.151 859.869 614.259 859.802C646.043 840.903 682.703 816.847 715.315 770.047C728.351 751.334 738.298 732.326 744.84 713.553C752.586 691.395 755.071 669.738 751.321 657.027C749.63 651.29 746.623 646.9 742.376 643.941C729.315 634.831 708.673 643.572 689.818 666.202C689.724 666.302 689.554 666.318 689.453 666.224C689.352 666.131 689.327 665.984 689.43 665.86C708.448 643.021 729.351 634.244 742.656 643.503C746.989 646.522 750.063 651.021 751.798 656.857C755.568 669.657 753.094 691.428 745.311 713.681C738.727 732.492 728.794 751.534 715.716 770.284C683.044 817.17 646.341 841.265 614.515 860.202C614.463 860.264 614.373 860.284 614.302 860.256Z" fill="#D900C6" fill-opacity="0.66"/>
<path d="M614.302 860.256C614.278 860.247 614.231 860.228 614.216 860.195C614.115 860.102 614.123 859.941 614.217 859.84C637.163 838.524 663.92 811.829 690.841 764.734C701.619 745.911 710.413 727.192 716.996 709.091C724.76 687.733 729.044 667.511 728.197 656.281C727.799 651.236 726.421 647.588 724.06 645.415C722.364 643.856 720.276 643.237 717.806 643.536C709.864 644.526 698.497 655.334 687.404 672.424C687.334 672.533 687.188 672.558 687.045 672.503C686.935 672.433 686.886 672.277 686.965 672.144C698.295 654.655 709.498 644.056 717.733 643.016C720.351 642.692 722.614 643.352 724.41 645.005C726.872 647.271 728.318 651.028 728.717 656.21C729.585 667.529 725.273 687.823 717.482 709.252C710.89 727.377 702.086 746.119 691.298 764.966C664.326 812.123 637.56 838.842 614.571 860.197C614.511 860.282 614.397 860.293 614.302 860.256Z" fill="#D900C6" fill-opacity="0.66"/>
<path d="M614.302 860.256C614.278 860.247 614.278 860.247 614.254 860.237C614.145 860.168 614.095 860.012 614.174 859.879C628.061 836.715 644.606 808.108 665.478 761.781C673.801 743.289 681.309 725.274 687.776 708.248C695.398 688.174 701.342 669.743 703.324 660.185C704.2 655.88 704.385 653.001 703.868 651.653C703.609 650.979 703.263 650.954 703.125 650.955C701.053 650.862 694.639 659.138 683.43 682.739C683.384 682.858 683.186 682.945 683.086 682.852C682.943 682.796 682.894 682.641 682.973 682.507C692.565 662.295 700.118 650.308 703.134 650.439C703.513 650.45 704.013 650.644 704.321 651.474C704.873 652.944 704.707 655.913 703.804 660.289C701.836 669.88 695.86 688.325 688.228 708.424C681.752 725.473 674.268 743.498 665.921 761.98C645.04 808.331 628.485 836.962 614.599 860.125C614.553 860.244 614.421 860.302 614.302 860.256Z" fill="#D900C6" fill-opacity="0.66"/>
<path d="M614.302 860.256C614.183 860.21 614.115 860.102 614.138 859.974C619.512 833.481 626.569 801.166 642.419 752.891C648.76 733.577 655.364 715.211 662.059 698.301C669.977 678.313 678.024 660.671 683.015 652.253C685.299 648.412 687.187 646.085 688.578 645.395C689.365 644.989 689.879 645.216 690.152 645.431C692.491 647.377 689.961 661.313 683.416 682.706C683.361 682.849 683.229 682.907 683.1 682.885C683.1 682.885 683.1 682.885 683.076 682.875C682.957 682.829 682.875 682.688 682.921 682.569C690.559 657.583 691.394 647.17 689.81 645.818C689.71 645.724 689.437 645.509 688.791 645.833C687.491 646.503 685.687 648.754 683.44 652.499C678.434 660.885 670.429 678.489 662.512 698.476C655.816 715.386 649.189 733.743 642.88 753.043C627.064 801.303 619.992 833.585 614.617 860.078C614.595 860.206 614.445 860.311 614.316 860.289C614.326 860.265 614.326 860.265 614.302 860.256Z" fill="#D900C6" fill-opacity="0.66"/>
<path d="M614.302 860.256C614.207 860.219 614.154 860.144 614.143 860.03C611.558 828.784 609.808 791.004 621.698 737.97C626.441 716.778 632.578 697.002 639.932 679.172C648.619 658.117 659.128 640.201 667.401 632.427C671.191 628.87 674.791 627.07 678.138 627.056C680.578 627.047 682.704 628.063 684.409 630.09C689.775 636.379 690.892 651.784 687.489 672.347C687.466 672.475 687.34 672.59 687.188 672.558C687.036 672.527 686.944 672.409 686.976 672.258C690.308 652.158 689.203 636.512 684.005 630.425C682.382 628.539 680.423 627.588 678.129 627.572C674.92 627.584 671.442 629.35 667.747 632.807C659.549 640.528 649.067 658.373 640.408 679.357C633.072 697.139 626.935 716.915 622.202 738.083C610.349 791.023 612.083 828.769 614.654 859.983C614.656 860.12 614.553 860.244 614.416 860.245C614.383 860.26 614.35 860.274 614.302 860.256Z" fill="#D900C6" fill-opacity="0.66"/>
<path d="M614.302 860.256C614.231 860.228 614.168 860.177 614.148 860.087C603.382 824.657 592.56 782.101 600.048 725.447C603.034 702.781 608.539 682.022 616.361 663.692C625.62 642.011 638.472 624.266 649.912 617.365C655.128 614.225 660.432 612.976 665.668 613.668C681.76 615.812 691.253 636.378 689.897 666.069C689.898 666.206 689.772 666.321 689.634 666.322C689.497 666.323 689.382 666.197 689.38 666.059C690.74 636.644 681.405 616.303 665.579 614.18C660.447 613.501 655.266 614.715 650.149 617.812C638.809 624.67 626.04 642.338 616.819 663.924C609.015 682.207 603.519 702.942 600.552 725.56C593.076 782.11 603.903 824.585 614.654 859.983C614.689 860.106 614.624 860.272 614.478 860.297C614.43 860.278 614.35 860.274 614.302 860.256Z" fill="#D900C6" fill-opacity="0.66"/>
<path d="M614.302 860.256C614.254 860.238 614.192 860.186 614.163 860.12C595.166 820.705 575.121 773.615 578.094 713.707C579.283 689.744 584.063 668.102 592.331 649.398C602.11 627.292 617.237 609.827 631.8 603.838C638.443 601.114 645.408 600.455 652.533 601.853C674.461 606.178 689.871 629.422 691.78 661.144C691.781 661.281 691.678 661.405 691.541 661.406C691.403 661.408 691.279 661.305 691.277 661.167C689.382 629.696 674.148 606.631 652.444 602.365C645.423 600.98 638.539 601.643 631.995 604.323C617.54 610.245 602.531 627.619 592.798 649.607C584.548 668.263 579.772 689.824 578.601 713.74C575.642 773.544 595.643 820.535 614.625 859.917C614.684 860.049 614.628 860.191 614.496 860.249C614.454 860.288 614.373 860.284 614.302 860.256Z" fill="#D900C6" fill-opacity="0.66"/>
<path d="M614.302 860.256C614.254 860.238 614.216 860.195 614.178 860.153C586.871 816.886 557.577 765.472 555.9 702.585C555.223 677.434 559.278 655.047 567.955 636.064C578.196 613.617 595.54 596.576 613.248 591.587C621.275 589.319 629.934 589.235 638.973 591.348C652.583 594.523 664.916 602.476 674.614 614.324C684.284 626.107 690.736 640.959 693.296 657.306C693.321 657.452 693.218 657.576 693.072 657.601C692.925 657.626 692.8 657.524 692.775 657.377C687.559 624.017 666.399 598.297 638.836 591.841C629.902 589.741 621.324 589.829 613.386 592.078C595.834 597.018 578.607 613.968 568.422 636.273C559.796 655.193 555.754 677.476 556.426 702.571C558.102 765.32 587.367 816.669 614.644 859.869C614.711 859.978 614.67 860.153 614.562 860.22C614.463 860.264 614.373 860.284 614.302 860.256Z" fill="#D900C6" fill-opacity="0.66"/>
<path d="M614.302 860.256C614.254 860.238 614.207 860.219 614.201 860.162C578.558 813.115 539.997 757.423 533.633 691.653C531.079 665.337 534.392 642.252 543.436 623.029C554.143 600.299 573.696 583.705 594.492 579.722C603.927 577.918 614.246 578.424 625.175 581.242C641.627 585.492 656.917 594.647 669.34 607.661C681.7 620.625 690.436 636.58 694.626 653.806C694.651 653.952 694.572 654.085 694.426 654.11C694.303 654.145 694.145 654.056 694.111 653.934C685.58 618.742 658.452 590.406 625.029 581.759C614.181 578.945 603.943 578.443 594.564 580.242C573.939 584.209 554.512 600.688 543.861 623.276C534.854 642.404 531.568 665.417 534.102 691.644C540.441 757.268 578.963 812.917 614.554 859.889C614.645 860.007 614.614 860.158 614.496 860.249C614.487 860.273 614.397 860.293 614.302 860.256Z" fill="#D900C6" fill-opacity="0.66"/>
<path d="M614.302 860.256C614.254 860.238 614.207 860.219 614.201 860.162C578.558 813.115 539.997 757.423 533.633 691.653C531.533 669.884 533.458 650.168 539.388 633.043C539.443 632.901 539.575 632.843 539.718 632.898C539.837 632.944 539.919 633.085 539.864 633.228C533.961 650.281 532.032 669.941 534.135 691.63C540.468 757.197 578.929 812.795 614.495 859.757C672.427 849.06 738.318 833.938 787.207 789.791C803.385 775.193 815.217 759.374 822.357 742.801C822.403 742.682 822.568 742.609 822.687 742.655C822.806 742.702 822.879 742.866 822.833 742.985C815.665 759.63 803.791 775.487 787.562 790.147C738.513 834.424 672.484 849.547 614.439 860.255C614.406 860.269 614.35 860.274 614.302 860.256Z" fill="#D900C6" fill-opacity="0.66"/>
<path d="M624.296 834.49C624.248 834.471 624.21 834.429 624.172 834.387C620.514 829.061 616.717 823.6 613.065 818.331C594.294 791.325 574.897 763.393 560.078 735.515C554.567 725.154 549.909 715.206 546.245 705.944C542.523 696.55 539.845 687.779 538.009 679.171C535.169 665.666 534.806 653.259 536.914 642.247C537.532 639.099 538.35 636.001 539.364 633.034C539.42 632.891 539.552 632.833 539.694 632.889C539.813 632.935 539.896 633.076 539.84 633.219C538.812 636.153 538.003 639.227 537.394 642.351C535.289 653.282 535.647 665.633 538.482 679.082C540.304 687.657 542.99 696.403 546.698 705.764C550.362 715.027 554.996 724.965 560.493 735.293C575.32 763.147 594.703 791.046 613.451 818.043C617.064 823.27 620.832 828.665 624.475 833.958C630.734 832.506 637.13 831.053 643.323 829.63C675.372 822.336 708.531 814.789 738.253 804.243C749.276 800.322 759.423 796.117 768.351 791.739C777.401 787.326 785.26 782.67 792.411 777.575C803.563 769.579 812.156 760.7 817.982 751.185C819.639 748.467 821.114 745.652 822.343 742.768C822.389 742.649 822.554 742.576 822.673 742.622C822.792 742.669 822.865 742.833 822.819 742.952C821.591 745.836 820.106 748.675 818.416 751.408C812.571 760.97 803.904 769.903 792.709 777.937C785.548 783.055 777.666 787.702 768.583 792.129C759.632 796.498 749.475 800.727 738.419 804.662C708.654 815.247 675.495 822.794 643.423 830.079C637.173 831.507 630.72 832.965 624.404 834.422C624.401 834.503 624.344 834.508 624.296 834.49Z" fill="#D900C6" fill-opacity="0.66"/>
<path d="M634.299 808.7C634.252 808.681 634.213 808.639 634.175 808.597C621.483 788.156 607.172 767.797 593.304 748.13C584.85 736.108 576.849 724.754 569.333 713.56C562.859 703.918 557.56 695.552 553.119 688.01C548.426 679.988 544.902 673.048 542.39 666.746C538.272 656.324 536.773 647.41 537.85 639.55C538.142 637.314 538.658 635.137 539.379 633.067C539.434 632.924 539.566 632.866 539.709 632.922C539.828 632.968 539.91 633.109 539.855 633.251C539.143 635.298 538.637 637.451 538.339 639.63C537.29 647.419 538.769 656.244 542.843 666.567C545.34 672.836 548.841 679.767 553.543 687.765C557.984 695.307 563.283 703.673 569.733 713.306C577.249 724.499 585.226 735.844 593.68 747.866C607.509 767.491 621.792 787.784 634.469 808.192C657.568 801.661 681.822 796.315 705.244 791.139C719.594 787.962 733.158 784.973 746.256 781.775C757.538 779.021 767.093 776.415 775.434 773.831C784.299 771.096 791.558 768.338 797.629 765.393C807.623 760.526 814.665 755.007 819.118 748.538C820.368 746.728 821.446 744.797 822.31 742.782C822.356 742.663 822.521 742.591 822.64 742.637C822.759 742.683 822.832 742.848 822.786 742.967C821.913 745.005 820.826 746.96 819.534 748.809C814.996 755.354 807.911 760.911 797.843 765.831C791.748 768.767 784.456 771.539 775.581 774.298C767.216 776.873 757.662 779.478 746.37 782.256C733.272 785.454 719.708 788.444 705.359 791.62C681.88 796.802 657.559 802.176 634.428 808.722C634.418 808.746 634.347 808.718 634.299 808.7Z" fill="#D900C6" fill-opacity="0.66"/>
<path d="M644.294 782.934C644.246 782.915 644.184 782.864 644.169 782.831C629.078 755.585 608.261 726.583 578.621 691.591C572.371 684.195 566.114 676.959 560.026 670.062C555.09 664.432 550.413 659.121 546.804 654.306C541.357 647.03 538.801 641.476 538.772 636.82C538.762 635.505 538.975 634.249 539.388 633.043C539.443 632.901 539.575 632.843 539.718 632.898C539.837 632.944 539.919 633.085 539.864 633.228C539.47 634.386 539.275 635.595 539.279 636.853C539.301 641.315 541.886 646.935 547.213 654.028C550.799 658.834 555.475 664.145 560.397 669.742C566.499 676.671 572.757 683.907 579.007 691.303C608.584 726.244 629.396 755.189 644.487 782.435C673.994 772.515 708.913 765.16 754.291 759.292C763.837 758.05 773.361 756.936 782.573 755.919C790.006 755.114 797.016 754.336 802.904 753.205C811.597 751.55 817.296 749.143 820.344 745.872C821.197 744.946 821.868 743.922 822.357 742.801C822.403 742.682 822.568 742.609 822.687 742.655C822.806 742.702 822.879 742.866 822.833 742.985C822.325 744.154 821.636 745.225 820.741 746.19C817.59 749.585 811.981 751.972 803.019 753.686C797.107 754.808 790.072 755.577 782.631 756.406C773.428 757.399 763.919 758.546 754.373 759.789C708.914 765.652 673.985 773.031 644.446 782.965C644.413 782.98 644.365 782.961 644.294 782.934Z" fill="#D900C6" fill-opacity="0.66"/>
<path d="M654.288 757.167C654.24 757.149 654.178 757.097 654.149 757.031C639.414 726.892 615.265 695.04 587.909 669.622C580.341 662.588 573.269 656.676 566.942 652.091C561.083 647.851 556.005 644.707 551.252 641.852L549.901 641.028C544.465 637.744 540.867 635.584 539.761 634.199C539.387 633.753 539.268 633.352 539.383 632.986C539.438 632.844 539.57 632.786 539.713 632.841C539.832 632.887 539.914 633.028 539.859 633.171C539.776 633.385 539.964 633.676 540.156 633.887C541.209 635.197 544.964 637.446 550.157 640.58L551.507 641.405C556.236 644.25 561.363 647.413 567.221 651.653C573.572 656.247 580.645 662.159 588.237 669.202C615.592 694.621 639.726 726.439 654.494 756.564C685.713 744.276 724.991 737.054 762.331 736.73C772.687 736.648 781.896 737.051 789.693 737.917C796.83 738.719 802.773 739.849 808.207 740.946L809.784 741.257C815.732 742.444 819.998 743.306 821.682 743.058C821.943 743.022 822.278 742.934 822.385 742.729C822.431 742.611 822.596 742.538 822.715 742.584C822.834 742.63 822.907 742.795 822.861 742.914C822.723 743.27 822.341 743.477 821.764 743.554C820.013 743.831 815.899 743 809.704 741.745L808.127 741.434C802.693 740.337 796.774 739.216 789.661 738.424C781.896 737.543 772.687 737.14 762.356 737.231C724.991 737.546 685.681 744.783 654.5 757.113C654.416 757.19 654.359 757.195 654.288 757.167Z" fill="#D900C6" fill-opacity="0.66"/>
<path d="M664.282 731.401C664.21 731.373 664.172 731.331 664.143 731.265C650.539 699.269 625.497 668.027 597.188 647.676C588.773 641.626 580.925 637.079 573.84 634.166C567.682 631.614 561.617 630.026 555.714 629.431C548.918 628.735 543.434 629.531 541.035 631.551C540.462 632.039 540.08 632.601 539.864 633.228C539.809 633.37 539.677 633.428 539.534 633.373C539.424 633.303 539.333 633.186 539.388 633.043C539.631 632.345 540.074 631.697 540.722 631.156C543.215 629.036 548.855 628.191 555.779 628.91C561.729 629.524 567.843 631.13 574.033 633.668C581.142 636.589 589.038 641.155 597.468 647.238C625.8 667.598 650.818 698.831 664.488 730.798C696.148 716.386 735.698 710.225 770.334 714.262C780.685 715.463 789.57 717.406 796.79 720.043C803.058 722.31 808.694 725.289 813.478 728.838C819.075 732.976 822.671 737.403 823.082 740.65C823.196 741.486 823.095 742.24 822.795 742.943C822.749 743.062 822.584 743.134 822.465 743.088C822.346 743.042 822.273 742.877 822.319 742.758C822.582 742.15 822.655 741.468 822.585 740.731C822.176 737.621 818.662 733.335 813.175 729.267C808.405 725.75 802.841 722.8 796.597 720.542C789.424 717.924 780.563 715.989 770.245 714.774C735.594 710.704 696.05 716.922 664.428 731.376C664.434 731.433 664.353 731.429 664.282 731.401Z" fill="#D900C6" fill-opacity="0.66"/>
<path d="M674.276 705.635C674.205 705.607 674.142 705.556 674.113 705.49C662.098 672.361 636.168 641.786 606.453 625.698C597.22 620.696 588.572 617.505 580.756 616.195C573.613 614.982 566.692 615.248 560.179 616.929C552.013 619.062 545.543 623.246 542.008 628.759C541.118 630.135 540.401 631.633 539.864 633.228C539.809 633.37 539.677 633.428 539.534 633.373C539.424 633.303 539.333 633.186 539.388 633.043C539.943 631.401 540.694 629.889 541.593 628.489C545.189 622.889 551.752 618.605 560.065 616.447C566.643 614.737 573.636 614.499 580.836 615.707C588.733 617.021 597.428 620.23 606.699 625.274C636.438 641.372 662.378 671.923 674.497 705.065C705.794 688.764 745.551 683.694 778.366 691.86C788.604 694.41 797.198 697.881 803.916 702.235C810.071 706.207 815.041 711.112 818.755 716.788C823.439 723.986 825.397 731.576 824.276 738.135C823.996 739.775 823.498 741.413 822.833 742.985C822.787 743.104 822.622 743.177 822.503 743.13C822.384 743.084 822.311 742.919 822.357 742.801C823.013 741.252 823.492 739.662 823.763 738.046C824.871 731.59 822.938 724.147 818.322 717.057C814.647 711.424 809.715 706.56 803.622 702.64C796.967 698.337 788.405 694.852 778.238 692.33C745.447 684.173 705.681 689.266 674.47 705.628C674.428 705.667 674.347 705.663 674.276 705.635Z" fill="#D900C6" fill-opacity="0.66"/>
<path d="M822.503 743.13C822.36 743.075 822.311 742.919 822.357 742.801C823.429 740.32 824.292 737.814 824.932 735.385C827.524 725.598 826.998 714.739 823.502 704.832C820.784 697.084 816.451 690.322 810.658 684.714C804.533 678.76 796.358 673.786 786.408 669.926C786.337 669.899 786.289 669.88 786.218 669.852C754.898 657.759 714.977 661.7 684.488 679.871C684.347 679.953 684.156 679.879 684.107 679.724C673.846 645.746 647.014 615.941 615.741 603.728C615.67 603.701 615.622 603.682 615.551 603.655C605.577 599.786 596.21 597.956 587.672 598.223C579.588 598.448 571.844 600.553 564.621 604.418C555.335 609.367 547.649 617.041 542.972 625.991C541.808 628.217 540.755 630.65 539.873 633.204C539.818 633.346 539.686 633.405 539.543 633.349C539.424 633.303 539.342 633.162 539.397 633.019C540.288 630.441 541.35 627.985 542.524 625.735C547.27 616.676 555.032 608.949 564.393 603.947C571.691 600.029 579.516 597.928 587.689 597.683C596.308 597.42 605.747 599.278 615.768 603.165C615.839 603.193 615.887 603.211 615.958 603.239C631.421 609.264 645.993 619.561 658.137 633.013C670.28 646.466 679.395 662.432 684.533 679.26C699.642 670.313 717.172 664.654 735.211 662.909C753.249 661.163 770.954 663.386 786.435 669.363C786.506 669.391 786.554 669.409 786.625 669.437C796.646 673.324 804.86 678.34 811.056 684.322C816.903 690.005 821.264 696.833 824.012 704.647C827.552 714.653 828.073 725.593 825.469 735.484C824.819 737.936 823.947 740.467 822.866 742.971C822.787 743.104 822.646 743.186 822.503 743.13Z" fill="#D900C6" fill-opacity="0.66"/>
<path d="M539.534 633.373C539.415 633.327 539.333 633.186 539.388 633.043C540.618 629.449 541.946 626.167 543.436 623.029C554.143 600.299 573.696 583.705 594.492 579.722C603.927 577.918 614.246 578.424 625.175 581.242C641.627 585.492 656.917 594.647 669.34 607.661C681.623 620.54 690.334 636.35 694.522 653.438C709.152 643.676 726.254 637.851 743.986 636.615C761.935 635.381 779.375 638.922 794.414 646.886C804.384 652.174 812.355 658.735 818.096 666.454C830.768 683.417 834.017 708.856 826.596 732.861C825.567 736.15 824.343 739.445 822.833 742.985C822.787 743.104 822.622 743.177 822.503 743.13C822.384 743.084 822.311 742.919 822.357 742.801C823.858 739.285 825.105 735.998 826.102 732.724C833.482 708.894 830.258 683.602 817.678 666.756C811.989 659.113 804.057 652.593 794.158 647.333C763.622 631.172 724.531 633.822 694.477 654.048C694.336 654.13 694.121 654.047 694.096 653.901C685.565 618.709 658.437 590.373 625.015 581.726C614.167 578.912 603.928 578.41 594.549 580.209C573.924 584.176 554.497 600.655 543.846 623.243C542.389 626.366 541.07 629.625 539.817 633.209C539.842 633.356 539.686 633.405 539.534 633.373Z" fill="#D900C6" fill-opacity="0.66"/>
<path d="M614.302 860.256C614.159 860.201 614.101 860.069 614.156 859.926L682.964 682.531C683.019 682.389 683.151 682.331 683.294 682.386C683.437 682.441 683.495 682.573 683.44 682.716L614.632 860.111C614.586 860.23 614.445 860.311 614.302 860.256Z" fill="#D900C6" fill-opacity="0.66"/>
<path d="M614.164 860.612C614.045 860.566 613.959 860.505 613.891 860.397C578.209 813.308 539.619 757.55 533.259 691.7C530.709 665.303 534.017 642.161 543.089 622.867C553.832 600.042 573.503 583.356 594.421 579.34C603.913 577.53 614.289 578.03 625.266 580.867C658.721 589.5 685.919 617.726 694.762 652.82C724.956 632.867 764.04 630.378 794.6 646.548C804.618 651.855 812.65 658.467 818.407 666.219C831.146 683.29 834.43 708.852 826.962 732.976C820.652 753.34 807.49 772.66 787.807 790.433C738.683 834.763 672.588 849.915 614.51 860.637C614.396 860.648 614.283 860.658 614.164 860.612ZM634.657 585.248C631.491 584.02 628.252 582.982 624.948 582.11C614.148 579.314 603.966 578.807 594.653 580.577C574.151 584.509 554.832 600.921 544.227 623.391C535.248 642.447 531.99 665.389 534.518 691.56C540.835 756.956 579.157 812.419 614.67 859.306C672.488 848.62 738.218 833.49 786.972 789.481C806.476 771.884 819.517 752.736 825.768 732.594C833.112 708.86 829.904 683.738 817.401 666.976C811.741 659.399 803.857 652.898 793.996 647.68C763.618 631.608 724.649 634.223 694.704 654.382C694.37 654.608 693.822 654.395 693.728 654.004C686.091 622.437 663.411 596.401 634.657 585.248Z" fill="#D900C6" fill-opacity="0.66"/>
</g>
<g filter="url(#filter2_f_119_107)">
<path d="M614.302 860.256C614.231 860.228 614.154 860.144 614.158 860.063C614.132 859.917 614.235 859.793 614.358 859.759C672.346 849.057 738.285 833.953 787.217 789.767C806.772 772.108 819.855 752.922 826.111 732.7C833.492 708.871 830.267 683.578 817.687 666.732C811.998 659.089 804.066 652.57 794.167 647.309C763.632 631.149 724.54 633.799 694.486 654.025C694.378 654.092 694.193 654.075 694.135 653.943C694.043 653.825 694.075 653.674 694.192 653.583C708.878 643.679 726.087 637.787 743.98 636.558C761.93 635.324 779.369 638.865 794.408 646.829C804.379 652.117 812.349 658.678 818.091 666.397C830.762 683.36 834.012 708.799 826.591 732.804C820.307 753.098 807.188 772.379 787.557 790.09C738.508 834.367 672.479 849.491 614.434 860.198C614.406 860.269 614.35 860.274 614.302 860.256Z" fill="#D900C6" fill-opacity="0.66"/>
<path d="M614.302 860.256C614.231 860.228 614.168 860.177 614.148 860.087C614.114 859.964 614.202 859.807 614.325 859.773C663.598 846.264 719.81 828.07 763.383 782.872C780.792 764.818 792.842 745.613 799.23 725.825C806.749 702.487 805.457 678.353 795.827 662.87C791.482 655.857 785.197 650.032 777.193 645.534C752.471 631.683 719.517 636.44 693.171 657.558C693.053 657.649 692.892 657.641 692.8 657.523C692.709 657.406 692.74 657.254 692.834 657.154C705.714 646.823 720.526 640.192 735.588 638.002C750.764 635.802 765.224 638.269 777.401 645.068C785.501 649.603 791.838 655.504 796.236 662.592C805.925 678.207 807.242 702.486 799.691 725.977C793.299 745.846 781.207 765.088 763.738 783.228C720.094 828.536 663.793 846.75 614.454 860.288C614.43 860.278 614.35 860.274 614.302 860.256Z" fill="#D900C6" fill-opacity="0.66"/>
<path d="M614.302 860.256C614.231 860.228 614.192 860.186 614.163 860.12C614.105 859.988 614.16 859.846 614.292 859.788C654.865 843.505 701.321 822.292 739.462 776.134C754.724 757.684 765.736 738.542 772.224 719.202C779.863 696.402 780.495 673.452 773.813 659.331C770.788 652.94 766.175 647.817 760.033 644.096C741.163 632.597 714.327 639.372 691.706 661.334C691.612 661.434 691.451 661.426 691.35 661.332C691.25 661.239 691.257 661.078 691.351 660.977C714.141 638.863 741.204 632.066 760.289 643.649C766.493 647.422 771.207 652.637 774.261 659.095C780.977 673.338 780.38 696.411 772.685 719.354C766.179 738.741 755.139 757.955 739.835 776.443C701.61 822.678 655.078 843.943 614.472 860.24C614.43 860.278 614.373 860.284 614.302 860.256Z" fill="#D900C6" fill-opacity="0.66"/>
<path d="M614.302 860.256C614.254 860.238 614.216 860.195 614.178 860.153C614.11 860.045 614.151 859.869 614.259 859.802C646.043 840.903 682.703 816.847 715.315 770.047C728.351 751.334 738.298 732.326 744.84 713.553C752.586 691.395 755.071 669.738 751.321 657.027C749.63 651.29 746.623 646.9 742.376 643.941C729.315 634.831 708.673 643.572 689.818 666.202C689.724 666.302 689.554 666.318 689.453 666.224C689.352 666.131 689.327 665.984 689.43 665.86C708.448 643.021 729.351 634.244 742.656 643.503C746.989 646.522 750.063 651.021 751.798 656.857C755.568 669.657 753.094 691.428 745.311 713.681C738.727 732.492 728.794 751.534 715.716 770.284C683.044 817.17 646.341 841.265 614.515 860.202C614.463 860.264 614.373 860.284 614.302 860.256Z" fill="#D900C6" fill-opacity="0.66"/>
<path d="M614.302 860.256C614.278 860.247 614.231 860.228 614.216 860.195C614.115 860.102 614.123 859.941 614.217 859.84C637.163 838.524 663.92 811.829 690.841 764.734C701.619 745.911 710.413 727.192 716.996 709.091C724.76 687.733 729.044 667.511 728.197 656.281C727.799 651.236 726.421 647.588 724.06 645.415C722.364 643.856 720.276 643.237 717.806 643.536C709.864 644.526 698.497 655.334 687.404 672.424C687.334 672.533 687.188 672.558 687.045 672.503C686.935 672.433 686.886 672.277 686.965 672.144C698.295 654.655 709.498 644.056 717.733 643.016C720.351 642.692 722.614 643.352 724.41 645.005C726.872 647.271 728.318 651.028 728.717 656.21C729.585 667.529 725.273 687.823 717.482 709.252C710.89 727.377 702.086 746.119 691.298 764.966C664.326 812.123 637.56 838.842 614.571 860.197C614.511 860.282 614.397 860.293 614.302 860.256Z" fill="#D900C6" fill-opacity="0.66"/>
<path d="M614.302 860.256C614.278 860.247 614.278 860.247 614.254 860.237C614.145 860.168 614.095 860.012 614.174 859.879C628.061 836.715 644.606 808.108 665.478 761.781C673.801 743.289 681.309 725.274 687.776 708.248C695.398 688.174 701.342 669.743 703.324 660.185C704.2 655.88 704.385 653.001 703.868 651.653C703.609 650.979 703.263 650.954 703.125 650.955C701.053 650.862 694.639 659.138 683.43 682.739C683.384 682.858 683.186 682.945 683.086 682.852C682.943 682.796 682.894 682.641 682.973 682.507C692.565 662.295 700.118 650.308 703.134 650.439C703.513 650.45 704.013 650.644 704.321 651.474C704.873 652.944 704.707 655.913 703.804 660.289C701.836 669.88 695.86 688.325 688.228 708.424C681.752 725.473 674.268 743.498 665.921 761.98C645.04 808.331 628.485 836.962 614.599 860.125C614.553 860.244 614.421 860.302 614.302 860.256Z" fill="#D900C6" fill-opacity="0.66"/>
<path d="M614.302 860.256C614.183 860.21 614.115 860.102 614.138 859.974C619.512 833.481 626.569 801.166 642.419 752.891C648.76 733.577 655.364 715.211 662.059 698.301C669.977 678.313 678.024 660.671 683.015 652.253C685.299 648.412 687.187 646.085 688.578 645.395C689.365 644.989 689.879 645.216 690.152 645.431C692.491 647.377 689.961 661.313 683.416 682.706C683.361 682.849 683.229 682.907 683.1 682.885C683.1 682.885 683.1 682.885 683.076 682.875C682.957 682.829 682.875 682.688 682.921 682.569C690.559 657.583 691.394 647.17 689.81 645.818C689.71 645.724 689.437 645.509 688.791 645.833C687.491 646.503 685.687 648.754 683.44 652.499C678.434 660.885 670.429 678.489 662.512 698.476C655.816 715.386 649.189 733.743 642.88 753.043C627.064 801.303 619.992 833.585 614.617 860.078C614.595 860.206 614.445 860.311 614.316 860.289C614.326 860.265 614.326 860.265 614.302 860.256Z" fill="#D900C6" fill-opacity="0.66"/>
<path d="M614.302 860.256C614.207 860.219 614.154 860.144 614.143 860.03C611.558 828.784 609.808 791.004 621.698 737.97C626.441 716.778 632.578 697.002 639.932 679.172C648.619 658.117 659.128 640.201 667.401 632.427C671.191 628.87 674.791 627.07 678.138 627.056C680.578 627.047 682.704 628.063 684.409 630.09C689.775 636.379 690.892 651.784 687.489 672.347C687.466 672.475 687.34 672.59 687.188 672.558C687.036 672.527 686.944 672.409 686.976 672.258C690.308 652.158 689.203 636.512 684.005 630.425C682.382 628.539 680.423 627.588 678.129 627.572C674.92 627.584 671.442 629.35 667.747 632.807C659.549 640.528 649.067 658.373 640.408 679.357C633.072 697.139 626.935 716.915 622.202 738.083C610.349 791.023 612.083 828.769 614.654 859.983C614.656 860.12 614.553 860.244 614.416 860.245C614.383 860.26 614.35 860.274 614.302 860.256Z" fill="#D900C6" fill-opacity="0.66"/>
<path d="M614.302 860.256C614.231 860.228 614.168 860.177 614.148 860.087C603.382 824.657 592.56 782.101 600.048 725.447C603.034 702.781 608.539 682.022 616.361 663.692C625.62 642.011 638.472 624.266 649.912 617.365C655.128 614.225 660.432 612.976 665.668 613.668C681.76 615.812 691.253 636.378 689.897 666.069C689.898 666.206 689.772 666.321 689.634 666.322C689.497 666.323 689.382 666.197 689.38 666.059C690.74 636.644 681.405 616.303 665.579 614.18C660.447 613.501 655.266 614.715 650.149 617.812C638.809 624.67 626.04 642.338 616.819 663.924C609.015 682.207 603.519 702.942 600.552 725.56C593.076 782.11 603.903 824.585 614.654 859.983C614.689 860.106 614.624 860.272 614.478 860.297C614.43 860.278 614.35 860.274 614.302 860.256Z" fill="#D900C6" fill-opacity="0.66"/>
<path d="M614.302 860.256C614.254 860.238 614.192 860.186 614.163 860.12C595.166 820.705 575.121 773.615 578.094 713.707C579.283 689.744 584.063 668.102 592.331 649.398C602.11 627.292 617.237 609.827 631.8 603.838C638.443 601.114 645.408 600.455 652.533 601.853C674.461 606.178 689.871 629.422 691.78 661.144C691.781 661.281 691.678 661.405 691.541 661.406C691.403 661.408 691.279 661.305 691.277 661.167C689.382 629.696 674.148 606.631 652.444 602.365C645.423 600.98 638.539 601.643 631.995 604.323C617.54 610.245 602.531 627.619 592.798 649.607C584.548 668.263 579.772 689.824 578.601 713.74C575.642 773.544 595.643 820.535 614.625 859.917C614.684 860.049 614.628 860.191 614.496 860.249C614.454 860.288 614.373 860.284 614.302 860.256Z" fill="#D900C6" fill-opacity="0.66"/>
<path d="M614.302 860.256C614.254 860.238 614.216 860.195 614.178 860.153C586.871 816.886 557.577 765.472 555.9 702.585C555.223 677.434 559.278 655.047 567.955 636.064C578.196 613.617 595.54 596.576 613.248 591.587C621.275 589.319 629.934 589.235 638.973 591.348C652.583 594.523 664.916 602.476 674.614 614.324C684.284 626.107 690.736 640.959 693.296 657.306C693.321 657.452 693.218 657.576 693.072 657.601C692.925 657.626 692.8 657.524 692.775 657.377C687.559 624.017 666.399 598.297 638.836 591.841C629.902 589.741 621.324 589.829 613.386 592.078C595.834 597.018 578.607 613.968 568.422 636.273C559.796 655.193 555.754 677.476 556.426 702.571C558.102 765.32 587.367 816.669 614.644 859.869C614.711 859.978 614.67 860.153 614.562 860.22C614.463 860.264 614.373 860.284 614.302 860.256Z" fill="#D900C6" fill-opacity="0.66"/>
<path d="M614.302 860.256C614.254 860.238 614.207 860.219 614.201 860.162C578.558 813.115 539.997 757.423 533.633 691.653C531.079 665.337 534.392 642.252 543.436 623.029C554.143 600.299 573.696 583.705 594.492 579.722C603.927 577.918 614.246 578.424 625.175 581.242C641.627 585.492 656.917 594.647 669.34 607.661C681.7 620.625 690.436 636.58 694.626 653.806C694.651 653.952 694.572 654.085 694.426 654.11C694.303 654.145 694.145 654.056 694.111 653.934C685.58 618.742 658.452 590.406 625.029 581.759C614.181 578.945 603.943 578.443 594.564 580.242C573.939 584.209 554.512 600.688 543.861 623.276C534.854 642.404 531.568 665.417 534.102 691.644C540.441 757.268 578.963 812.917 614.554 859.889C614.645 860.007 614.614 860.158 614.496 860.249C614.487 860.273 614.397 860.293 614.302 860.256Z" fill="#D900C6" fill-opacity="0.66"/>
<path d="M614.302 860.256C614.254 860.238 614.207 860.219 614.201 860.162C578.558 813.115 539.997 757.423 533.633 691.653C531.533 669.884 533.458 650.168 539.388 633.043C539.443 632.901 539.575 632.843 539.718 632.898C539.837 632.944 539.919 633.085 539.864 633.228C533.961 650.281 532.032 669.941 534.135 691.63C540.468 757.197 578.929 812.795 614.495 859.757C672.427 849.06 738.318 833.938 787.207 789.791C803.385 775.193 815.217 759.374 822.357 742.801C822.403 742.682 822.568 742.609 822.687 742.655C822.806 742.702 822.879 742.866 822.833 742.985C815.665 759.63 803.791 775.487 787.562 790.147C738.513 834.424 672.484 849.547 614.439 860.255C614.406 860.269 614.35 860.274 614.302 860.256Z" fill="#D900C6" fill-opacity="0.66"/>
<path d="M624.296 834.49C624.248 834.471 624.21 834.429 624.172 834.387C620.514 829.061 616.717 823.6 613.065 818.331C594.294 791.325 574.897 763.393 560.078 735.515C554.567 725.154 549.909 715.206 546.245 705.944C542.523 696.55 539.845 687.779 538.009 679.171C535.169 665.666 534.806 653.259 536.914 642.247C537.532 639.099 538.35 636.001 539.364 633.034C539.42 632.891 539.552 632.833 539.694 632.889C539.813 632.935 539.896 633.076 539.84 633.219C538.812 636.153 538.003 639.227 537.394 642.351C535.289 653.282 535.647 665.633 538.482 679.082C540.304 687.657 542.99 696.403 546.698 705.764C550.362 715.027 554.996 724.965 560.493 735.293C575.32 763.147 594.703 791.046 613.451 818.043C617.064 823.27 620.832 828.665 624.475 833.958C630.734 832.506 637.13 831.053 643.323 829.63C675.372 822.336 708.531 814.789 738.253 804.243C749.276 800.322 759.423 796.117 768.351 791.739C777.401 787.326 785.26 782.67 792.411 777.575C803.563 769.579 812.156 760.7 817.982 751.185C819.639 748.467 821.114 745.652 822.343 742.768C822.389 742.649 822.554 742.576 822.673 742.622C822.792 742.669 822.865 742.833 822.819 742.952C821.591 745.836 820.106 748.675 818.416 751.408C812.571 760.97 803.904 769.903 792.709 777.937C785.548 783.055 777.666 787.702 768.583 792.129C759.632 796.498 749.475 800.727 738.419 804.662C708.654 815.247 675.495 822.794 643.423 830.079C637.173 831.507 630.72 832.965 624.404 834.422C624.401 834.503 624.344 834.508 624.296 834.49Z" fill="#D900C6" fill-opacity="0.66"/>
<path d="M634.299 808.7C634.252 808.681 634.213 808.639 634.175 808.597C621.483 788.156 607.172 767.797 593.304 748.13C584.85 736.108 576.849 724.754 569.333 713.56C562.859 703.918 557.56 695.552 553.119 688.01C548.426 679.988 544.902 673.048 542.39 666.746C538.272 656.324 536.773 647.41 537.85 639.55C538.142 637.314 538.658 635.137 539.379 633.067C539.434 632.924 539.566 632.866 539.709 632.922C539.828 632.968 539.91 633.109 539.855 633.251C539.143 635.298 538.637 637.451 538.339 639.63C537.29 647.419 538.769 656.244 542.843 666.567C545.34 672.836 548.841 679.767 553.543 687.765C557.984 695.307 563.283 703.673 569.733 713.306C577.249 724.499 585.226 735.844 593.68 747.866C607.509 767.491 621.792 787.784 634.469 808.192C657.568 801.661 681.822 796.315 705.244 791.139C719.594 787.962 733.158 784.973 746.256 781.775C757.538 779.021 767.093 776.415 775.434 773.831C784.299 771.096 791.558 768.338 797.629 765.393C807.623 760.526 814.665 755.007 819.118 748.538C820.368 746.728 821.446 744.797 822.31 742.782C822.356 742.663 822.521 742.591 822.64 742.637C822.759 742.683 822.832 742.848 822.786 742.967C821.913 745.005 820.826 746.96 819.534 748.809C814.996 755.354 807.911 760.911 797.843 765.831C791.748 768.767 784.456 771.539 775.581 774.298C767.216 776.873 757.662 779.478 746.37 782.256C733.272 785.454 719.708 788.444 705.359 791.62C681.88 796.802 657.559 802.176 634.428 808.722C634.418 808.746 634.347 808.718 634.299 808.7Z" fill="#D900C6" fill-opacity="0.66"/>
<path d="M644.294 782.934C644.246 782.915 644.184 782.864 644.169 782.831C629.078 755.585 608.261 726.583 578.621 691.591C572.371 684.195 566.114 676.959 560.026 670.062C555.09 664.432 550.413 659.121 546.804 654.306C541.357 647.03 538.801 641.476 538.772 636.82C538.762 635.505 538.975 634.249 539.388 633.043C539.443 632.901 539.575 632.843 539.718 632.898C539.837 632.944 539.919 633.085 539.864 633.228C539.47 634.386 539.275 635.595 539.279 636.853C539.301 641.315 541.886 646.935 547.213 654.028C550.799 658.834 555.475 664.145 560.397 669.742C566.499 676.671 572.757 683.907 579.007 691.303C608.584 726.244 629.396 755.189 644.487 782.435C673.994 772.515 708.913 765.16 754.291 759.292C763.837 758.05 773.361 756.936 782.573 755.919C790.006 755.114 797.016 754.336 802.904 753.205C811.597 751.55 817.296 749.143 820.344 745.872C821.197 744.946 821.868 743.922 822.357 742.801C822.403 742.682 822.568 742.609 822.687 742.655C822.806 742.702 822.879 742.866 822.833 742.985C822.325 744.154 821.636 745.225 820.741 746.19C817.59 749.585 811.981 751.972 803.019 753.686C797.107 754.808 790.072 755.577 782.631 756.406C773.428 757.399 763.919 758.546 754.373 759.789C708.914 765.652 673.985 773.031 644.446 782.965C644.413 782.98 644.365 782.961 644.294 782.934Z" fill="#D900C6" fill-opacity="0.66"/>
<path d="M654.288 757.167C654.24 757.149 654.178 757.097 654.149 757.031C639.414 726.892 615.265 695.04 587.909 669.622C580.341 662.588 573.269 656.676 566.942 652.091C561.083 647.851 556.005 644.707 551.252 641.852L549.901 641.028C544.465 637.744 540.867 635.584 539.761 634.199C539.387 633.753 539.268 633.352 539.383 632.986C539.438 632.844 539.57 632.786 539.713 632.841C539.832 632.887 539.914 633.028 539.859 633.171C539.776 633.385 539.964 633.676 540.156 633.887C541.209 635.197 544.964 637.446 550.157 640.58L551.507 641.405C556.236 644.25 561.363 647.413 567.221 651.653C573.572 656.247 580.645 662.159 588.237 669.202C615.592 694.621 639.726 726.439 654.494 756.564C685.713 744.276 724.991 737.054 762.331 736.73C772.687 736.648 781.896 737.051 789.693 737.917C796.83 738.719 802.773 739.849 808.207 740.946L809.784 741.257C815.732 742.444 819.998 743.306 821.682 743.058C821.943 743.022 822.278 742.934 822.385 742.729C822.431 742.611 822.596 742.538 822.715 742.584C822.834 742.63 822.907 742.795 822.861 742.914C822.723 743.27 822.341 743.477 821.764 743.554C820.013 743.831 815.899 743 809.704 741.745L808.127 741.434C802.693 740.337 796.774 739.216 789.661 738.424C781.896 737.543 772.687 737.14 762.356 737.231C724.991 737.546 685.681 744.783 654.5 757.113C654.416 757.19 654.359 757.195 654.288 757.167Z" fill="#D900C6" fill-opacity="0.66"/>
<path d="M664.282 731.401C664.21 731.373 664.172 731.331 664.143 731.265C650.539 699.269 625.497 668.027 597.188 647.676C588.773 641.626 580.925 637.079 573.84 634.166C567.682 631.614 561.617 630.026 555.714 629.431C548.918 628.735 543.434 629.531 541.035 631.551C540.462 632.039 540.08 632.601 539.864 633.228C539.809 633.37 539.677 633.428 539.534 633.373C539.424 633.303 539.333 633.186 539.388 633.043C539.631 632.345 540.074 631.697 540.722 631.156C543.215 629.036 548.855 628.191 555.779 628.91C561.729 629.524 567.843 631.13 574.033 633.668C581.142 636.589 589.038 641.155 597.468 647.238C625.8 667.598 650.818 698.831 664.488 730.798C696.148 716.386 735.698 710.225 770.334 714.262C780.685 715.463 789.57 717.406 796.79 720.043C803.058 722.31 808.694 725.289 813.478 728.838C819.075 732.976 822.671 737.403 823.082 740.65C823.196 741.486 823.095 742.24 822.795 742.943C822.749 743.062 822.584 743.134 822.465 743.088C822.346 743.042 822.273 742.877 822.319 742.758C822.582 742.15 822.655 741.468 822.585 740.731C822.176 737.621 818.662 733.335 813.175 729.267C808.405 725.75 802.841 722.8 796.597 720.542C789.424 717.924 780.563 715.989 770.245 714.774C735.594 710.704 696.05 716.922 664.428 731.376C664.434 731.433 664.353 731.429 664.282 731.401Z" fill="#D900C6" fill-opacity="0.66"/>
<path d="M674.276 705.635C674.205 705.607 674.142 705.556 674.113 705.49C662.098 672.361 636.168 641.786 606.453 625.698C597.22 620.696 588.572 617.505 580.756 616.195C573.613 614.982 566.692 615.248 560.179 616.929C552.013 619.062 545.543 623.246 542.008 628.759C541.118 630.135 540.401 631.633 539.864 633.228C539.809 633.37 539.677 633.428 539.534 633.373C539.424 633.303 539.333 633.186 539.388 633.043C539.943 631.401 540.694 629.889 541.593 628.489C545.189 622.889 551.752 618.605 560.065 616.447C566.643 614.737 573.636 614.499 580.836 615.707C588.733 617.021 597.428 620.23 606.699 625.274C636.438 641.372 662.378 671.923 674.497 705.065C705.794 688.764 745.551 683.694 778.366 691.86C788.604 694.41 797.198 697.881 803.916 702.235C810.071 706.207 815.041 711.112 818.755 716.788C823.439 723.986 825.397 731.576 824.276 738.135C823.996 739.775 823.498 741.413 822.833 742.985C822.787 743.104 822.622 743.177 822.503 743.13C822.384 743.084 822.311 742.919 822.357 742.801C823.013 741.252 823.492 739.662 823.763 738.046C824.871 731.59 822.938 724.147 818.322 717.057C814.647 711.424 809.715 706.56 803.622 702.64C796.967 698.337 788.405 694.852 778.238 692.33C745.447 684.173 705.681 689.266 674.47 705.628C674.428 705.667 674.347 705.663 674.276 705.635Z" fill="#D900C6" fill-opacity="0.66"/>
<path d="M822.503 743.13C822.36 743.075 822.311 742.919 822.357 742.801C823.429 740.32 824.292 737.814 824.932 735.385C827.524 725.598 826.998 714.739 823.502 704.832C820.784 697.084 816.451 690.322 810.658 684.714C804.533 678.76 796.358 673.786 786.408 669.926C786.337 669.899 786.289 669.88 786.218 669.852C754.898 657.759 714.977 661.7 684.488 679.871C684.347 679.953 684.156 679.879 684.107 679.724C673.846 645.746 647.014 615.941 615.741 603.728C615.67 603.701 615.622 603.682 615.551 603.655C605.577 599.786 596.21 597.956 587.672 598.223C579.588 598.448 571.844 600.553 564.621 604.418C555.335 609.367 547.649 617.041 542.972 625.991C541.808 628.217 540.755 630.65 539.873 633.204C539.818 633.346 539.686 633.405 539.543 633.349C539.424 633.303 539.342 633.162 539.397 633.019C540.288 630.441 541.35 627.985 542.524 625.735C547.27 616.676 555.032 608.949 564.393 603.947C571.691 600.029 579.516 597.928 587.689 597.683C596.308 597.42 605.747 599.278 615.768 603.165C615.839 603.193 615.887 603.211 615.958 603.239C631.421 609.264 645.993 619.561 658.137 633.013C670.28 646.466 679.395 662.432 684.533 679.26C699.642 670.313 717.172 664.654 735.211 662.909C753.249 661.163 770.954 663.386 786.435 669.363C786.506 669.391 786.554 669.409 786.625 669.437C796.646 673.324 804.86 678.34 811.056 684.322C816.903 690.005 821.264 696.833 824.012 704.647C827.552 714.653 828.073 725.593 825.469 735.484C824.819 737.936 823.947 740.467 822.866 742.971C822.787 743.104 822.646 743.186 822.503 743.13Z" fill="#D900C6" fill-opacity="0.66"/>
<path d="M539.534 633.373C539.415 633.327 539.333 633.186 539.388 633.043C540.618 629.449 541.946 626.167 543.436 623.029C554.143 600.299 573.696 583.705 594.492 579.722C603.927 577.918 614.246 578.424 625.175 581.242C641.627 585.492 656.917 594.647 669.34 607.661C681.623 620.54 690.334 636.35 694.522 653.438C709.152 643.676 726.254 637.851 743.986 636.615C761.935 635.381 779.375 638.922 794.414 646.886C804.384 652.174 812.355 658.735 818.096 666.454C830.768 683.417 834.017 708.856 826.596 732.861C825.567 736.15 824.343 739.445 822.833 742.985C822.787 743.104 822.622 743.177 822.503 743.13C822.384 743.084 822.311 742.919 822.357 742.801C823.858 739.285 825.105 735.998 826.102 732.724C833.482 708.894 830.258 683.602 817.678 666.756C811.989 659.113 804.057 652.593 794.158 647.333C763.622 631.172 724.531 633.822 694.477 654.048C694.336 654.13 694.121 654.047 694.096 653.901C685.565 618.709 658.437 590.373 625.015 581.726C614.167 578.912 603.928 578.41 594.549 580.209C573.924 584.176 554.497 600.655 543.846 623.243C542.389 626.366 541.07 629.625 539.817 633.209C539.842 633.356 539.686 633.405 539.534 633.373Z" fill="#D900C6" fill-opacity="0.66"/>
<path d="M614.302 860.256C614.159 860.201 614.101 860.069 614.156 859.926L682.964 682.531C683.019 682.389 683.151 682.331 683.294 682.386C683.437 682.441 683.495 682.573 683.44 682.716L614.632 860.111C614.586 860.23 614.445 860.311 614.302 860.256Z" fill="#D900C6" fill-opacity="0.66"/>
<path d="M614.164 860.612C614.045 860.566 613.959 860.505 613.891 860.397C578.209 813.308 539.619 757.55 533.259 691.7C530.709 665.303 534.017 642.161 543.089 622.867C553.832 600.042 573.503 583.356 594.421 579.34C603.913 577.53 614.289 578.03 625.266 580.867C658.721 589.5 685.919 617.726 694.762 652.82C724.956 632.867 764.04 630.378 794.6 646.548C804.618 651.855 812.65 658.467 818.407 666.219C831.146 683.29 834.43 708.852 826.962 732.976C820.652 753.34 807.49 772.66 787.807 790.433C738.683 834.763 672.588 849.915 614.51 860.637C614.396 860.648 614.283 860.658 614.164 860.612ZM634.657 585.248C631.491 584.02 628.252 582.982 624.948 582.11C614.148 579.314 603.966 578.807 594.653 580.577C574.151 584.509 554.832 600.921 544.227 623.391C535.248 642.447 531.99 665.389 534.518 691.56C540.835 756.956 579.157 812.419 614.67 859.306C672.488 848.62 738.218 833.49 786.972 789.481C806.476 771.884 819.517 752.736 825.768 732.594C833.112 708.86 829.904 683.738 817.401 666.976C811.741 659.399 803.857 652.898 793.996 647.68C763.618 631.608 724.649 634.223 694.704 654.382C694.37 654.608 693.822 654.395 693.728 654.004C686.091 622.437 663.411 596.401 634.657 585.248Z" fill="#D900C6" fill-opacity="0.66"/>
</g>
<g filter="url(#filter3_f_119_107)">
<path d="M614.302 860.256C614.231 860.228 614.154 860.144 614.158 860.063C614.132 859.917 614.235 859.793 614.358 859.759C672.346 849.057 738.285 833.953 787.217 789.767C806.772 772.108 819.855 752.922 826.111 732.7C833.492 708.871 830.267 683.578 817.687 666.732C811.998 659.089 804.066 652.57 794.167 647.309C763.632 631.149 724.54 633.799 694.486 654.025C694.378 654.092 694.193 654.075 694.135 653.943C694.043 653.825 694.075 653.674 694.192 653.583C708.878 643.679 726.087 637.787 743.98 636.558C761.93 635.324 779.369 638.865 794.408 646.829C804.379 652.117 812.349 658.678 818.091 666.397C830.762 683.36 834.012 708.799 826.591 732.804C820.307 753.098 807.188 772.379 787.557 790.09C738.508 834.367 672.479 849.491 614.434 860.198C614.406 860.269 614.35 860.274 614.302 860.256Z" fill="#D900C6" fill-opacity="0.66"/>
<path d="M614.302 860.256C614.231 860.228 614.168 860.177 614.148 860.087C614.114 859.964 614.202 859.807 614.325 859.773C663.598 846.264 719.81 828.07 763.383 782.872C780.792 764.818 792.842 745.613 799.23 725.825C806.749 702.487 805.457 678.353 795.827 662.87C791.482 655.857 785.197 650.032 777.193 645.534C752.471 631.683 719.517 636.44 693.171 657.558C693.053 657.649 692.892 657.641 692.8 657.523C692.709 657.406 692.74 657.254 692.834 657.154C705.714 646.823 720.526 640.192 735.588 638.002C750.764 635.802 765.224 638.269 777.401 645.068C785.501 649.603 791.838 655.504 796.236 662.592C805.925 678.207 807.242 702.486 799.691 725.977C793.299 745.846 781.207 765.088 763.738 783.228C720.094 828.536 663.793 846.75 614.454 860.288C614.43 860.278 614.35 860.274 614.302 860.256Z" fill="#D900C6" fill-opacity="0.66"/>
<path d="M614.302 860.256C614.231 860.228 614.192 860.186 614.163 860.12C614.105 859.988 614.16 859.846 614.292 859.788C654.865 843.505 701.321 822.292 739.462 776.134C754.724 757.684 765.736 738.542 772.224 719.202C779.863 696.402 780.495 673.452 773.813 659.331C770.788 652.94 766.175 647.817 760.033 644.096C741.163 632.597 714.327 639.372 691.706 661.334C691.612 661.434 691.451 661.426 691.35 661.332C691.25 661.239 691.257 661.078 691.351 660.977C714.141 638.863 741.204 632.066 760.289 643.649C766.493 647.422 771.207 652.637 774.261 659.095C780.977 673.338 780.38 696.411 772.685 719.354C766.179 738.741 755.139 757.955 739.835 776.443C701.61 822.678 655.078 843.943 614.472 860.24C614.43 860.278 614.373 860.284 614.302 860.256Z" fill="#D900C6" fill-opacity="0.66"/>
<path d="M614.302 860.256C614.254 860.238 614.216 860.195 614.178 860.153C614.11 860.045 614.151 859.869 614.259 859.802C646.043 840.903 682.703 816.847 715.315 770.047C728.351 751.334 738.298 732.326 744.84 713.553C752.586 691.395 755.071 669.738 751.321 657.027C749.63 651.29 746.623 646.9 742.376 643.941C729.315 634.831 708.673 643.572 689.818 666.202C689.724 666.302 689.554 666.318 689.453 666.224C689.352 666.131 689.327 665.984 689.43 665.86C708.448 643.021 729.351 634.244 742.656 643.503C746.989 646.522 750.063 651.021 751.798 656.857C755.568 669.657 753.094 691.428 745.311 713.681C738.727 732.492 728.794 751.534 715.716 770.284C683.044 817.17 646.341 841.265 614.515 860.202C614.463 860.264 614.373 860.284 614.302 860.256Z" fill="#D900C6" fill-opacity="0.66"/>
<path d="M614.302 860.256C614.278 860.247 614.231 860.228 614.216 860.195C614.115 860.102 614.123 859.941 614.217 859.84C637.163 838.524 663.92 811.829 690.841 764.734C701.619 745.911 710.413 727.192 716.996 709.091C724.76 687.733 729.044 667.511 728.197 656.281C727.799 651.236 726.421 647.588 724.06 645.415C722.364 643.856 720.276 643.237 717.806 643.536C709.864 644.526 698.497 655.334 687.404 672.424C687.334 672.533 687.188 672.558 687.045 672.503C686.935 672.433 686.886 672.277 686.965 672.144C698.295 654.655 709.498 644.056 717.733 643.016C720.351 642.692 722.614 643.352 724.41 645.005C726.872 647.271 728.318 651.028 728.717 656.21C729.585 667.529 725.273 687.823 717.482 709.252C710.89 727.377 702.086 746.119 691.298 764.966C664.326 812.123 637.56 838.842 614.571 860.197C614.511 860.282 614.397 860.293 614.302 860.256Z" fill="#D900C6" fill-opacity="0.66"/>
<path d="M614.302 860.256C614.278 860.247 614.278 860.247 614.254 860.237C614.145 860.168 614.095 860.012 614.174 859.879C628.061 836.715 644.606 808.108 665.478 761.781C673.801 743.289 681.309 725.274 687.776 708.248C695.398 688.174 701.342 669.743 703.324 660.185C704.2 655.88 704.385 653.001 703.868 651.653C703.609 650.979 703.263 650.954 703.125 650.955C701.053 650.862 694.639 659.138 683.43 682.739C683.384 682.858 683.186 682.945 683.086 682.852C682.943 682.796 682.894 682.641 682.973 682.507C692.565 662.295 700.118 650.308 703.134 650.439C703.513 650.45 704.013 650.644 704.321 651.474C704.873 652.944 704.707 655.913 703.804 660.289C701.836 669.88 695.86 688.325 688.228 708.424C681.752 725.473 674.268 743.498 665.921 761.98C645.04 808.331 628.485 836.962 614.599 860.125C614.553 860.244 614.421 860.302 614.302 860.256Z" fill="#D900C6" fill-opacity="0.66"/>
<path d="M614.302 860.256C614.183 860.21 614.115 860.102 614.138 859.974C619.512 833.481 626.569 801.166 642.419 752.891C648.76 733.577 655.364 715.211 662.059 698.301C669.977 678.313 678.024 660.671 683.015 652.253C685.299 648.412 687.187 646.085 688.578 645.395C689.365 644.989 689.879 645.216 690.152 645.431C692.491 647.377 689.961 661.313 683.416 682.706C683.361 682.849 683.229 682.907 683.1 682.885C683.1 682.885 683.1 682.885 683.076 682.875C682.957 682.829 682.875 682.688 682.921 682.569C690.559 657.583 691.394 647.17 689.81 645.818C689.71 645.724 689.437 645.509 688.791 645.833C687.491 646.503 685.687 648.754 683.44 652.499C678.434 660.885 670.429 678.489 662.512 698.476C655.816 715.386 649.189 733.743 642.88 753.043C627.064 801.303 619.992 833.585 614.617 860.078C614.595 860.206 614.445 860.311 614.316 860.289C614.326 860.265 614.326 860.265 614.302 860.256Z" fill="#D900C6" fill-opacity="0.66"/>
<path d="M614.302 860.256C614.207 860.219 614.154 860.144 614.143 860.03C611.558 828.784 609.808 791.004 621.698 737.97C626.441 716.778 632.578 697.002 639.932 679.172C648.619 658.117 659.128 640.201 667.401 632.427C671.191 628.87 674.791 627.07 678.138 627.056C680.578 627.047 682.704 628.063 684.409 630.09C689.775 636.379 690.892 651.784 687.489 672.347C687.466 672.475 687.34 672.59 687.188 672.558C687.036 672.527 686.944 672.409 686.976 672.258C690.308 652.158 689.203 636.512 684.005 630.425C682.382 628.539 680.423 627.588 678.129 627.572C674.92 627.584 671.442 629.35 667.747 632.807C659.549 640.528 649.067 658.373 640.408 679.357C633.072 697.139 626.935 716.915 622.202 738.083C610.349 791.023 612.083 828.769 614.654 859.983C614.656 860.12 614.553 860.244 614.416 860.245C614.383 860.26 614.35 860.274 614.302 860.256Z" fill="#D900C6" fill-opacity="0.66"/>
<path d="M614.302 860.256C614.231 860.228 614.168 860.177 614.148 860.087C603.382 824.657 592.56 782.101 600.048 725.447C603.034 702.781 608.539 682.022 616.361 663.692C625.62 642.011 638.472 624.266 649.912 617.365C655.128 614.225 660.432 612.976 665.668 613.668C681.76 615.812 691.253 636.378 689.897 666.069C689.898 666.206 689.772 666.321 689.634 666.322C689.497 666.323 689.382 666.197 689.38 666.059C690.74 636.644 681.405 616.303 665.579 614.18C660.447 613.501 655.266 614.715 650.149 617.812C638.809 624.67 626.04 642.338 616.819 663.924C609.015 682.207 603.519 702.942 600.552 725.56C593.076 782.11 603.903 824.585 614.654 859.983C614.689 860.106 614.624 860.272 614.478 860.297C614.43 860.278 614.35 860.274 614.302 860.256Z" fill="#D900C6" fill-opacity="0.66"/>
<path d="M614.302 860.256C614.254 860.238 614.192 860.186 614.163 860.12C595.166 820.705 575.121 773.615 578.094 713.707C579.283 689.744 584.063 668.102 592.331 649.398C602.11 627.292 617.237 609.827 631.8 603.838C638.443 601.114 645.408 600.455 652.533 601.853C674.461 606.178 689.871 629.422 691.78 661.144C691.781 661.281 691.678 661.405 691.541 661.406C691.403 661.408 691.279 661.305 691.277 661.167C689.382 629.696 674.148 606.631 652.444 602.365C645.423 600.98 638.539 601.643 631.995 604.323C617.54 610.245 602.531 627.619 592.798 649.607C584.548 668.263 579.772 689.824 578.601 713.74C575.642 773.544 595.643 820.535 614.625 859.917C614.684 860.049 614.628 860.191 614.496 860.249C614.454 860.288 614.373 860.284 614.302 860.256Z" fill="#D900C6" fill-opacity="0.66"/>
<path d="M614.302 860.256C614.254 860.238 614.216 860.195 614.178 860.153C586.871 816.886 557.577 765.472 555.9 702.585C555.223 677.434 559.278 655.047 567.955 636.064C578.196 613.617 595.54 596.576 613.248 591.587C621.275 589.319 629.934 589.235 638.973 591.348C652.583 594.523 664.916 602.476 674.614 614.324C684.284 626.107 690.736 640.959 693.296 657.306C693.321 657.452 693.218 657.576 693.072 657.601C692.925 657.626 692.8 657.524 692.775 657.377C687.559 624.017 666.399 598.297 638.836 591.841C629.902 589.741 621.324 589.829 613.386 592.078C595.834 597.018 578.607 613.968 568.422 636.273C559.796 655.193 555.754 677.476 556.426 702.571C558.102 765.32 587.367 816.669 614.644 859.869C614.711 859.978 614.67 860.153 614.562 860.22C614.463 860.264 614.373 860.284 614.302 860.256Z" fill="#D900C6" fill-opacity="0.66"/>
<path d="M614.302 860.256C614.254 860.238 614.207 860.219 614.201 860.162C578.558 813.115 539.997 757.423 533.633 691.653C531.079 665.337 534.392 642.252 543.436 623.029C554.143 600.299 573.696 583.705 594.492 579.722C603.927 577.918 614.246 578.424 625.175 581.242C641.627 585.492 656.917 594.647 669.34 607.661C681.7 620.625 690.436 636.58 694.626 653.806C694.651 653.952 694.572 654.085 694.426 654.11C694.303 654.145 694.145 654.056 694.111 653.934C685.58 618.742 658.452 590.406 625.029 581.759C614.181 578.945 603.943 578.443 594.564 580.242C573.939 584.209 554.512 600.688 543.861 623.276C534.854 642.404 531.568 665.417 534.102 691.644C540.441 757.268 578.963 812.917 614.554 859.889C614.645 860.007 614.614 860.158 614.496 860.249C614.487 860.273 614.397 860.293 614.302 860.256Z" fill="#D900C6" fill-opacity="0.66"/>
<path d="M614.302 860.256C614.254 860.238 614.207 860.219 614.201 860.162C578.558 813.115 539.997 757.423 533.633 691.653C531.533 669.884 533.458 650.168 539.388 633.043C539.443 632.901 539.575 632.843 539.718 632.898C539.837 632.944 539.919 633.085 539.864 633.228C533.961 650.281 532.032 669.941 534.135 691.63C540.468 757.197 578.929 812.795 614.495 859.757C672.427 849.06 738.318 833.938 787.207 789.791C803.385 775.193 815.217 759.374 822.357 742.801C822.403 742.682 822.568 742.609 822.687 742.655C822.806 742.702 822.879 742.866 822.833 742.985C815.665 759.63 803.791 775.487 787.562 790.147C738.513 834.424 672.484 849.547 614.439 860.255C614.406 860.269 614.35 860.274 614.302 860.256Z" fill="#D900C6" fill-opacity="0.66"/>
<path d="M624.296 834.49C624.248 834.471 624.21 834.429 624.172 834.387C620.514 829.061 616.717 823.6 613.065 818.331C594.294 791.325 574.897 763.393 560.078 735.515C554.567 725.154 549.909 715.206 546.245 705.944C542.523 696.55 539.845 687.779 538.009 679.171C535.169 665.666 534.806 653.259 536.914 642.247C537.532 639.099 538.35 636.001 539.364 633.034C539.42 632.891 539.552 632.833 539.694 632.889C539.813 632.935 539.896 633.076 539.84 633.219C538.812 636.153 538.003 639.227 537.394 642.351C535.289 653.282 535.647 665.633 538.482 679.082C540.304 687.657 542.99 696.403 546.698 705.764C550.362 715.027 554.996 724.965 560.493 735.293C575.32 763.147 594.703 791.046 613.451 818.043C617.064 823.27 620.832 828.665 624.475 833.958C630.734 832.506 637.13 831.053 643.323 829.63C675.372 822.336 708.531 814.789 738.253 804.243C749.276 800.322 759.423 796.117 768.351 791.739C777.401 787.326 785.26 782.67 792.411 777.575C803.563 769.579 812.156 760.7 817.982 751.185C819.639 748.467 821.114 745.652 822.343 742.768C822.389 742.649 822.554 742.576 822.673 742.622C822.792 742.669 822.865 742.833 822.819 742.952C821.591 745.836 820.106 748.675 818.416 751.408C812.571 760.97 803.904 769.903 792.709 777.937C785.548 783.055 777.666 787.702 768.583 792.129C759.632 796.498 749.475 800.727 738.419 804.662C708.654 815.247 675.495 822.794 643.423 830.079C637.173 831.507 630.72 832.965 624.404 834.422C624.401 834.503 624.344 834.508 624.296 834.49Z" fill="#D900C6" fill-opacity="0.66"/>
<path d="M634.299 808.7C634.252 808.681 634.213 808.639 634.175 808.597C621.483 788.156 607.172 767.797 593.304 748.13C584.85 736.108 576.849 724.754 569.333 713.56C562.859 703.918 557.56 695.552 553.119 688.01C548.426 679.988 544.902 673.048 542.39 666.746C538.272 656.324 536.773 647.41 537.85 639.55C538.142 637.314 538.658 635.137 539.379 633.067C539.434 632.924 539.566 632.866 539.709 632.922C539.828 632.968 539.91 633.109 539.855 633.251C539.143 635.298 538.637 637.451 538.339 639.63C537.29 647.419 538.769 656.244 542.843 666.567C545.34 672.836 548.841 679.767 553.543 687.765C557.984 695.307 563.283 703.673 569.733 713.306C577.249 724.499 585.226 735.844 593.68 747.866C607.509 767.491 621.792 787.784 634.469 808.192C657.568 801.661 681.822 796.315 705.244 791.139C719.594 787.962 733.158 784.973 746.256 781.775C757.538 779.021 767.093 776.415 775.434 773.831C784.299 771.096 791.558 768.338 797.629 765.393C807.623 760.526 814.665 755.007 819.118 748.538C820.368 746.728 821.446 744.797 822.31 742.782C822.356 742.663 822.521 742.591 822.64 742.637C822.759 742.683 822.832 742.848 822.786 742.967C821.913 745.005 820.826 746.96 819.534 748.809C814.996 755.354 807.911 760.911 797.843 765.831C791.748 768.767 784.456 771.539 775.581 774.298C767.216 776.873 757.662 779.478 746.37 782.256C733.272 785.454 719.708 788.444 705.359 791.62C681.88 796.802 657.559 802.176 634.428 808.722C634.418 808.746 634.347 808.718 634.299 808.7Z" fill="#D900C6" fill-opacity="0.66"/>
<path d="M644.294 782.934C644.246 782.915 644.184 782.864 644.169 782.831C629.078 755.585 608.261 726.583 578.621 691.591C572.371 684.195 566.114 676.959 560.026 670.062C555.09 664.432 550.413 659.121 546.804 654.306C541.357 647.03 538.801 641.476 538.772 636.82C538.762 635.505 538.975 634.249 539.388 633.043C539.443 632.901 539.575 632.843 539.718 632.898C539.837 632.944 539.919 633.085 539.864 633.228C539.47 634.386 539.275 635.595 539.279 636.853C539.301 641.315 541.886 646.935 547.213 654.028C550.799 658.834 555.475 664.145 560.397 669.742C566.499 676.671 572.757 683.907 579.007 691.303C608.584 726.244 629.396 755.189 644.487 782.435C673.994 772.515 708.913 765.16 754.291 759.292C763.837 758.05 773.361 756.936 782.573 755.919C790.006 755.114 797.016 754.336 802.904 753.205C811.597 751.55 817.296 749.143 820.344 745.872C821.197 744.946 821.868 743.922 822.357 742.801C822.403 742.682 822.568 742.609 822.687 742.655C822.806 742.702 822.879 742.866 822.833 742.985C822.325 744.154 821.636 745.225 820.741 746.19C817.59 749.585 811.981 751.972 803.019 753.686C797.107 754.808 790.072 755.577 782.631 756.406C773.428 757.399 763.919 758.546 754.373 759.789C708.914 765.652 673.985 773.031 644.446 782.965C644.413 782.98 644.365 782.961 644.294 782.934Z" fill="#D900C6" fill-opacity="0.66"/>
<path d="M654.288 757.167C654.24 757.149 654.178 757.097 654.149 757.031C639.414 726.892 615.265 695.04 587.909 669.622C580.341 662.588 573.269 656.676 566.942 652.091C561.083 647.851 556.005 644.707 551.252 641.852L549.901 641.028C544.465 637.744 540.867 635.584 539.761 634.199C539.387 633.753 539.268 633.352 539.383 632.986C539.438 632.844 539.57 632.786 539.713 632.841C539.832 632.887 539.914 633.028 539.859 633.171C539.776 633.385 539.964 633.676 540.156 633.887C541.209 635.197 544.964 637.446 550.157 640.58L551.507 641.405C556.236 644.25 561.363 647.413 567.221 651.653C573.572 656.247 580.645 662.159 588.237 669.202C615.592 694.621 639.726 726.439 654.494 756.564C685.713 744.276 724.991 737.054 762.331 736.73C772.687 736.648 781.896 737.051 789.693 737.917C796.83 738.719 802.773 739.849 808.207 740.946L809.784 741.257C815.732 742.444 819.998 743.306 821.682 743.058C821.943 743.022 822.278 742.934 822.385 742.729C822.431 742.611 822.596 742.538 822.715 742.584C822.834 742.63 822.907 742.795 822.861 742.914C822.723 743.27 822.341 743.477 821.764 743.554C820.013 743.831 815.899 743 809.704 741.745L808.127 741.434C802.693 740.337 796.774 739.216 789.661 738.424C781.896 737.543 772.687 737.14 762.356 737.231C724.991 737.546 685.681 744.783 654.5 757.113C654.416 757.19 654.359 757.195 654.288 757.167Z" fill="#D900C6" fill-opacity="0.66"/>
<path d="M664.282 731.401C664.21 731.373 664.172 731.331 664.143 731.265C650.539 699.269 625.497 668.027 597.188 647.676C588.773 641.626 580.925 637.079 573.84 634.166C567.682 631.614 561.617 630.026 555.714 629.431C548.918 628.735 543.434 629.531 541.035 631.551C540.462 632.039 540.08 632.601 539.864 633.228C539.809 633.37 539.677 633.428 539.534 633.373C539.424 633.303 539.333 633.186 539.388 633.043C539.631 632.345 540.074 631.697 540.722 631.156C543.215 629.036 548.855 628.191 555.779 628.91C561.729 629.524 567.843 631.13 574.033 633.668C581.142 636.589 589.038 641.155 597.468 647.238C625.8 667.598 650.818 698.831 664.488 730.798C696.148 716.386 735.698 710.225 770.334 714.262C780.685 715.463 789.57 717.406 796.79 720.043C803.058 722.31 808.694 725.289 813.478 728.838C819.075 732.976 822.671 737.403 823.082 740.65C823.196 741.486 823.095 742.24 822.795 742.943C822.749 743.062 822.584 743.134 822.465 743.088C822.346 743.042 822.273 742.877 822.319 742.758C822.582 742.15 822.655 741.468 822.585 740.731C822.176 737.621 818.662 733.335 813.175 729.267C808.405 725.75 802.841 722.8 796.597 720.542C789.424 717.924 780.563 715.989 770.245 714.774C735.594 710.704 696.05 716.922 664.428 731.376C664.434 731.433 664.353 731.429 664.282 731.401Z" fill="#D900C6" fill-opacity="0.66"/>
<path d="M674.276 705.635C674.205 705.607 674.142 705.556 674.113 705.49C662.098 672.361 636.168 641.786 606.453 625.698C597.22 620.696 588.572 617.505 580.756 616.195C573.613 614.982 566.692 615.248 560.179 616.929C552.013 619.062 545.543 623.246 542.008 628.759C541.118 630.135 540.401 631.633 539.864 633.228C539.809 633.37 539.677 633.428 539.534 633.373C539.424 633.303 539.333 633.186 539.388 633.043C539.943 631.401 540.694 629.889 541.593 628.489C545.189 622.889 551.752 618.605 560.065 616.447C566.643 614.737 573.636 614.499 580.836 615.707C588.733 617.021 597.428 620.23 606.699 625.274C636.438 641.372 662.378 671.923 674.497 705.065C705.794 688.764 745.551 683.694 778.366 691.86C788.604 694.41 797.198 697.881 803.916 702.235C810.071 706.207 815.041 711.112 818.755 716.788C823.439 723.986 825.397 731.576 824.276 738.135C823.996 739.775 823.498 741.413 822.833 742.985C822.787 743.104 822.622 743.177 822.503 743.13C822.384 743.084 822.311 742.919 822.357 742.801C823.013 741.252 823.492 739.662 823.763 738.046C824.871 731.59 822.938 724.147 818.322 717.057C814.647 711.424 809.715 706.56 803.622 702.64C796.967 698.337 788.405 694.852 778.238 692.33C745.447 684.173 705.681 689.266 674.47 705.628C674.428 705.667 674.347 705.663 674.276 705.635Z" fill="#D900C6" fill-opacity="0.66"/>
<path d="M822.503 743.13C822.36 743.075 822.311 742.919 822.357 742.801C823.429 740.32 824.292 737.814 824.932 735.385C827.524 725.598 826.998 714.739 823.502 704.832C820.784 697.084 816.451 690.322 810.658 684.714C804.533 678.76 796.358 673.786 786.408 669.926C786.337 669.899 786.289 669.88 786.218 669.852C754.898 657.759 714.977 661.7 684.488 679.871C684.347 679.953 684.156 679.879 684.107 679.724C673.846 645.746 647.014 615.941 615.741 603.728C615.67 603.701 615.622 603.682 615.551 603.655C605.577 599.786 596.21 597.956 587.672 598.223C579.588 598.448 571.844 600.553 564.621 604.418C555.335 609.367 547.649 617.041 542.972 625.991C541.808 628.217 540.755 630.65 539.873 633.204C539.818 633.346 539.686 633.405 539.543 633.349C539.424 633.303 539.342 633.162 539.397 633.019C540.288 630.441 541.35 627.985 542.524 625.735C547.27 616.676 555.032 608.949 564.393 603.947C571.691 600.029 579.516 597.928 587.689 597.683C596.308 597.42 605.747 599.278 615.768 603.165C615.839 603.193 615.887 603.211 615.958 603.239C631.421 609.264 645.993 619.561 658.137 633.013C670.28 646.466 679.395 662.432 684.533 679.26C699.642 670.313 717.172 664.654 735.211 662.909C753.249 661.163 770.954 663.386 786.435 669.363C786.506 669.391 786.554 669.409 786.625 669.437C796.646 673.324 804.86 678.34 811.056 684.322C816.903 690.005 821.264 696.833 824.012 704.647C827.552 714.653 828.073 725.593 825.469 735.484C824.819 737.936 823.947 740.467 822.866 742.971C822.787 743.104 822.646 743.186 822.503 743.13Z" fill="#D900C6" fill-opacity="0.66"/>
<path d="M539.534 633.373C539.415 633.327 539.333 633.186 539.388 633.043C540.618 629.449 541.946 626.167 543.436 623.029C554.143 600.299 573.696 583.705 594.492 579.722C603.927 577.918 614.246 578.424 625.175 581.242C641.627 585.492 656.917 594.647 669.34 607.661C681.623 620.54 690.334 636.35 694.522 653.438C709.152 643.676 726.254 637.851 743.986 636.615C761.935 635.381 779.375 638.922 794.414 646.886C804.384 652.174 812.355 658.735 818.096 666.454C830.768 683.417 834.017 708.856 826.596 732.861C825.567 736.15 824.343 739.445 822.833 742.985C822.787 743.104 822.622 743.177 822.503 743.13C822.384 743.084 822.311 742.919 822.357 742.801C823.858 739.285 825.105 735.998 826.102 732.724C833.482 708.894 830.258 683.602 817.678 666.756C811.989 659.113 804.057 652.593 794.158 647.333C763.622 631.172 724.531 633.822 694.477 654.048C694.336 654.13 694.121 654.047 694.096 653.901C685.565 618.709 658.437 590.373 625.015 581.726C614.167 578.912 603.928 578.41 594.549 580.209C573.924 584.176 554.497 600.655 543.846 623.243C542.389 626.366 541.07 629.625 539.817 633.209C539.842 633.356 539.686 633.405 539.534 633.373Z" fill="#D900C6" fill-opacity="0.66"/>
<path d="M614.302 860.256C614.159 860.201 614.101 860.069 614.156 859.926L682.964 682.531C683.019 682.389 683.151 682.331 683.294 682.386C683.437 682.441 683.495 682.573 683.44 682.716L614.632 860.111C614.586 860.23 614.445 860.311 614.302 860.256Z" fill="#D900C6" fill-opacity="0.66"/>
<path d="M614.164 860.612C614.045 860.566 613.959 860.505 613.891 860.397C578.209 813.308 539.619 757.55 533.259 691.7C530.709 665.303 534.017 642.161 543.089 622.867C553.832 600.042 573.503 583.356 594.421 579.34C603.913 577.53 614.289 578.03 625.266 580.867C658.721 589.5 685.919 617.726 694.762 652.82C724.956 632.867 764.04 630.378 794.6 646.548C804.618 651.855 812.65 658.467 818.407 666.219C831.146 683.29 834.43 708.852 826.962 732.976C820.652 753.34 807.49 772.66 787.807 790.433C738.683 834.763 672.588 849.915 614.51 860.637C614.396 860.648 614.283 860.658 614.164 860.612ZM634.657 585.248C631.491 584.02 628.252 582.982 624.948 582.11C614.148 579.314 603.966 578.807 594.653 580.577C574.151 584.509 554.832 600.921 544.227 623.391C535.248 642.447 531.99 665.389 534.518 691.56C540.835 756.956 579.157 812.419 614.67 859.306C672.488 848.62 738.218 833.49 786.972 789.481C806.476 771.884 819.517 752.736 825.768 732.594C833.112 708.86 829.904 683.738 817.401 666.976C811.741 659.399 803.857 652.898 793.996 647.68C763.618 631.608 724.649 634.223 694.704 654.382C694.37 654.608 693.822 654.395 693.728 654.004C686.091 622.437 663.411 596.401 634.657 585.248Z" fill="#D900C6" fill-opacity="0.66"/>
</g>
<defs>
<filter id="filter0_f_119_107" x="0" y="0" width="1397" height="1397" filterUnits="userSpaceOnUse" color-interpolation-filters="sRGB">
<feFlood flood-opacity="0" result="BackgroundImageFix"/>
<feBlend mode="normal" in="SourceGraphic" in2="BackgroundImageFix" result="shape"/>
<feGaussianBlur stdDeviation="250" result="effect1_foregroundBlur_119_107"/>
</filter>
<filter id="filter1_f_119_107" x="522.426" y="568.278" width="318.484" height="302.368" filterUnits="userSpaceOnUse" color-interpolation-filters="sRGB">
<feFlood flood-opacity="0" result="BackgroundImageFix"/>
<feBlend mode="normal" in="SourceGraphic" in2="BackgroundImageFix" result="shape"/>
<feGaussianBlur stdDeviation="5" result="effect1_foregroundBlur_119_107"/>
</filter>
<filter id="filter2_f_119_107" x="502.426" y="548.278" width="358.484" height="342.368" filterUnits="userSpaceOnUse" color-interpolation-filters="sRGB">
<feFlood flood-opacity="0" result="BackgroundImageFix"/>
<feBlend mode="normal" in="SourceGraphic" in2="BackgroundImageFix" result="shape"/>
<feGaussianBlur stdDeviation="15" result="effect1_foregroundBlur_119_107"/>
</filter>
<filter id="filter3_f_119_107" x="482.426" y="528.278" width="398.484" height="382.368" filterUnits="userSpaceOnUse" color-interpolation-filters="sRGB">
<feFlood flood-opacity="0" result="BackgroundImageFix"/>
<feBlend mode="normal" in="SourceGraphic" in2="BackgroundImageFix" result="shape"/>
<feGaussianBlur stdDeviation="25" result="effect1_foregroundBlur_119_107"/>
</filter>
</defs>
</svg>
